<?xml version="1.0" encoding="utf-8" standalone="no"?>
<!DOCTYPE svg PUBLIC "-//W3C//DTD SVG 1.1//EN"
  "http://www.w3.org/Graphics/SVG/1.1/DTD/svg11.dtd">
<svg xmlns:xlink="http://www.w3.org/1999/xlink" width="432pt" height="360pt" viewBox="0 0 432 360" xmlns="http://www.w3.org/2000/svg" version="1.1">
 <metadata>
  <rdf:RDF xmlns:dc="http://purl.org/dc/elements/1.1/" xmlns:cc="http://creativecommons.org/ns#" xmlns:rdf="http://www.w3.org/1999/02/22-rdf-syntax-ns#">
   <cc:Work>
    <dc:type rdf:resource="http://purl.org/dc/dcmitype/StillImage"/>
    <dc:date>2023-11-22T17:48:14.606043</dc:date>
    <dc:format>image/svg+xml</dc:format>
    <dc:creator>
     <cc:Agent>
      <dc:title>Matplotlib v3.7.4, https://matplotlib.org/</dc:title>
     </cc:Agent>
    </dc:creator>
   </cc:Work>
  </rdf:RDF>
 </metadata>
 <defs>
  <style type="text/css">*{stroke-linejoin: round; stroke-linecap: butt}</style>
 </defs>
 <g id="figure_1">
  <g id="patch_1">
   <path d="M 0 360 
L 432 360 
L 432 0 
L 0 0 
z
" style="fill: #ffffff"/>
  </g>
  <g id="axes_1">
   <g id="patch_2">
    <path d="M 54 320.4 
L 388.8 320.4 
L 388.8 43.2 
L 54 43.2 
z
" style="fill: #ffffff"/>
   </g>
   <g id="PolyCollection_1">
    <path d="M -89562.143877 91.700453 
L -89562.143877 87.099547 
L 110.994229 52.44 
L 159.308226 61.948169 
L 180.25687 76.199688 
L 193.818423 83.854412 
L 203.865494 87.003279 
L 211.849755 88.236506 
L 218.47565 88.748822 
L 224.138867 88.975865 
L 229.083982 89.08702 
L 233.472782 89.1316 
L 237.417876 89.159821 
L 241.000798 89.164064 
L 244.282492 89.171944 
L 247.309702 89.177683 
L 250.119073 89.185551 
L 252.739862 89.189867 
L 255.195803 89.200317 
L 257.506412 89.2032 
L 259.687931 89.219528 
L 261.754027 89.229576 
L 263.7163 89.250122 
L 265.584688 89.264075 
L 267.367766 89.271884 
L 269.072986 89.292132 
L 270.706863 89.296363 
L 272.275128 89.314336 
L 273.782848 89.320762 
L 275.234525 89.337794 
L 276.634176 89.341757 
L 277.985401 89.346029 
L 279.291439 89.362497 
L 280.555216 89.359757 
L 281.77938 89.365929 
L 282.96634 89.368944 
L 284.118291 89.369416 
L 285.237238 89.371881 
L 286.325021 89.374333 
L 287.383328 89.375507 
L 288.413714 89.37794 
L 289.417616 89.382711 
L 290.39636 89.382744 
L 291.351177 89.386186 
L 292.283209 89.384633 
L 293.193517 89.38614 
L 294.083092 89.388378 
L 294.952857 89.38913 
L 295.803675 89.389437 
L 296.636354 89.392205 
L 297.451651 89.391144 
L 298.250277 89.393149 
L 299.032901 89.392711 
L 299.80015 89.392635 
L 300.552618 89.393741 
L 301.290864 89.395369 
L 302.015414 89.395746 
L 302.726768 89.396534 
L 303.425398 89.395498 
L 304.11175 89.396371 
L 304.78625 89.39779 
L 305.4493 89.396114 
L 306.101282 89.397731 
L 306.742558 89.396896 
L 307.373476 89.398054 
L 307.994365 89.398525 
L 308.605538 89.397913 
L 309.207294 89.398669 
L 309.79992 89.39793 
L 310.383689 89.398091 
L 310.958861 89.398526 
L 311.525686 89.398599 
L 312.084403 89.399418 
L 312.635239 89.399061 
L 313.178416 89.397979 
L 313.714142 89.398954 
L 314.24262 89.399305 
L 314.764042 89.399265 
L 315.278595 89.39904 
L 315.786458 89.399838 
L 316.287801 89.399785 
L 316.782791 89.399468 
L 317.271587 89.399855 
L 317.754341 89.399519 
L 318.231201 89.399654 
L 318.702309 89.399774 
L 319.167803 89.399874 
L 319.627814 89.399573 
L 320.082471 89.399646 
L 320.531896 89.399838 
L 320.976208 89.399826 
L 321.415523 89.399896 
L 321.849952 89.399911 
L 322.279602 89.399896 
L 322.704577 89.399779 
L 323.124978 89.399974 
L 323.540902 89.399837 
L 323.952444 89.399773 
L 324.359694 89.399825 
L 324.762742 89.399929 
L 325.161674 89.399975 
L 325.161674 89.400025 
L 325.161674 89.400025 
L 324.762742 89.400071 
L 324.359694 89.400175 
L 323.952444 89.400227 
L 323.540902 89.400163 
L 323.124978 89.400026 
L 322.704577 89.400221 
L 322.279602 89.400104 
L 321.849952 89.400089 
L 321.415523 89.400104 
L 320.976208 89.400174 
L 320.531896 89.400162 
L 320.082471 89.400354 
L 319.627814 89.400427 
L 319.167803 89.400126 
L 318.702309 89.400226 
L 318.231201 89.400346 
L 317.754341 89.400481 
L 317.271587 89.400145 
L 316.782791 89.400532 
L 316.287801 89.400215 
L 315.786458 89.400162 
L 315.278595 89.40096 
L 314.764042 89.400735 
L 314.24262 89.400695 
L 313.714142 89.401046 
L 313.178416 89.402021 
L 312.635239 89.400939 
L 312.084403 89.400582 
L 311.525686 89.401401 
L 310.958861 89.401474 
L 310.383689 89.401909 
L 309.79992 89.40207 
L 309.207294 89.401331 
L 308.605538 89.402087 
L 307.994365 89.401475 
L 307.373476 89.401946 
L 306.742558 89.403104 
L 306.101282 89.402269 
L 305.4493 89.403886 
L 304.78625 89.40221 
L 304.11175 89.403629 
L 303.425398 89.404502 
L 302.726768 89.403466 
L 302.015414 89.404254 
L 301.290864 89.404631 
L 300.552618 89.406259 
L 299.80015 89.407365 
L 299.032901 89.407289 
L 298.250277 89.406851 
L 297.451651 89.408856 
L 296.636354 89.407795 
L 295.803675 89.410563 
L 294.952857 89.41087 
L 294.083092 89.411622 
L 293.193517 89.41386 
L 292.283209 89.415367 
L 291.351177 89.413814 
L 290.39636 89.417256 
L 289.417616 89.417289 
L 288.413714 89.42206 
L 287.383328 89.424493 
L 286.325021 89.425667 
L 285.237238 89.428119 
L 284.118291 89.430584 
L 282.96634 89.431056 
L 281.77938 89.434071 
L 280.555216 89.440243 
L 279.291439 89.437503 
L 277.985401 89.453971 
L 276.634176 89.458243 
L 275.234525 89.462206 
L 273.782848 89.479238 
L 272.275128 89.485664 
L 270.706863 89.503637 
L 269.072986 89.507868 
L 267.367766 89.528116 
L 265.584688 89.535925 
L 263.7163 89.549878 
L 261.754027 89.570424 
L 259.687931 89.580472 
L 257.506412 89.5968 
L 255.195803 89.599683 
L 252.739862 89.610133 
L 250.119073 89.614449 
L 247.309702 89.622317 
L 244.282492 89.628056 
L 241.000798 89.635936 
L 237.417876 89.640179 
L 233.472782 89.6684 
L 229.083982 89.71298 
L 224.138867 89.824135 
L 218.47565 90.051178 
L 211.849755 90.563494 
L 203.865494 91.796721 
L 193.818423 94.945588 
L 180.25687 102.600312 
L 159.308226 116.851831 
L 110.994229 126.36 
L -89562.143877 91.700453 
z
" clip-path="url(#p7da677f5fb)" style="fill: #cfdc91; stroke: #616161; stroke-width: 1.25"/>
   </g>
   <g id="PolyCollection_2">
    <path d="M -89562.143877 182.305481 
L -89562.143877 181.294519 
L -89562.143877 172.232112 
L 169.586696 144.84 
L 211.193833 145.2568 
L 230.880053 162.433711 
L 243.907672 168.945289 
L 253.659899 171.70561 
L 261.457187 173.636167 
L 267.953934 175.013411 
L 273.522596 175.983093 
L 278.39549 176.681574 
L 282.727327 177.191011 
L 286.626341 177.579432 
L 290.171222 177.903408 
L 293.420976 178.179077 
L 296.42099 178.425746 
L 299.206924 178.57595 
L 301.807308 178.726024 
L 304.245321 178.923702 
L 306.540055 179.12772 
L 308.707419 179.309667 
L 310.760813 179.488158 
L 312.711626 179.644618 
L 314.569621 179.802699 
L 316.343232 179.952511 
L 318.039791 180.080081 
L 319.665716 180.205977 
L 321.226653 180.320048 
L 322.727599 180.424681 
L 324.172995 180.507347 
L 325.566805 180.596546 
L 326.912587 180.692625 
L 328.213539 180.774076 
L 329.472553 180.84049 
L 330.692248 180.91255 
L 331.875006 180.990817 
L 333.022998 181.06434 
L 334.13821 181.114155 
L 335.222462 181.17367 
L 336.277427 181.228682 
L 337.304646 181.268266 
L 338.30554 181.30837 
L 339.281425 181.335146 
L 340.233521 181.359284 
L 341.162959 181.377776 
L 342.070794 181.397609 
L 342.958007 181.438805 
L 343.825513 181.482339 
L 344.67417 181.524251 
L 345.504778 181.557952 
L 346.318091 181.587771 
L 347.114812 181.61562 
L 347.895607 181.63635 
L 348.661099 181.650324 
L 349.411876 181.661023 
L 350.148493 181.674372 
L 350.871475 181.683062 
L 351.581318 181.695102 
L 352.27849 181.706189 
L 352.963435 181.714981 
L 353.636576 181.72144 
L 354.298313 181.726651 
L 354.949024 181.7316 
L 355.589073 181.741002 
L 356.218801 181.748273 
L 356.838538 181.755128 
L 357.448595 181.757879 
L 358.04927 181.761253 
L 358.640846 181.764436 
L 359.223597 181.767485 
L 359.79778 181.769528 
L 360.363645 181.772497 
L 360.921429 181.773093 
L 361.471359 181.77612 
L 362.013654 181.78067 
L 362.548523 181.781973 
L 363.076165 181.78264 
L 363.596775 181.784765 
L 364.110537 181.785615 
L 364.617629 181.786339 
L 365.118221 181.786228 
L 365.612479 181.787966 
L 366.10056 181.789323 
L 366.582618 181.789406 
L 367.058798 181.790964 
L 367.529243 181.793282 
L 367.994089 181.794664 
L 368.453468 181.79473 
L 368.907507 181.795399 
L 369.356328 181.795487 
L 369.80005 181.796141 
L 370.238788 181.797505 
L 370.672653 181.798681 
L 371.101751 181.799244 
L 371.526186 181.799579 
L 371.946059 181.799746 
L 372.361466 181.799754 
L 372.772501 181.799712 
L 373.179256 181.799835 
L 373.581818 181.799977 
L 373.581818 181.800023 
L 373.581818 181.800023 
L 373.179256 181.800165 
L 372.772501 181.800288 
L 372.361466 181.800246 
L 371.946059 181.800254 
L 371.526186 181.800421 
L 371.101751 181.800756 
L 370.672653 181.801319 
L 370.238788 181.802495 
L 369.80005 181.803859 
L 369.356328 181.804513 
L 368.907507 181.804601 
L 368.453468 181.80527 
L 367.994089 181.805336 
L 367.529243 181.806718 
L 367.058798 181.809036 
L 366.582618 181.810594 
L 366.10056 181.810677 
L 365.612479 181.812034 
L 365.118221 181.813772 
L 364.617629 181.813661 
L 364.110537 181.814385 
L 363.596775 181.815235 
L 363.076165 181.81736 
L 362.548523 181.818027 
L 362.013654 181.81933 
L 361.471359 181.82388 
L 360.921429 181.826907 
L 360.363645 181.827503 
L 359.79778 181.830472 
L 359.223597 181.832515 
L 358.640846 181.835564 
L 358.04927 181.838747 
L 357.448595 181.842121 
L 356.838538 181.844872 
L 356.218801 181.851727 
L 355.589073 181.858998 
L 354.949024 181.8684 
L 354.298313 181.873349 
L 353.636576 181.87856 
L 352.963435 181.885019 
L 352.27849 181.893811 
L 351.581318 181.904898 
L 350.871475 181.916938 
L 350.148493 181.925628 
L 349.411876 181.938977 
L 348.661099 181.949676 
L 347.895607 181.96365 
L 347.114812 181.98438 
L 346.318091 182.012229 
L 345.504778 182.042048 
L 344.67417 182.075749 
L 343.825513 182.117661 
L 342.958007 182.161195 
L 342.070794 182.202391 
L 341.162959 182.222224 
L 340.233521 182.240716 
L 339.281425 182.264854 
L 338.30554 182.29163 
L 337.304646 182.331734 
L 336.277427 182.371318 
L 335.222462 182.42633 
L 334.13821 182.485845 
L 333.022998 182.53566 
L 331.875006 182.609183 
L 330.692248 182.68745 
L 329.472553 182.75951 
L 328.213539 182.825924 
L 326.912587 182.907375 
L 325.566805 183.003454 
L 324.172995 183.092653 
L 322.727599 183.175319 
L 321.226653 183.279952 
L 319.665716 183.394023 
L 318.039791 183.519919 
L 316.343232 183.647489 
L 314.569621 183.797301 
L 312.711626 183.955382 
L 310.760813 184.111842 
L 308.707419 184.290333 
L 306.540055 184.47228 
L 304.245321 184.676298 
L 301.807308 184.873976 
L 299.206924 185.02405 
L 296.42099 185.174254 
L 293.420976 185.420923 
L 290.171222 185.696592 
L 286.626341 186.020568 
L 282.727327 186.408989 
L 278.39549 186.918426 
L 273.522596 187.616907 
L 267.953934 188.586589 
L 261.457187 189.963833 
L 253.659899 191.89439 
L 243.907672 194.654711 
L 230.880053 201.166289 
L 211.193833 218.3432 
L 169.586696 218.76 
L -89562.143877 191.367888 
L -89562.143877 182.305481 
z
" clip-path="url(#p7da677f5fb)" style="fill: #dfcd94; stroke: #616161; stroke-width: 1.25"/>
   </g>
   <g id="PolyCollection_3">
    <path d="M -89562.143877 274.201161 
L -89562.143877 274.198839 
L 154.204256 273.780721 
L 194.70218 263.81968 
L 214.153448 237.24 
L 227.078948 240.939537 
L 236.774066 249.825469 
L 244.534871 255.044312 
L 251.006296 257.688565 
L 256.556355 258.064428 
L 261.415004 258.012704 
L 265.735583 260.107417 
L 269.625476 264.373196 
L 273.162816 268.180618 
L 276.406233 270.812751 
L 279.400846 272.168351 
L 282.182122 272.931029 
L 284.778447 273.379718 
L 287.212893 273.607611 
L 289.504466 273.767753 
L 291.66901 273.864501 
L 293.719873 273.955428 
L 295.668401 274.009499 
L 297.524325 274.036698 
L 299.296047 274.064608 
L 300.990878 274.078155 
L 302.615215 274.111873 
L 304.17469 274.137556 
L 305.674283 274.135489 
L 307.118424 274.143859 
L 308.511068 274.15426 
L 309.855762 274.157976 
L 311.155698 274.165005 
L 312.41376 274.171116 
L 313.632562 274.176771 
L 314.81448 274.178986 
L 315.96168 274.175148 
L 317.076145 274.181897 
L 318.159692 274.184406 
L 319.213988 274.187099 
L 320.240573 274.188374 
L 321.240865 274.18952 
L 322.216178 274.187673 
L 323.16773 274.190922 
L 324.09665 274.18848 
L 325.003989 274.190861 
L 325.890729 274.192407 
L 326.757783 274.194125 
L 327.606008 274.194144 
L 328.436202 274.192958 
L 329.249117 274.192269 
L 330.045458 274.193705 
L 330.825886 274.196792 
L 331.591026 274.191906 
L 332.341464 274.196286 
L 333.077756 274.19575 
L 333.800424 274.197862 
L 334.509964 274.195418 
L 335.206844 274.19819 
L 335.891507 274.19661 
L 336.564376 274.197105 
L 337.22585 274.197957 
L 337.876307 274.198441 
L 338.516109 274.198752 
L 339.1456 274.198308 
L 339.765106 274.199358 
L 340.374939 274.19862 
L 340.975397 274.198985 
L 341.566763 274.199142 
L 342.14931 274.197303 
L 342.723295 274.198771 
L 343.288968 274.198232 
L 343.846565 274.199441 
L 344.396313 274.199379 
L 344.938431 274.199103 
L 345.473128 274.198503 
L 346.000604 274.19847 
L 346.521051 274.198332 
L 347.034654 274.198781 
L 347.541591 274.198995 
L 348.042033 274.199818 
L 348.536144 274.199871 
L 349.024082 274.199928 
L 349.506 274.19946 
L 349.982044 274.2 
L 350.452356 274.199485 
L 350.917073 274.199893 
L 351.376325 274.199993 
L 351.830239 274.199711 
L 352.27894 274.199622 
L 352.722544 274.199509 
L 353.161166 274.19988 
L 353.594918 274.199904 
L 354.023905 274.199855 
L 354.448232 274.19953 
L 354.867999 274.199825 
L 355.283302 274.199995 
L 355.694236 274.199685 
L 356.100891 274.199734 
L 356.503356 274.199914 
L 356.901717 274.199936 
L 356.901717 274.200064 
L 356.901717 274.200064 
L 356.503356 274.200086 
L 356.100891 274.200266 
L 355.694236 274.200315 
L 355.283302 274.200005 
L 354.867999 274.200175 
L 354.448232 274.20047 
L 354.023905 274.200145 
L 353.594918 274.200096 
L 353.161166 274.20012 
L 352.722544 274.200491 
L 352.27894 274.200378 
L 351.830239 274.200289 
L 351.376325 274.200007 
L 350.917073 274.200107 
L 350.452356 274.200515 
L 349.982044 274.2 
L 349.506 274.20054 
L 349.024082 274.200072 
L 348.536144 274.200129 
L 348.042033 274.200182 
L 347.541591 274.201005 
L 347.034654 274.201219 
L 346.521051 274.201668 
L 346.000604 274.20153 
L 345.473128 274.201497 
L 344.938431 274.200897 
L 344.396313 274.200621 
L 343.846565 274.200559 
L 343.288968 274.201768 
L 342.723295 274.201229 
L 342.14931 274.202697 
L 341.566763 274.200858 
L 340.975397 274.201015 
L 340.374939 274.20138 
L 339.765106 274.200642 
L 339.1456 274.201692 
L 338.516109 274.201248 
L 337.876307 274.201559 
L 337.22585 274.202043 
L 336.564376 274.202895 
L 335.891507 274.20339 
L 335.206844 274.20181 
L 334.509964 274.204582 
L 333.800424 274.202138 
L 333.077756 274.20425 
L 332.341464 274.203714 
L 331.591026 274.208094 
L 330.825886 274.203208 
L 330.045458 274.206295 
L 329.249117 274.207731 
L 328.436202 274.207042 
L 327.606008 274.205856 
L 326.757783 274.205875 
L 325.890729 274.207593 
L 325.003989 274.209139 
L 324.09665 274.21152 
L 323.16773 274.209078 
L 322.216178 274.212327 
L 321.240865 274.21048 
L 320.240573 274.211626 
L 319.213988 274.212901 
L 318.159692 274.215594 
L 317.076145 274.218103 
L 315.96168 274.224852 
L 314.81448 274.221014 
L 313.632562 274.223229 
L 312.41376 274.228884 
L 311.155698 274.234995 
L 309.855762 274.242024 
L 308.511068 274.24574 
L 307.118424 274.256141 
L 305.674283 274.264511 
L 304.17469 274.262444 
L 302.615215 274.288127 
L 300.990878 274.321845 
L 299.296047 274.335392 
L 297.524325 274.363302 
L 295.668401 274.390501 
L 293.719873 274.444572 
L 291.66901 274.535499 
L 289.504466 274.632247 
L 287.212893 274.792389 
L 284.778447 275.020282 
L 282.182122 275.468971 
L 279.400846 276.231649 
L 276.406233 277.587249 
L 273.162816 280.219382 
L 269.625476 284.026804 
L 265.735583 288.292583 
L 261.415004 290.387296 
L 256.556355 290.335572 
L 251.006296 290.711435 
L 244.534871 293.355688 
L 236.774066 298.574531 
L 227.078948 307.460463 
L 214.153448 311.16 
L 194.70218 284.58032 
L 154.204256 274.619279 
L -89562.143877 274.201161 
z
" clip-path="url(#p7da677f5fb)" style="fill: #9d85bf; stroke: #616161; stroke-width: 1.25"/>
   </g>
   <g id="matplotlib.axis_1">
    <g id="xtick_1">
     <g id="line2d_1">
      <defs>
       <path id="m238e0b57ad" d="M 0 0 
L 0 3.5 
" style="stroke: #000000; stroke-width: 0.8"/>
      </defs>
      <g>
       <use xlink:href="#m238e0b57ad" x="103.881927" y="320.4" style="stroke: #000000; stroke-width: 0.8"/>
      </g>
     </g>
     <g id="text_1">
      <!-- $\mathdefault{10^{-3}}$ -->
      <g transform="translate(92.131927 334.998438) scale(0.1 -0.1)">
       <defs>
        <path id="DejaVuSans-31" d="M 794 531 
L 1825 531 
L 1825 4091 
L 703 3866 
L 703 4441 
L 1819 4666 
L 2450 4666 
L 2450 531 
L 3481 531 
L 3481 0 
L 794 0 
L 794 531 
z
" transform="scale(0.015625)"/>
        <path id="DejaVuSans-30" d="M 2034 4250 
Q 1547 4250 1301 3770 
Q 1056 3291 1056 2328 
Q 1056 1369 1301 889 
Q 1547 409 2034 409 
Q 2525 409 2770 889 
Q 3016 1369 3016 2328 
Q 3016 3291 2770 3770 
Q 2525 4250 2034 4250 
z
M 2034 4750 
Q 2819 4750 3233 4129 
Q 3647 3509 3647 2328 
Q 3647 1150 3233 529 
Q 2819 -91 2034 -91 
Q 1250 -91 836 529 
Q 422 1150 422 2328 
Q 422 3509 836 4129 
Q 1250 4750 2034 4750 
z
" transform="scale(0.015625)"/>
        <path id="DejaVuSans-2212" d="M 678 2272 
L 4684 2272 
L 4684 1741 
L 678 1741 
L 678 2272 
z
" transform="scale(0.015625)"/>
        <path id="DejaVuSans-33" d="M 2597 2516 
Q 3050 2419 3304 2112 
Q 3559 1806 3559 1356 
Q 3559 666 3084 287 
Q 2609 -91 1734 -91 
Q 1441 -91 1130 -33 
Q 819 25 488 141 
L 488 750 
Q 750 597 1062 519 
Q 1375 441 1716 441 
Q 2309 441 2620 675 
Q 2931 909 2931 1356 
Q 2931 1769 2642 2001 
Q 2353 2234 1838 2234 
L 1294 2234 
L 1294 2753 
L 1863 2753 
Q 2328 2753 2575 2939 
Q 2822 3125 2822 3475 
Q 2822 3834 2567 4026 
Q 2313 4219 1838 4219 
Q 1578 4219 1281 4162 
Q 984 4106 628 3988 
L 628 4550 
Q 988 4650 1302 4700 
Q 1616 4750 1894 4750 
Q 2613 4750 3031 4423 
Q 3450 4097 3450 3541 
Q 3450 3153 3228 2886 
Q 3006 2619 2597 2516 
z
" transform="scale(0.015625)"/>
       </defs>
       <use xlink:href="#DejaVuSans-31" transform="translate(0 0.765625)"/>
       <use xlink:href="#DejaVuSans-30" transform="translate(63.623047 0.765625)"/>
       <use xlink:href="#DejaVuSans-2212" transform="translate(128.203125 39.046875) scale(0.7)"/>
       <use xlink:href="#DejaVuSans-33" transform="translate(186.855469 39.046875) scale(0.7)"/>
      </g>
     </g>
    </g>
    <g id="xtick_2">
     <g id="line2d_2">
      <g>
       <use xlink:href="#m238e0b57ad" x="193.81776" y="320.4" style="stroke: #000000; stroke-width: 0.8"/>
      </g>
     </g>
     <g id="text_2">
      <!-- $\mathdefault{10^{-2}}$ -->
      <g transform="translate(182.06776 334.998438) scale(0.1 -0.1)">
       <defs>
        <path id="DejaVuSans-32" d="M 1228 531 
L 3431 531 
L 3431 0 
L 469 0 
L 469 531 
Q 828 903 1448 1529 
Q 2069 2156 2228 2338 
Q 2531 2678 2651 2914 
Q 2772 3150 2772 3378 
Q 2772 3750 2511 3984 
Q 2250 4219 1831 4219 
Q 1534 4219 1204 4116 
Q 875 4013 500 3803 
L 500 4441 
Q 881 4594 1212 4672 
Q 1544 4750 1819 4750 
Q 2544 4750 2975 4387 
Q 3406 4025 3406 3419 
Q 3406 3131 3298 2873 
Q 3191 2616 2906 2266 
Q 2828 2175 2409 1742 
Q 1991 1309 1228 531 
z
" transform="scale(0.015625)"/>
       </defs>
       <use xlink:href="#DejaVuSans-31" transform="translate(0 0.765625)"/>
       <use xlink:href="#DejaVuSans-30" transform="translate(63.623047 0.765625)"/>
       <use xlink:href="#DejaVuSans-2212" transform="translate(128.203125 39.046875) scale(0.7)"/>
       <use xlink:href="#DejaVuSans-32" transform="translate(186.855469 39.046875) scale(0.7)"/>
      </g>
     </g>
    </g>
    <g id="xtick_3">
     <g id="line2d_3">
      <g>
       <use xlink:href="#m238e0b57ad" x="283.753593" y="320.4" style="stroke: #000000; stroke-width: 0.8"/>
      </g>
     </g>
     <g id="text_3">
      <!-- $\mathdefault{10^{-1}}$ -->
      <g transform="translate(272.003593 334.998438) scale(0.1 -0.1)">
       <use xlink:href="#DejaVuSans-31" transform="translate(0 0.684375)"/>
       <use xlink:href="#DejaVuSans-30" transform="translate(63.623047 0.684375)"/>
       <use xlink:href="#DejaVuSans-2212" transform="translate(128.203125 38.965625) scale(0.7)"/>
       <use xlink:href="#DejaVuSans-31" transform="translate(186.855469 38.965625) scale(0.7)"/>
      </g>
     </g>
    </g>
    <g id="xtick_4">
     <g id="line2d_4">
      <g>
       <use xlink:href="#m238e0b57ad" x="373.689426" y="320.4" style="stroke: #000000; stroke-width: 0.8"/>
      </g>
     </g>
     <g id="text_4">
      <!-- $\mathdefault{10^{0}}$ -->
      <g transform="translate(364.889426 334.998438) scale(0.1 -0.1)">
       <use xlink:href="#DejaVuSans-31" transform="translate(0 0.765625)"/>
       <use xlink:href="#DejaVuSans-30" transform="translate(63.623047 0.765625)"/>
       <use xlink:href="#DejaVuSans-30" transform="translate(128.203125 39.046875) scale(0.7)"/>
      </g>
     </g>
    </g>
    <g id="xtick_5">
     <g id="line2d_5">
      <defs>
       <path id="md882a2ad19" d="M 0 0 
L 0 2 
" style="stroke: #000000; stroke-width: 0.6"/>
      </defs>
      <g>
       <use xlink:href="#md882a2ad19" x="56.856391" y="320.4" style="stroke: #000000; stroke-width: 0.6"/>
      </g>
     </g>
    </g>
    <g id="xtick_6">
     <g id="line2d_6">
      <g>
       <use xlink:href="#md882a2ad19" x="68.09286" y="320.4" style="stroke: #000000; stroke-width: 0.6"/>
      </g>
     </g>
    </g>
    <g id="xtick_7">
     <g id="line2d_7">
      <g>
       <use xlink:href="#md882a2ad19" x="76.808543" y="320.4" style="stroke: #000000; stroke-width: 0.6"/>
      </g>
     </g>
    </g>
    <g id="xtick_8">
     <g id="line2d_8">
      <g>
       <use xlink:href="#md882a2ad19" x="83.929774" y="320.4" style="stroke: #000000; stroke-width: 0.6"/>
      </g>
     </g>
    </g>
    <g id="xtick_9">
     <g id="line2d_9">
      <g>
       <use xlink:href="#md882a2ad19" x="89.95069" y="320.4" style="stroke: #000000; stroke-width: 0.6"/>
      </g>
     </g>
    </g>
    <g id="xtick_10">
     <g id="line2d_10">
      <g>
       <use xlink:href="#md882a2ad19" x="95.166244" y="320.4" style="stroke: #000000; stroke-width: 0.6"/>
      </g>
     </g>
    </g>
    <g id="xtick_11">
     <g id="line2d_11">
      <g>
       <use xlink:href="#md882a2ad19" x="99.766688" y="320.4" style="stroke: #000000; stroke-width: 0.6"/>
      </g>
     </g>
    </g>
    <g id="xtick_12">
     <g id="line2d_12">
      <g>
       <use xlink:href="#md882a2ad19" x="130.95531" y="320.4" style="stroke: #000000; stroke-width: 0.6"/>
      </g>
     </g>
    </g>
    <g id="xtick_13">
     <g id="line2d_13">
      <g>
       <use xlink:href="#md882a2ad19" x="146.792224" y="320.4" style="stroke: #000000; stroke-width: 0.6"/>
      </g>
     </g>
    </g>
    <g id="xtick_14">
     <g id="line2d_14">
      <g>
       <use xlink:href="#md882a2ad19" x="158.028694" y="320.4" style="stroke: #000000; stroke-width: 0.6"/>
      </g>
     </g>
    </g>
    <g id="xtick_15">
     <g id="line2d_15">
      <g>
       <use xlink:href="#md882a2ad19" x="166.744376" y="320.4" style="stroke: #000000; stroke-width: 0.6"/>
      </g>
     </g>
    </g>
    <g id="xtick_16">
     <g id="line2d_16">
      <g>
       <use xlink:href="#md882a2ad19" x="173.865608" y="320.4" style="stroke: #000000; stroke-width: 0.6"/>
      </g>
     </g>
    </g>
    <g id="xtick_17">
     <g id="line2d_17">
      <g>
       <use xlink:href="#md882a2ad19" x="179.886523" y="320.4" style="stroke: #000000; stroke-width: 0.6"/>
      </g>
     </g>
    </g>
    <g id="xtick_18">
     <g id="line2d_18">
      <g>
       <use xlink:href="#md882a2ad19" x="185.102077" y="320.4" style="stroke: #000000; stroke-width: 0.6"/>
      </g>
     </g>
    </g>
    <g id="xtick_19">
     <g id="line2d_19">
      <g>
       <use xlink:href="#md882a2ad19" x="189.702522" y="320.4" style="stroke: #000000; stroke-width: 0.6"/>
      </g>
     </g>
    </g>
    <g id="xtick_20">
     <g id="line2d_20">
      <g>
       <use xlink:href="#md882a2ad19" x="220.891143" y="320.4" style="stroke: #000000; stroke-width: 0.6"/>
      </g>
     </g>
    </g>
    <g id="xtick_21">
     <g id="line2d_21">
      <g>
       <use xlink:href="#md882a2ad19" x="236.728057" y="320.4" style="stroke: #000000; stroke-width: 0.6"/>
      </g>
     </g>
    </g>
    <g id="xtick_22">
     <g id="line2d_22">
      <g>
       <use xlink:href="#md882a2ad19" x="247.964527" y="320.4" style="stroke: #000000; stroke-width: 0.6"/>
      </g>
     </g>
    </g>
    <g id="xtick_23">
     <g id="line2d_23">
      <g>
       <use xlink:href="#md882a2ad19" x="256.68021" y="320.4" style="stroke: #000000; stroke-width: 0.6"/>
      </g>
     </g>
    </g>
    <g id="xtick_24">
     <g id="line2d_24">
      <g>
       <use xlink:href="#md882a2ad19" x="263.801441" y="320.4" style="stroke: #000000; stroke-width: 0.6"/>
      </g>
     </g>
    </g>
    <g id="xtick_25">
     <g id="line2d_25">
      <g>
       <use xlink:href="#md882a2ad19" x="269.822356" y="320.4" style="stroke: #000000; stroke-width: 0.6"/>
      </g>
     </g>
    </g>
    <g id="xtick_26">
     <g id="line2d_26">
      <g>
       <use xlink:href="#md882a2ad19" x="275.03791" y="320.4" style="stroke: #000000; stroke-width: 0.6"/>
      </g>
     </g>
    </g>
    <g id="xtick_27">
     <g id="line2d_27">
      <g>
       <use xlink:href="#md882a2ad19" x="279.638355" y="320.4" style="stroke: #000000; stroke-width: 0.6"/>
      </g>
     </g>
    </g>
    <g id="xtick_28">
     <g id="line2d_28">
      <g>
       <use xlink:href="#md882a2ad19" x="310.826977" y="320.4" style="stroke: #000000; stroke-width: 0.6"/>
      </g>
     </g>
    </g>
    <g id="xtick_29">
     <g id="line2d_29">
      <g>
       <use xlink:href="#md882a2ad19" x="326.663891" y="320.4" style="stroke: #000000; stroke-width: 0.6"/>
      </g>
     </g>
    </g>
    <g id="xtick_30">
     <g id="line2d_30">
      <g>
       <use xlink:href="#md882a2ad19" x="337.90036" y="320.4" style="stroke: #000000; stroke-width: 0.6"/>
      </g>
     </g>
    </g>
    <g id="xtick_31">
     <g id="line2d_31">
      <g>
       <use xlink:href="#md882a2ad19" x="346.616043" y="320.4" style="stroke: #000000; stroke-width: 0.6"/>
      </g>
     </g>
    </g>
    <g id="xtick_32">
     <g id="line2d_32">
      <g>
       <use xlink:href="#md882a2ad19" x="353.737274" y="320.4" style="stroke: #000000; stroke-width: 0.6"/>
      </g>
     </g>
    </g>
    <g id="xtick_33">
     <g id="line2d_33">
      <g>
       <use xlink:href="#md882a2ad19" x="359.75819" y="320.4" style="stroke: #000000; stroke-width: 0.6"/>
      </g>
     </g>
    </g>
    <g id="xtick_34">
     <g id="line2d_34">
      <g>
       <use xlink:href="#md882a2ad19" x="364.973744" y="320.4" style="stroke: #000000; stroke-width: 0.6"/>
      </g>
     </g>
    </g>
    <g id="xtick_35">
     <g id="line2d_35">
      <g>
       <use xlink:href="#md882a2ad19" x="369.574188" y="320.4" style="stroke: #000000; stroke-width: 0.6"/>
      </g>
     </g>
    </g>
    <g id="text_5">
     <!-- Penalty -->
     <g transform="translate(202.948438 348.676562) scale(0.1 -0.1)">
      <defs>
       <path id="DejaVuSans-50" d="M 1259 4147 
L 1259 2394 
L 2053 2394 
Q 2494 2394 2734 2622 
Q 2975 2850 2975 3272 
Q 2975 3691 2734 3919 
Q 2494 4147 2053 4147 
L 1259 4147 
z
M 628 4666 
L 2053 4666 
Q 2838 4666 3239 4311 
Q 3641 3956 3641 3272 
Q 3641 2581 3239 2228 
Q 2838 1875 2053 1875 
L 1259 1875 
L 1259 0 
L 628 0 
L 628 4666 
z
" transform="scale(0.015625)"/>
       <path id="DejaVuSans-65" d="M 3597 1894 
L 3597 1613 
L 953 1613 
Q 991 1019 1311 708 
Q 1631 397 2203 397 
Q 2534 397 2845 478 
Q 3156 559 3463 722 
L 3463 178 
Q 3153 47 2828 -22 
Q 2503 -91 2169 -91 
Q 1331 -91 842 396 
Q 353 884 353 1716 
Q 353 2575 817 3079 
Q 1281 3584 2069 3584 
Q 2775 3584 3186 3129 
Q 3597 2675 3597 1894 
z
M 3022 2063 
Q 3016 2534 2758 2815 
Q 2500 3097 2075 3097 
Q 1594 3097 1305 2825 
Q 1016 2553 972 2059 
L 3022 2063 
z
" transform="scale(0.015625)"/>
       <path id="DejaVuSans-6e" d="M 3513 2113 
L 3513 0 
L 2938 0 
L 2938 2094 
Q 2938 2591 2744 2837 
Q 2550 3084 2163 3084 
Q 1697 3084 1428 2787 
Q 1159 2491 1159 1978 
L 1159 0 
L 581 0 
L 581 3500 
L 1159 3500 
L 1159 2956 
Q 1366 3272 1645 3428 
Q 1925 3584 2291 3584 
Q 2894 3584 3203 3211 
Q 3513 2838 3513 2113 
z
" transform="scale(0.015625)"/>
       <path id="DejaVuSans-61" d="M 2194 1759 
Q 1497 1759 1228 1600 
Q 959 1441 959 1056 
Q 959 750 1161 570 
Q 1363 391 1709 391 
Q 2188 391 2477 730 
Q 2766 1069 2766 1631 
L 2766 1759 
L 2194 1759 
z
M 3341 1997 
L 3341 0 
L 2766 0 
L 2766 531 
Q 2569 213 2275 61 
Q 1981 -91 1556 -91 
Q 1019 -91 701 211 
Q 384 513 384 1019 
Q 384 1609 779 1909 
Q 1175 2209 1959 2209 
L 2766 2209 
L 2766 2266 
Q 2766 2663 2505 2880 
Q 2244 3097 1772 3097 
Q 1472 3097 1187 3025 
Q 903 2953 641 2809 
L 641 3341 
Q 956 3463 1253 3523 
Q 1550 3584 1831 3584 
Q 2591 3584 2966 3190 
Q 3341 2797 3341 1997 
z
" transform="scale(0.015625)"/>
       <path id="DejaVuSans-6c" d="M 603 4863 
L 1178 4863 
L 1178 0 
L 603 0 
L 603 4863 
z
" transform="scale(0.015625)"/>
       <path id="DejaVuSans-74" d="M 1172 4494 
L 1172 3500 
L 2356 3500 
L 2356 3053 
L 1172 3053 
L 1172 1153 
Q 1172 725 1289 603 
Q 1406 481 1766 481 
L 2356 481 
L 2356 0 
L 1766 0 
Q 1100 0 847 248 
Q 594 497 594 1153 
L 594 3053 
L 172 3053 
L 172 3500 
L 594 3500 
L 594 4494 
L 1172 4494 
z
" transform="scale(0.015625)"/>
       <path id="DejaVuSans-79" d="M 2059 -325 
Q 1816 -950 1584 -1140 
Q 1353 -1331 966 -1331 
L 506 -1331 
L 506 -850 
L 844 -850 
Q 1081 -850 1212 -737 
Q 1344 -625 1503 -206 
L 1606 56 
L 191 3500 
L 800 3500 
L 1894 763 
L 2988 3500 
L 3597 3500 
L 2059 -325 
z
" transform="scale(0.015625)"/>
      </defs>
      <use xlink:href="#DejaVuSans-50"/>
      <use xlink:href="#DejaVuSans-65" x="56.677734"/>
      <use xlink:href="#DejaVuSans-6e" x="118.201172"/>
      <use xlink:href="#DejaVuSans-61" x="181.580078"/>
      <use xlink:href="#DejaVuSans-6c" x="242.859375"/>
      <use xlink:href="#DejaVuSans-74" x="270.642578"/>
      <use xlink:href="#DejaVuSans-79" x="309.851562"/>
     </g>
    </g>
   </g>
   <g id="matplotlib.axis_2">
    <g id="ytick_1">
     <g id="line2d_36">
      <defs>
       <path id="m28c842032e" d="M 0 0 
L -3.5 0 
" style="stroke: #000000; stroke-width: 0.8"/>
      </defs>
      <g>
       <use xlink:href="#m28c842032e" x="54" y="89.4" style="stroke: #000000; stroke-width: 0.8"/>
      </g>
     </g>
     <g id="text_6">
      <!-- Overlap -->
      <g transform="translate(7.690625 93.199219) scale(0.1 -0.1)">
       <defs>
        <path id="DejaVuSans-4f" d="M 2522 4238 
Q 1834 4238 1429 3725 
Q 1025 3213 1025 2328 
Q 1025 1447 1429 934 
Q 1834 422 2522 422 
Q 3209 422 3611 934 
Q 4013 1447 4013 2328 
Q 4013 3213 3611 3725 
Q 3209 4238 2522 4238 
z
M 2522 4750 
Q 3503 4750 4090 4092 
Q 4678 3434 4678 2328 
Q 4678 1225 4090 567 
Q 3503 -91 2522 -91 
Q 1538 -91 948 565 
Q 359 1222 359 2328 
Q 359 3434 948 4092 
Q 1538 4750 2522 4750 
z
" transform="scale(0.015625)"/>
        <path id="DejaVuSans-76" d="M 191 3500 
L 800 3500 
L 1894 563 
L 2988 3500 
L 3597 3500 
L 2284 0 
L 1503 0 
L 191 3500 
z
" transform="scale(0.015625)"/>
        <path id="DejaVuSans-72" d="M 2631 2963 
Q 2534 3019 2420 3045 
Q 2306 3072 2169 3072 
Q 1681 3072 1420 2755 
Q 1159 2438 1159 1844 
L 1159 0 
L 581 0 
L 581 3500 
L 1159 3500 
L 1159 2956 
Q 1341 3275 1631 3429 
Q 1922 3584 2338 3584 
Q 2397 3584 2469 3576 
Q 2541 3569 2628 3553 
L 2631 2963 
z
" transform="scale(0.015625)"/>
        <path id="DejaVuSans-70" d="M 1159 525 
L 1159 -1331 
L 581 -1331 
L 581 3500 
L 1159 3500 
L 1159 2969 
Q 1341 3281 1617 3432 
Q 1894 3584 2278 3584 
Q 2916 3584 3314 3078 
Q 3713 2572 3713 1747 
Q 3713 922 3314 415 
Q 2916 -91 2278 -91 
Q 1894 -91 1617 61 
Q 1341 213 1159 525 
z
M 3116 1747 
Q 3116 2381 2855 2742 
Q 2594 3103 2138 3103 
Q 1681 3103 1420 2742 
Q 1159 2381 1159 1747 
Q 1159 1113 1420 752 
Q 1681 391 2138 391 
Q 2594 391 2855 752 
Q 3116 1113 3116 1747 
z
" transform="scale(0.015625)"/>
       </defs>
       <use xlink:href="#DejaVuSans-4f"/>
       <use xlink:href="#DejaVuSans-76" x="78.710938"/>
       <use xlink:href="#DejaVuSans-65" x="137.890625"/>
       <use xlink:href="#DejaVuSans-72" x="199.414062"/>
       <use xlink:href="#DejaVuSans-6c" x="240.527344"/>
       <use xlink:href="#DejaVuSans-61" x="268.310547"/>
       <use xlink:href="#DejaVuSans-70" x="329.589844"/>
      </g>
     </g>
    </g>
    <g id="ytick_2">
     <g id="line2d_37">
      <g>
       <use xlink:href="#m28c842032e" x="54" y="181.8" style="stroke: #000000; stroke-width: 0.8"/>
      </g>
     </g>
     <g id="text_7">
      <!-- Gap -->
      <g transform="translate(26.775 185.599219) scale(0.1 -0.1)">
       <defs>
        <path id="DejaVuSans-47" d="M 3809 666 
L 3809 1919 
L 2778 1919 
L 2778 2438 
L 4434 2438 
L 4434 434 
Q 4069 175 3628 42 
Q 3188 -91 2688 -91 
Q 1594 -91 976 548 
Q 359 1188 359 2328 
Q 359 3472 976 4111 
Q 1594 4750 2688 4750 
Q 3144 4750 3555 4637 
Q 3966 4525 4313 4306 
L 4313 3634 
Q 3963 3931 3569 4081 
Q 3175 4231 2741 4231 
Q 1884 4231 1454 3753 
Q 1025 3275 1025 2328 
Q 1025 1384 1454 906 
Q 1884 428 2741 428 
Q 3075 428 3337 486 
Q 3600 544 3809 666 
z
" transform="scale(0.015625)"/>
       </defs>
       <use xlink:href="#DejaVuSans-47"/>
       <use xlink:href="#DejaVuSans-61" x="77.490234"/>
       <use xlink:href="#DejaVuSans-70" x="138.769531"/>
      </g>
     </g>
    </g>
    <g id="ytick_3">
     <g id="line2d_38">
      <g>
       <use xlink:href="#m28c842032e" x="54" y="274.2" style="stroke: #000000; stroke-width: 0.8"/>
      </g>
     </g>
     <g id="text_8">
      <!-- Indel/Mismatch -->
      <g transform="translate(-29.176563 277.999219) scale(0.1 -0.1)">
       <defs>
        <path id="DejaVuSans-49" d="M 628 4666 
L 1259 4666 
L 1259 0 
L 628 0 
L 628 4666 
z
" transform="scale(0.015625)"/>
        <path id="DejaVuSans-64" d="M 2906 2969 
L 2906 4863 
L 3481 4863 
L 3481 0 
L 2906 0 
L 2906 525 
Q 2725 213 2448 61 
Q 2172 -91 1784 -91 
Q 1150 -91 751 415 
Q 353 922 353 1747 
Q 353 2572 751 3078 
Q 1150 3584 1784 3584 
Q 2172 3584 2448 3432 
Q 2725 3281 2906 2969 
z
M 947 1747 
Q 947 1113 1208 752 
Q 1469 391 1925 391 
Q 2381 391 2643 752 
Q 2906 1113 2906 1747 
Q 2906 2381 2643 2742 
Q 2381 3103 1925 3103 
Q 1469 3103 1208 2742 
Q 947 2381 947 1747 
z
" transform="scale(0.015625)"/>
        <path id="DejaVuSans-2f" d="M 1625 4666 
L 2156 4666 
L 531 -594 
L 0 -594 
L 1625 4666 
z
" transform="scale(0.015625)"/>
        <path id="DejaVuSans-4d" d="M 628 4666 
L 1569 4666 
L 2759 1491 
L 3956 4666 
L 4897 4666 
L 4897 0 
L 4281 0 
L 4281 4097 
L 3078 897 
L 2444 897 
L 1241 4097 
L 1241 0 
L 628 0 
L 628 4666 
z
" transform="scale(0.015625)"/>
        <path id="DejaVuSans-69" d="M 603 3500 
L 1178 3500 
L 1178 0 
L 603 0 
L 603 3500 
z
M 603 4863 
L 1178 4863 
L 1178 4134 
L 603 4134 
L 603 4863 
z
" transform="scale(0.015625)"/>
        <path id="DejaVuSans-73" d="M 2834 3397 
L 2834 2853 
Q 2591 2978 2328 3040 
Q 2066 3103 1784 3103 
Q 1356 3103 1142 2972 
Q 928 2841 928 2578 
Q 928 2378 1081 2264 
Q 1234 2150 1697 2047 
L 1894 2003 
Q 2506 1872 2764 1633 
Q 3022 1394 3022 966 
Q 3022 478 2636 193 
Q 2250 -91 1575 -91 
Q 1294 -91 989 -36 
Q 684 19 347 128 
L 347 722 
Q 666 556 975 473 
Q 1284 391 1588 391 
Q 1994 391 2212 530 
Q 2431 669 2431 922 
Q 2431 1156 2273 1281 
Q 2116 1406 1581 1522 
L 1381 1569 
Q 847 1681 609 1914 
Q 372 2147 372 2553 
Q 372 3047 722 3315 
Q 1072 3584 1716 3584 
Q 2034 3584 2315 3537 
Q 2597 3491 2834 3397 
z
" transform="scale(0.015625)"/>
        <path id="DejaVuSans-6d" d="M 3328 2828 
Q 3544 3216 3844 3400 
Q 4144 3584 4550 3584 
Q 5097 3584 5394 3201 
Q 5691 2819 5691 2113 
L 5691 0 
L 5113 0 
L 5113 2094 
Q 5113 2597 4934 2840 
Q 4756 3084 4391 3084 
Q 3944 3084 3684 2787 
Q 3425 2491 3425 1978 
L 3425 0 
L 2847 0 
L 2847 2094 
Q 2847 2600 2669 2842 
Q 2491 3084 2119 3084 
Q 1678 3084 1418 2786 
Q 1159 2488 1159 1978 
L 1159 0 
L 581 0 
L 581 3500 
L 1159 3500 
L 1159 2956 
Q 1356 3278 1631 3431 
Q 1906 3584 2284 3584 
Q 2666 3584 2933 3390 
Q 3200 3197 3328 2828 
z
" transform="scale(0.015625)"/>
        <path id="DejaVuSans-63" d="M 3122 3366 
L 3122 2828 
Q 2878 2963 2633 3030 
Q 2388 3097 2138 3097 
Q 1578 3097 1268 2742 
Q 959 2388 959 1747 
Q 959 1106 1268 751 
Q 1578 397 2138 397 
Q 2388 397 2633 464 
Q 2878 531 3122 666 
L 3122 134 
Q 2881 22 2623 -34 
Q 2366 -91 2075 -91 
Q 1284 -91 818 406 
Q 353 903 353 1747 
Q 353 2603 823 3093 
Q 1294 3584 2113 3584 
Q 2378 3584 2631 3529 
Q 2884 3475 3122 3366 
z
" transform="scale(0.015625)"/>
        <path id="DejaVuSans-68" d="M 3513 2113 
L 3513 0 
L 2938 0 
L 2938 2094 
Q 2938 2591 2744 2837 
Q 2550 3084 2163 3084 
Q 1697 3084 1428 2787 
Q 1159 2491 1159 1978 
L 1159 0 
L 581 0 
L 581 4863 
L 1159 4863 
L 1159 2956 
Q 1366 3272 1645 3428 
Q 1925 3584 2291 3584 
Q 2894 3584 3203 3211 
Q 3513 2838 3513 2113 
z
" transform="scale(0.015625)"/>
       </defs>
       <use xlink:href="#DejaVuSans-49"/>
       <use xlink:href="#DejaVuSans-6e" x="29.492188"/>
       <use xlink:href="#DejaVuSans-64" x="92.871094"/>
       <use xlink:href="#DejaVuSans-65" x="156.347656"/>
       <use xlink:href="#DejaVuSans-6c" x="217.871094"/>
       <use xlink:href="#DejaVuSans-2f" x="245.654297"/>
       <use xlink:href="#DejaVuSans-4d" x="279.345703"/>
       <use xlink:href="#DejaVuSans-69" x="365.625"/>
       <use xlink:href="#DejaVuSans-73" x="393.408203"/>
       <use xlink:href="#DejaVuSans-6d" x="445.507812"/>
       <use xlink:href="#DejaVuSans-61" x="542.919922"/>
       <use xlink:href="#DejaVuSans-74" x="604.199219"/>
       <use xlink:href="#DejaVuSans-63" x="643.408203"/>
       <use xlink:href="#DejaVuSans-68" x="698.388672"/>
      </g>
     </g>
    </g>
    <g id="text_9">
     <!-- Type -->
     <g transform="translate(-35.25625 193.282812) rotate(-90) scale(0.1 -0.1)">
      <defs>
       <path id="DejaVuSans-54" d="M -19 4666 
L 3928 4666 
L 3928 4134 
L 2272 4134 
L 2272 0 
L 1638 0 
L 1638 4134 
L -19 4134 
L -19 4666 
z
" transform="scale(0.015625)"/>
      </defs>
      <use xlink:href="#DejaVuSans-54"/>
      <use xlink:href="#DejaVuSans-79" x="45.458984"/>
      <use xlink:href="#DejaVuSans-70" x="104.638672"/>
      <use xlink:href="#DejaVuSans-65" x="168.115234"/>
     </g>
    </g>
   </g>
   <g id="line2d_39">
    <path d="M -1 89.4 
L 205.298904 89.4 
" clip-path="url(#p7da677f5fb)" style="fill: none; stroke: #616161; stroke-width: 1.875; stroke-linecap: square"/>
   </g>
   <g id="line2d_40">
    <path d="M 116.703602 89.4 
L 175.147449 89.4 
" clip-path="url(#p7da677f5fb)" style="fill: none; stroke: #616161; stroke-width: 5.625; stroke-linecap: square"/>
   </g>
   <g id="line2d_41">
    <path d="M 150.436035 89.4 
" clip-path="url(#p7da677f5fb)" style="fill: none; stroke: #616161; stroke-width: 1.5; stroke-linecap: square"/>
    <defs>
     <path id="m6a383d1bb1" d="M 0 2.34375 
L 0 -2.34375 
" style="stroke: #ffffff; stroke-width: 1.125"/>
    </defs>
    <g clip-path="url(#p7da677f5fb)">
     <use xlink:href="#m6a383d1bb1" x="150.436035" y="89.4" style="fill: #ffffff; stroke: #ffffff; stroke-width: 1.125"/>
    </g>
   </g>
   <g id="line2d_42">
    <path d="M -1 181.8 
L 323.504425 181.8 
" clip-path="url(#p7da677f5fb)" style="fill: none; stroke: #616161; stroke-width: 1.875; stroke-linecap: square"/>
   </g>
   <g id="line2d_43">
    <path d="M 194.949825 181.8 
L 289.836609 181.8 
" clip-path="url(#p7da677f5fb)" style="fill: none; stroke: #616161; stroke-width: 5.625; stroke-linecap: square"/>
   </g>
   <g id="line2d_44">
    <path d="M 241.821026 181.8 
" clip-path="url(#p7da677f5fb)" style="fill: none; stroke: #616161; stroke-width: 1.5; stroke-linecap: square"/>
    <g clip-path="url(#p7da677f5fb)">
     <use xlink:href="#m6a383d1bb1" x="241.821026" y="181.8" style="fill: #ffffff; stroke: #ffffff; stroke-width: 1.125"/>
    </g>
   </g>
   <g id="line2d_45">
    <path d="M 69.218182 274.2 
L 285.390289 274.2 
" clip-path="url(#p7da677f5fb)" style="fill: none; stroke: #616161; stroke-width: 1.875; stroke-linecap: square"/>
   </g>
   <g id="line2d_46">
    <path d="M 223.05153 274.2 
L 259.971135 274.2 
" clip-path="url(#p7da677f5fb)" style="fill: none; stroke: #616161; stroke-width: 5.625; stroke-linecap: square"/>
   </g>
   <g id="line2d_47">
    <path d="M 241.388369 274.2 
" clip-path="url(#p7da677f5fb)" style="fill: none; stroke: #616161; stroke-width: 1.5; stroke-linecap: square"/>
    <g clip-path="url(#p7da677f5fb)">
     <use xlink:href="#m6a383d1bb1" x="241.388369" y="274.2" style="fill: #ffffff; stroke: #ffffff; stroke-width: 1.125"/>
    </g>
   </g>
   <g id="patch_3">
    <path d="M 54 320.4 
L 54 43.2 
" style="fill: none; stroke: #000000; stroke-width: 0.8; stroke-linejoin: miter; stroke-linecap: square"/>
   </g>
   <g id="patch_4">
    <path d="M 388.8 320.4 
L 388.8 43.2 
" style="fill: none; stroke: #000000; stroke-width: 0.8; stroke-linejoin: miter; stroke-linecap: square"/>
   </g>
   <g id="patch_5">
    <path d="M 54 320.4 
L 388.8 320.4 
" style="fill: none; stroke: #000000; stroke-width: 0.8; stroke-linejoin: miter; stroke-linecap: square"/>
   </g>
   <g id="patch_6">
    <path d="M 54 43.2 
L 388.8 43.2 
" style="fill: none; stroke: #000000; stroke-width: 0.8; stroke-linejoin: miter; stroke-linecap: square"/>
   </g>
   <g id="text_10">
    <!-- Distribution of normalized penalties (violin plot) -->
    <g transform="translate(78.04875 37.2) scale(0.12 -0.12)">
     <defs>
      <path id="DejaVuSans-44" d="M 1259 4147 
L 1259 519 
L 2022 519 
Q 2988 519 3436 956 
Q 3884 1394 3884 2338 
Q 3884 3275 3436 3711 
Q 2988 4147 2022 4147 
L 1259 4147 
z
M 628 4666 
L 1925 4666 
Q 3281 4666 3915 4102 
Q 4550 3538 4550 2338 
Q 4550 1131 3912 565 
Q 3275 0 1925 0 
L 628 0 
L 628 4666 
z
" transform="scale(0.015625)"/>
      <path id="DejaVuSans-62" d="M 3116 1747 
Q 3116 2381 2855 2742 
Q 2594 3103 2138 3103 
Q 1681 3103 1420 2742 
Q 1159 2381 1159 1747 
Q 1159 1113 1420 752 
Q 1681 391 2138 391 
Q 2594 391 2855 752 
Q 3116 1113 3116 1747 
z
M 1159 2969 
Q 1341 3281 1617 3432 
Q 1894 3584 2278 3584 
Q 2916 3584 3314 3078 
Q 3713 2572 3713 1747 
Q 3713 922 3314 415 
Q 2916 -91 2278 -91 
Q 1894 -91 1617 61 
Q 1341 213 1159 525 
L 1159 0 
L 581 0 
L 581 4863 
L 1159 4863 
L 1159 2969 
z
" transform="scale(0.015625)"/>
      <path id="DejaVuSans-75" d="M 544 1381 
L 544 3500 
L 1119 3500 
L 1119 1403 
Q 1119 906 1312 657 
Q 1506 409 1894 409 
Q 2359 409 2629 706 
Q 2900 1003 2900 1516 
L 2900 3500 
L 3475 3500 
L 3475 0 
L 2900 0 
L 2900 538 
Q 2691 219 2414 64 
Q 2138 -91 1772 -91 
Q 1169 -91 856 284 
Q 544 659 544 1381 
z
M 1991 3584 
L 1991 3584 
z
" transform="scale(0.015625)"/>
      <path id="DejaVuSans-6f" d="M 1959 3097 
Q 1497 3097 1228 2736 
Q 959 2375 959 1747 
Q 959 1119 1226 758 
Q 1494 397 1959 397 
Q 2419 397 2687 759 
Q 2956 1122 2956 1747 
Q 2956 2369 2687 2733 
Q 2419 3097 1959 3097 
z
M 1959 3584 
Q 2709 3584 3137 3096 
Q 3566 2609 3566 1747 
Q 3566 888 3137 398 
Q 2709 -91 1959 -91 
Q 1206 -91 779 398 
Q 353 888 353 1747 
Q 353 2609 779 3096 
Q 1206 3584 1959 3584 
z
" transform="scale(0.015625)"/>
      <path id="DejaVuSans-20" transform="scale(0.015625)"/>
      <path id="DejaVuSans-66" d="M 2375 4863 
L 2375 4384 
L 1825 4384 
Q 1516 4384 1395 4259 
Q 1275 4134 1275 3809 
L 1275 3500 
L 2222 3500 
L 2222 3053 
L 1275 3053 
L 1275 0 
L 697 0 
L 697 3053 
L 147 3053 
L 147 3500 
L 697 3500 
L 697 3744 
Q 697 4328 969 4595 
Q 1241 4863 1831 4863 
L 2375 4863 
z
" transform="scale(0.015625)"/>
      <path id="DejaVuSans-7a" d="M 353 3500 
L 3084 3500 
L 3084 2975 
L 922 459 
L 3084 459 
L 3084 0 
L 275 0 
L 275 525 
L 2438 3041 
L 353 3041 
L 353 3500 
z
" transform="scale(0.015625)"/>
      <path id="DejaVuSans-28" d="M 1984 4856 
Q 1566 4138 1362 3434 
Q 1159 2731 1159 2009 
Q 1159 1288 1364 580 
Q 1569 -128 1984 -844 
L 1484 -844 
Q 1016 -109 783 600 
Q 550 1309 550 2009 
Q 550 2706 781 3412 
Q 1013 4119 1484 4856 
L 1984 4856 
z
" transform="scale(0.015625)"/>
      <path id="DejaVuSans-29" d="M 513 4856 
L 1013 4856 
Q 1481 4119 1714 3412 
Q 1947 2706 1947 2009 
Q 1947 1309 1714 600 
Q 1481 -109 1013 -844 
L 513 -844 
Q 928 -128 1133 580 
Q 1338 1288 1338 2009 
Q 1338 2731 1133 3434 
Q 928 4138 513 4856 
z
" transform="scale(0.015625)"/>
     </defs>
     <use xlink:href="#DejaVuSans-44"/>
     <use xlink:href="#DejaVuSans-69" x="77.001953"/>
     <use xlink:href="#DejaVuSans-73" x="104.785156"/>
     <use xlink:href="#DejaVuSans-74" x="156.884766"/>
     <use xlink:href="#DejaVuSans-72" x="196.09375"/>
     <use xlink:href="#DejaVuSans-69" x="237.207031"/>
     <use xlink:href="#DejaVuSans-62" x="264.990234"/>
     <use xlink:href="#DejaVuSans-75" x="328.466797"/>
     <use xlink:href="#DejaVuSans-74" x="391.845703"/>
     <use xlink:href="#DejaVuSans-69" x="431.054688"/>
     <use xlink:href="#DejaVuSans-6f" x="458.837891"/>
     <use xlink:href="#DejaVuSans-6e" x="520.019531"/>
     <use xlink:href="#DejaVuSans-20" x="583.398438"/>
     <use xlink:href="#DejaVuSans-6f" x="615.185547"/>
     <use xlink:href="#DejaVuSans-66" x="676.367188"/>
     <use xlink:href="#DejaVuSans-20" x="711.572266"/>
     <use xlink:href="#DejaVuSans-6e" x="743.359375"/>
     <use xlink:href="#DejaVuSans-6f" x="806.738281"/>
     <use xlink:href="#DejaVuSans-72" x="867.919922"/>
     <use xlink:href="#DejaVuSans-6d" x="907.283203"/>
     <use xlink:href="#DejaVuSans-61" x="1004.695312"/>
     <use xlink:href="#DejaVuSans-6c" x="1065.974609"/>
     <use xlink:href="#DejaVuSans-69" x="1093.757812"/>
     <use xlink:href="#DejaVuSans-7a" x="1121.541016"/>
     <use xlink:href="#DejaVuSans-65" x="1174.03125"/>
     <use xlink:href="#DejaVuSans-64" x="1235.554688"/>
     <use xlink:href="#DejaVuSans-20" x="1299.03125"/>
     <use xlink:href="#DejaVuSans-70" x="1330.818359"/>
     <use xlink:href="#DejaVuSans-65" x="1394.294922"/>
     <use xlink:href="#DejaVuSans-6e" x="1455.818359"/>
     <use xlink:href="#DejaVuSans-61" x="1519.197266"/>
     <use xlink:href="#DejaVuSans-6c" x="1580.476562"/>
     <use xlink:href="#DejaVuSans-74" x="1608.259766"/>
     <use xlink:href="#DejaVuSans-69" x="1647.46875"/>
     <use xlink:href="#DejaVuSans-65" x="1675.251953"/>
     <use xlink:href="#DejaVuSans-73" x="1736.775391"/>
     <use xlink:href="#DejaVuSans-20" x="1788.875"/>
     <use xlink:href="#DejaVuSans-28" x="1820.662109"/>
     <use xlink:href="#DejaVuSans-76" x="1859.675781"/>
     <use xlink:href="#DejaVuSans-69" x="1918.855469"/>
     <use xlink:href="#DejaVuSans-6f" x="1946.638672"/>
     <use xlink:href="#DejaVuSans-6c" x="2007.820312"/>
     <use xlink:href="#DejaVuSans-69" x="2035.603516"/>
     <use xlink:href="#DejaVuSans-6e" x="2063.386719"/>
     <use xlink:href="#DejaVuSans-20" x="2126.765625"/>
     <use xlink:href="#DejaVuSans-70" x="2158.552734"/>
     <use xlink:href="#DejaVuSans-6c" x="2222.029297"/>
     <use xlink:href="#DejaVuSans-6f" x="2249.8125"/>
     <use xlink:href="#DejaVuSans-74" x="2310.994141"/>
     <use xlink:href="#DejaVuSans-29" x="2350.203125"/>
    </g>
   </g>
  </g>
 </g>
 <defs>
  <clipPath id="p7da677f5fb">
   <rect x="54" y="43.2" width="334.8" height="277.2"/>
  </clipPath>
 </defs>
</svg>
