<svg class="main-svg" xmlns="http://www.w3.org/2000/svg" xmlns:xlink="http://www.w3.org/1999/xlink" width="700" height="500" style="" viewBox="0 0 700 500"><rect x="0" y="0" width="700" height="500" style="fill: rgb(255, 255, 255); fill-opacity: 1;"/><defs id="defs-56ffde"><g class="clips"><clipPath id="clip56ffdepolar-for-traces"><path d="M160,0A160,160 0,1,0 -160,-1.9594348786357652e-14A160,160 0,1,0 160,3.9188697572715304e-14Z" transform="translate(160,160)"/></clipPath></g><g class="gradients"/><g class="patterns"/></defs><g class="bglayer"/><g class="layer-below"><g class="imagelayer"/><g class="shapelayer"/></g><g class="cartesianlayer"/><g class="polarlayer"><g class="polar"><g class="polarsublayer draglayer"/><g class="polarsublayer plotbg"><path d="M160,0A160,160 0,1,0 -160,-1.9594348786357652e-14A160,160 0,1,0 160,3.9188697572715304e-14Z" transform="translate(337.5,260)" style="fill: rgb(229, 236, 246); fill-opacity: 1;"/></g><g class="polarsublayer backplot"><g class="maplayer"/></g><g class="polarsublayer angular-grid" style="fill: none;"><path class="angularaxisgrid" d="M337.5,260L497.5,260" style="stroke: rgb(255, 255, 255); stroke-opacity: 1; stroke-width: 1px;"/><path class="angularaxisgrid" d="M337.5,260L492.473305780581,220.20961805362322" style="stroke: rgb(255, 255, 255); stroke-opacity: 1; stroke-width: 1px;"/><path class="angularaxisgrid" d="M337.5,260L477.7090688070182,182.91941214372554" style="stroke: rgb(255, 255, 255); stroke-opacity: 1; stroke-width: 1px;"/><path class="angularaxisgrid" d="M337.5,260L454.13498038742586,150.47246305140982" style="stroke: rgb(255, 255, 255); stroke-opacity: 1; stroke-width: 1px;"/><path class="angularaxisgrid" d="M337.5,260L423.23228719663945,124.90753191967758" style="stroke: rgb(255, 255, 255); stroke-opacity: 1; stroke-width: 1px;"/><path class="angularaxisgrid" d="M337.5,260L386.94271909999156,107.83095739277545" style="stroke: rgb(255, 255, 255); stroke-opacity: 1; stroke-width: 1px;"/><path class="angularaxisgrid" d="M337.5,260L347.54648312469016,100.31572345147654" style="stroke: rgb(255, 255, 255); stroke-opacity: 1; stroke-width: 1px;"/><path class="angularaxisgrid" d="M337.5,260L307.5189896662841,102.83403988340982" style="stroke: rgb(255, 255, 255); stroke-opacity: 1; stroke-width: 1px;"/><path class="angularaxisgrid" d="M337.5,260L269.3753133495884,115.22767160543688" style="stroke: rgb(255, 255, 255); stroke-opacity: 1; stroke-width: 1px;"/><path class="angularaxisgrid" d="M337.5,260L235.51216164020963,136.71788115587373" style="stroke: rgb(255, 255, 255); stroke-opacity: 1; stroke-width: 1px;"/><path class="angularaxisgrid" d="M337.5,260L208.05728090000844,165.95435963320426" style="stroke: rgb(255, 255, 255); stroke-opacity: 1; stroke-width: 1px;"/><path class="angularaxisgrid" d="M337.5,260L188.7357622578798,201.1000715704515" style="stroke: rgb(255, 255, 255); stroke-opacity: 1; stroke-width: 1px;"/><path class="angularaxisgrid" d="M337.5,260L178.76164778968356,239.9466826297113" style="stroke: rgb(255, 255, 255); stroke-opacity: 1; stroke-width: 1px;"/><path class="angularaxisgrid" d="M337.5,260L178.76164778968354,280.0533173702887" style="stroke: rgb(255, 255, 255); stroke-opacity: 1; stroke-width: 1px;"/><path class="angularaxisgrid" d="M337.5,260L188.73576225787977,318.8999284295485" style="stroke: rgb(255, 255, 255); stroke-opacity: 1; stroke-width: 1px;"/><path class="angularaxisgrid" d="M337.5,260L208.05728090000835,354.0456403667956" style="stroke: rgb(255, 255, 255); stroke-opacity: 1; stroke-width: 1px;"/><path class="angularaxisgrid" d="M337.5,260L235.51216164020968,383.28211884412633" style="stroke: rgb(255, 255, 255); stroke-opacity: 1; stroke-width: 1px;"/><path class="angularaxisgrid" d="M337.5,260L269.37531334958845,404.77232839456315" style="stroke: rgb(255, 255, 255); stroke-opacity: 1; stroke-width: 1px;"/><path class="angularaxisgrid" d="M337.5,260L307.5189896662841,417.1659601165902" style="stroke: rgb(255, 255, 255); stroke-opacity: 1; stroke-width: 1px;"/><path class="angularaxisgrid" d="M337.5,260L347.54648312469004,419.6842765485235" style="stroke: rgb(255, 255, 255); stroke-opacity: 1; stroke-width: 1px;"/><path class="angularaxisgrid" d="M337.5,260L386.94271909999156,412.1690426072246" style="stroke: rgb(255, 255, 255); stroke-opacity: 1; stroke-width: 1px;"/><path class="angularaxisgrid" d="M337.5,260L423.2322871966395,395.0924680803224" style="stroke: rgb(255, 255, 255); stroke-opacity: 1; stroke-width: 1px;"/><path class="angularaxisgrid" d="M337.5,260L454.1349803874258,369.52753694859024" style="stroke: rgb(255, 255, 255); stroke-opacity: 1; stroke-width: 1px;"/><path class="angularaxisgrid" d="M337.5,260L477.70906880701807,337.0805878562746" style="stroke: rgb(255, 255, 255); stroke-opacity: 1; stroke-width: 1px;"/><path class="angularaxisgrid" d="M337.5,260L492.473305780581,299.79038194637684" style="stroke: rgb(255, 255, 255); stroke-opacity: 1; stroke-width: 1px;"/></g><g class="polarsublayer radial-grid" transform="translate(337.5,260)" style="fill: none;"><path class="xgrid" d="M24.13,0A24.13,24.13 0,1,0 -24.13,-2.955072726342563e-15A24.13,24.13 0,1,0 24.13,5.910145452685126e-15Z" style="stroke: rgb(255, 255, 255); stroke-opacity: 1; stroke-width: 1px;"/><path class="xgrid" d="M48.25,0A48.25,48.25 0,1,0 -48.25,-5.9089208058859796e-15A48.25,48.25 0,1,0 48.25,1.1817841611771959e-14Z" style="stroke: rgb(255, 255, 255); stroke-opacity: 1; stroke-width: 1px;"/><path class="xgrid" d="M72.38,0A72.38,72.38 0,1,0 -72.38,-8.863993532228542e-15A72.38,72.38 0,1,0 72.38,1.7727987064457083e-14Z" style="stroke: rgb(255, 255, 255); stroke-opacity: 1; stroke-width: 1px;"/><path class="xgrid" d="M96.51,0A96.51,96.51 0,1,0 -96.51,-1.1819066258571106e-14A96.51,96.51 0,1,0 96.51,2.3638132517142212e-14Z" style="stroke: rgb(255, 255, 255); stroke-opacity: 1; stroke-width: 1px;"/><path class="xgrid" d="M120.63,0A120.63,120.63 0,1,0 -120.63,-1.477291433811452e-14A120.63,120.63 0,1,0 120.63,2.954582867622904e-14Z" style="stroke: rgb(255, 255, 255); stroke-opacity: 1; stroke-width: 1px;"/><path class="xgrid" d="M144.76,0A144.76,144.76 0,1,0 -144.76,-1.7727987064457083e-14A144.76,144.76 0,1,0 144.76,3.5455974128914166e-14Z" style="stroke: rgb(255, 255, 255); stroke-opacity: 1; stroke-width: 1px;"/></g><g class="polarsublayer frontplot" transform="translate(177.5,100)" clip-path="url(#clip56ffdepolar-for-traces)"><g class="barlayer"><g class="trace bars" style="opacity: 0.8;"><g class="points"><g class="point" style="vector-effect: none; stroke-miterlimit: 2;"><path d="M160,160L163.59592664759623,160.4084326309707A3.6190476190476195,3.6190476190476195 0,0,0 163.59592664759623,159.5915673690293L160,160A0,0 0,0,1 160,160Z" style="opacity: 1; stroke-width: 0.5px; fill: rgb(255, 147, 64); fill-opacity: 1; stroke: rgb(0, 0, 0); stroke-opacity: 1;"/></g><g class="point" style="vector-effect: none; stroke-miterlimit: 2;"><path d="M160,160L176.72779296732122,157.67287509065943A16.888888888888893,16.888888888888893 0,0,0 175.7797776948228,153.98059938173176L160,160A0,0 0,0,1 160,160Z" style="opacity: 1; stroke-width: 0.5px; fill: rgb(255, 147, 64); fill-opacity: 1; stroke: rgb(0, 0, 0); stroke-opacity: 1;"/></g><g class="point" style="vector-effect: none; stroke-miterlimit: 2;"><path d="M160,160L162.23193230855298,159.0837075790585A2.412698412698413,2.412698412698413 0,0,0 161.96958041442875,158.60649125523517L160,160A0,0 0,0,1 160,160Z" style="opacity: 1; stroke-width: 0.5px; fill: rgb(255, 147, 64); fill-opacity: 1; stroke: rgb(0, 0, 0); stroke-opacity: 1;"/></g><g class="point" style="vector-effect: none; stroke-miterlimit: 2;"><path d="M160,160L163.86787878413884,157.1148711928653A4.825396825396826,4.825396825396826 0,0,0 163.1223017828113,156.32091232781778L160,160A0,0 0,0,1 160,160Z" style="opacity: 1; stroke-width: 0.5px; fill: rgb(255, 147, 64); fill-opacity: 1; stroke: rgb(0, 0, 0); stroke-opacity: 1;"/></g><g class="point" style="vector-effect: none; stroke-miterlimit: 2;"><path d="M160,160L161.51442995105057,158.1218052406637A2.412698412698413,2.412698412698413 0,0,0 161.05462851636415,157.8300063771732L160,160A0,0 0,0,1 160,160Z" style="opacity: 1; stroke-width: 0.5px; fill: rgb(255, 147, 64); fill-opacity: 1; stroke: rgb(0, 0, 0); stroke-opacity: 1;"/></g><g class="point" style="vector-effect: none; stroke-miterlimit: 2;"><path d="M160,160L161.49964495978523,156.70628315371144A3.6190476190476195,3.6190476190476195 0,0,0 160.7227599294807,156.453857905657L160,160A0,0 0,0,1 160,160Z" style="opacity: 1; stroke-width: 0.5px; fill: rgb(255, 147, 64); fill-opacity: 1; stroke: rgb(0, 0, 0); stroke-opacity: 1;"/></g><g class="point" style="vector-effect: none; stroke-miterlimit: 2;"><path d="M160,160L160.6334167848629,156.43681478932288A3.6190476190476195,3.6190476190476195 0,0,0 159.81816341992084,156.38552339514013L160,160A0,0 0,0,1 160,160Z" style="opacity: 1; stroke-width: 0.5px; fill: rgb(255, 147, 64); fill-opacity: 1; stroke: rgb(0, 0, 0); stroke-opacity: 1;"/></g><g class="point" style="vector-effect: none; stroke-miterlimit: 2;"><path d="M160,160L159.5456478396728,153.9853907603328A6.0317460317460325,6.0317460317460325 0,0,0 158.20832061905915,154.24049957136947L160,160A0,0 0,0,1 160,160Z" style="opacity: 1; stroke-width: 0.5px; fill: rgb(255, 147, 64); fill-opacity: 1; stroke: rgb(0, 0, 0); stroke-opacity: 1;"/></g><g class="point" style="vector-effect: none; stroke-miterlimit: 2;"><path d="M160,160L155.74112924128846,147.43215582578404A13.269841269841272,13.269841269841272 0,0,0 153.03101602146597,148.7074383050736L160,160A0,0 0,0,1 160,160Z" style="opacity: 1; stroke-width: 0.5px; fill: rgb(255, 147, 64); fill-opacity: 1; stroke: rgb(0, 0, 0); stroke-opacity: 1;"/></g><g class="point" style="vector-effect: none; stroke-miterlimit: 2;"><path d="M160,160L158.02257284039027,156.96894614079986A3.6190476190476195,3.6190476190476195 0,0,0 157.39316733850092,157.48963565515365L160,160A0,0 0,0,1 160,160Z" style="opacity: 1; stroke-width: 0.5px; fill: rgb(255, 147, 64); fill-opacity: 1; stroke: rgb(0, 0, 0); stroke-opacity: 1;"/></g><g class="point" style="vector-effect: none; stroke-miterlimit: 2;"><path d="M160,160L157.33090490860852,157.55593840870486A3.6190476190476195,3.6190476190476195 0,0,0 156.85076355452932,158.21679628773L160,160A0,0 0,0,1 160,160Z" style="opacity: 1; stroke-width: 0.5px; fill: rgb(255, 147, 64); fill-opacity: 1; stroke: rgb(0, 0, 0); stroke-opacity: 1;"/></g><g class="point" style="vector-effect: none; stroke-miterlimit: 2;"><path d="M160,160L153.61389207532795,156.5930001100414A7.238095238095239,7.238095238095239 0,0,0 153.0124757570163,158.1120043354255L160,160A0,0 0,0,1 160,160Z" style="opacity: 1; stroke-width: 0.5px; fill: rgb(255, 147, 64); fill-opacity: 1; stroke: rgb(0, 0, 0); stroke-opacity: 1;"/></g><g class="point" style="vector-effect: none; stroke-miterlimit: 2;"><path d="M160,160L150.62298264107744,157.71759698110438A9.650793650793652,9.650793650793652 0,0,0 150.34996833530286,159.87872774207813L160,160A0,0 0,0,1 160,160Z" style="opacity: 1; stroke-width: 0.5px; fill: rgb(255, 147, 64); fill-opacity: 1; stroke: rgb(0, 0, 0); stroke-opacity: 1;"/></g><g class="point" style="vector-effect: none; stroke-miterlimit: 2;"><path d="M160,160L137.08117479634427,160.28802161256445A22.920634920634924,22.920634920634924 0,0,0 137.7295837725589,165.42070716987712L160,160A0,0 0,0,1 160,160Z" style="opacity: 1; stroke-width: 0.5px; fill: rgb(255, 147, 64); fill-opacity: 1; stroke: rgb(0, 0, 0); stroke-opacity: 1;"/></g><g class="point" style="vector-effect: none; stroke-miterlimit: 2;"><path d="M160,160L151.84788838318568,162.20266160867024A8.444444444444446,8.444444444444446 0,0,0 152.54954075454927,163.9748332049517L160,160A0,0 0,0,1 160,160Z" style="opacity: 1; stroke-width: 0.5px; fill: rgb(255, 147, 64); fill-opacity: 1; stroke: rgb(0, 0, 0); stroke-opacity: 1;"/></g><g class="point" style="vector-effect: none; stroke-miterlimit: 2;"><path d="M160,160L157.9005090363529,161.18880247484668A2.412698412698413,2.412698412698413 0,0,0 158.22060327240567,161.62937439419676L160,160A0,0 0,0,1 160,160Z" style="opacity: 1; stroke-width: 0.5px; fill: rgb(255, 147, 64); fill-opacity: 1; stroke: rgb(0, 0, 0); stroke-opacity: 1;"/></g><g class="point" style="vector-effect: none; stroke-miterlimit: 2;"><path d="M160,160L143.49005981050576,175.89897418402683A22.920634920634924,22.920634920634924 0,0,0 147.47629465580502,179.19667444160083L160,160A0,0 0,0,1 160,160Z" style="opacity: 1; stroke-width: 0.5px; fill: rgb(255, 147, 64); fill-opacity: 1; stroke: rgb(0, 0, 0); stroke-opacity: 1;"/></g><g class="point" style="vector-effect: none; stroke-miterlimit: 2;"><path d="M160,160L157.46582400780582,164.10638607088234A4.825396825396826,4.825396825396826 0,0,0 158.4513197241049,164.57012515426035L160,160A0,0 0,0,1 160,160Z" style="opacity: 1; stroke-width: 0.5px; fill: rgb(255, 147, 64); fill-opacity: 1; stroke: rgb(0, 0, 0); stroke-opacity: 1;"/></g><g class="point" style="vector-effect: none; stroke-miterlimit: 2;"><path d="M160,160L159.28332824762367,162.30380017145222A2.412698412698413,2.412698412698413 0,0,0 159.8182591358691,162.40584369586688L160,160A0,0 0,0,1 160,160Z" style="opacity: 1; stroke-width: 0.5px; fill: rgb(255, 147, 64); fill-opacity: 1; stroke: rgb(0, 0, 0); stroke-opacity: 1;"/></g><g class="point" style="vector-effect: none; stroke-miterlimit: 2;"><path d="M160,160L159.81816341992084,163.61447660485987A3.6190476190476195,3.6190476190476195 0,0,0 160.6334167848629,163.56318521067712L160,160A0,0 0,0,1 160,160Z" style="opacity: 1; stroke-width: 0.5px; fill: rgb(255, 147, 64); fill-opacity: 1; stroke: rgb(0, 0, 0); stroke-opacity: 1;"/></g><g class="point" style="vector-effect: none; stroke-miterlimit: 2;"><path d="M160,160L160.48183995298714,162.364094729562A2.412698412698413,2.412698412698413 0,0,0 160.99976330652348,162.19581123085905L160,160A0,0 0,0,1 160,160Z" style="opacity: 1; stroke-width: 0.5px; fill: rgb(255, 147, 64); fill-opacity: 1; stroke: rgb(0, 0, 0); stroke-opacity: 1;"/></g><g class="point" style="vector-effect: none; stroke-miterlimit: 2;"><path d="M160,160L161.58194277454623,163.2549904342402A3.6190476190476195,3.6190476190476195 0,0,0 162.27164492657587,162.81729213900448L160,160A0,0 0,0,1 160,160Z" style="opacity: 1; stroke-width: 0.5px; fill: rgb(255, 147, 64); fill-opacity: 1; stroke: rgb(0, 0, 0); stroke-opacity: 1;"/></g><g class="point" style="vector-effect: none; stroke-miterlimit: 2;"><path d="M160,160L164.68345267421694,165.51863150827333A7.238095238095239,7.238095238095239 0,0,0 165.80181817620826,164.32769321070205L160,160A0,0 0,0,1 160,160Z" style="opacity: 1; stroke-width: 0.5px; fill: rgb(255, 147, 64); fill-opacity: 1; stroke: rgb(0, 0, 0); stroke-opacity: 1;"/></g><g class="point" style="vector-effect: none; stroke-miterlimit: 2;"><path d="M160,160L161.96958041442875,161.39350874476483A2.412698412698413,2.412698412698413 0,0,0 162.23193230855298,160.9162924209415L160,160A0,0 0,0,1 160,160Z" style="opacity: 1; stroke-width: 0.5px; fill: rgb(255, 147, 64); fill-opacity: 1; stroke: rgb(0, 0, 0); stroke-opacity: 1;"/></g><g class="point" style="vector-effect: none; stroke-miterlimit: 2;"><path d="M160,160L205.08507912806508,177.19828748076642A48.25396825396826,48.25396825396826 0,0,0 207.79369419234635,166.6489283124016L160,160A0,0 0,0,1 160,160Z" style="opacity: 1; stroke-width: 0.5px; fill: rgb(255, 147, 64); fill-opacity: 1; stroke: rgb(0, 0, 0); stroke-opacity: 1;"/></g></g></g><g class="trace bars" style="opacity: 0.8;"><g class="points"><g class="point" style="vector-effect: none; stroke-miterlimit: 2;"><path d="M163.59592664759623,160.4084326309707L183.97284431730813,162.7228842064713A24.12698412698413,24.12698412698413 0,0,0 183.97284431730813,157.2771157935287L163.59592664759623,159.5915673690293A3.6190476190476195,3.6190476190476195 0,0,1 163.59592664759623,160.4084326309707Z" style="opacity: 1; stroke-width: 0.5px; fill: rgb(51, 206, 195); fill-opacity: 1; stroke: rgb(0, 0, 0); stroke-opacity: 1;"/></g><g class="point" style="vector-effect: none; stroke-miterlimit: 2;"><path d="M176.72779296732122,157.67287509065943L213.76790596638963,152.5199556485482A54.28571428571429,54.28571428571429 0,0,0 210.72071401907323,140.6519265841378L175.7797776948228,153.98059938173176A16.888888888888893,16.888888888888893 0,0,1 176.72779296732122,157.67287509065943Z" style="opacity: 1; stroke-width: 0.5px; fill: rgb(51, 206, 195); fill-opacity: 1; stroke: rgb(0, 0, 0); stroke-opacity: 1;"/></g><g class="point" style="vector-effect: none; stroke-miterlimit: 2;"><path d="M162.23193230855298,159.0837075790585L180.0873907769768,151.7533682115266A21.714285714285715,21.714285714285715 0,0,0 177.72622372985884,147.45842129711647L161.96958041442875,158.60649125523517A2.412698412698413,2.412698412698413 0,0,1 162.23193230855298,159.0837075790585Z" style="opacity: 1; stroke-width: 0.5px; fill: rgb(51, 206, 195); fill-opacity: 1; stroke: rgb(0, 0, 0); stroke-opacity: 1;"/></g><g class="point" style="vector-effect: none; stroke-miterlimit: 2;"><path d="M163.86787878413884,157.1148711928653L180.30636361672887,144.85307376254286A25.333333333333336,25.333333333333336 0,0,0 176.39208435975925,140.68478972104333L163.1223017828113,156.32091232781778A4.825396825396826,4.825396825396826 0,0,1 163.86787878413884,157.1148711928653Z" style="opacity: 1; stroke-width: 0.5px; fill: rgb(51, 206, 195); fill-opacity: 1; stroke: rgb(0, 0, 0); stroke-opacity: 1;"/></g><g class="point" style="vector-effect: none; stroke-miterlimit: 2;"><path d="M161.51442995105057,158.1218052406637L173.62986955945522,143.0962471659732A21.714285714285715,21.714285714285715 0,0,0 169.4916566472774,140.4700573945588L161.05462851636415,157.8300063771732A2.412698412698413,2.412698412698413 0,0,1 161.51442995105057,158.1218052406637Z" style="opacity: 1; stroke-width: 0.5px; fill: rgb(51, 206, 195); fill-opacity: 1; stroke: rgb(0, 0, 0); stroke-opacity: 1;"/></g><g class="point" style="vector-effect: none; stroke-miterlimit: 2;"><path d="M161.49964495978523,156.70628315371144L169.49775141197307,139.13979330683915A22.920634920634924,22.920634920634924 0,0,0 164.57747955337783,137.54110006916108L160.7227599294807,156.453857905657A3.6190476190476195,3.6190476190476195 0,0,1 161.49964495978523,156.70628315371144Z" style="opacity: 1; stroke-width: 0.5px; fill: rgb(51, 206, 195); fill-opacity: 1; stroke: rgb(0, 0, 0); stroke-opacity: 1;"/></g><g class="point" style="vector-effect: none; stroke-miterlimit: 2;"><path d="M160.6334167848629,156.43681478932288L164.01163963746507,137.4331603323782A22.920634920634924,22.920634920634924 0,0,0 158.84836832616529,137.10831483588748L159.81816341992084,156.38552339514013A3.6190476190476195,3.6190476190476195 0,0,1 160.6334167848629,156.43681478932288Z" style="opacity: 1; stroke-width: 0.5px; fill: rgb(51, 206, 195); fill-opacity: 1; stroke: rgb(0, 0, 0); stroke-opacity: 1;"/></g><g class="point" style="vector-effect: none; stroke-miterlimit: 2;"><path d="M159.5456478396728,153.9853907603328L157.54649833423306,127.52111010579713A32.57142857142858,32.57142857142858 0,0,0 150.32493134291943,128.89869768539506L158.20832061905915,154.24049957136947A6.0317460317460325,6.0317460317460325 0,0,1 159.5456478396728,153.9853907603328Z" style="opacity: 1; stroke-width: 0.5px; fill: rgb(51, 206, 195); fill-opacity: 1; stroke: rgb(0, 0, 0); stroke-opacity: 1;"/></g><g class="point" style="vector-effect: none; stroke-miterlimit: 2;"><path d="M155.74112924128846,147.43215582578404L144.51319724104894,114.29874845739646A48.25396825396826,48.25396825396826 0,0,0 134.65824007805813,118.93613929117677L153.03101602146597,148.7074383050736A13.269841269841272,13.269841269841272 0,0,1 155.74112924128846,147.43215582578404Z" style="opacity: 1; stroke-width: 0.5px; fill: rgb(51, 206, 195); fill-opacity: 1; stroke: rgb(0, 0, 0); stroke-opacity: 1;"/></g><g class="point" style="vector-effect: none; stroke-miterlimit: 2;"><path d="M158.02257284039027,156.96894614079986L146.81715226926843,139.79297427199913A24.12698412698413,24.12698412698413 0,0,0 142.62111559000604,143.2642377010244L157.39316733850092,157.48963565515365A3.6190476190476195,3.6190476190476195 0,0,1 158.02257284039027,156.96894614079986Z" style="opacity: 1; stroke-width: 0.5px; fill: rgb(51, 206, 195); fill-opacity: 1; stroke: rgb(0, 0, 0); stroke-opacity: 1;"/></g><g class="point" style="vector-effect: none; stroke-miterlimit: 2;"><path d="M157.33090490860852,157.55593840870486L140.42663599646244,142.07688166383568A26.539682539682545,26.539682539682545 0,0,0 136.9055993998818,146.9231727766866L156.85076355452932,158.21679628773A3.6190476190476195,3.6190476190476195 0,0,1 157.33090490860852,157.55593840870486Z" style="opacity: 1; stroke-width: 0.5px; fill: rgb(51, 206, 195); fill-opacity: 1; stroke: rgb(0, 0, 0); stroke-opacity: 1;"/></g><g class="point" style="vector-effect: none; stroke-miterlimit: 2;"><path d="M153.61389207532795,156.5930001100414L132.32686565975447,145.23633381017942A31.365079365079367,31.365079365079367 0,0,0 129.720728280404,151.81868545351054L153.0124757570163,158.1120043354255A7.238095238095239,7.238095238095239 0,0,1 153.61389207532795,156.5930001100414Z" style="opacity: 1; stroke-width: 0.5px; fill: rgb(51, 206, 195); fill-opacity: 1; stroke: rgb(0, 0, 0); stroke-opacity: 1;"/></g><g class="point" style="vector-effect: none; stroke-miterlimit: 2;"><path d="M150.62298264107744,157.71759698110438L121.3198033944444,150.5850875470555A39.80952380952382,39.80952380952382 0,0,0 120.19361938312426,159.49975193607224L150.34996833530286,159.87872774207813A9.650793650793652,9.650793650793652 0,0,1 150.62298264107744,157.71759698110438Z" style="opacity: 1; stroke-width: 0.5px; fill: rgb(51, 206, 195); fill-opacity: 1; stroke: rgb(0, 0, 0); stroke-opacity: 1;"/></g><g class="point" style="vector-effect: none; stroke-miterlimit: 2;"><path d="M137.08117479634427,160.28802161256445L87.62476251477139,160.90954193441408A72.3809523809524,72.3809523809524 0,0,0 89.67236980808073,177.11802264171723L137.7295837725589,165.42070716987712A22.920634920634924,22.920634920634924 0,0,1 137.08117479634427,160.28802161256445Z" style="opacity: 1; stroke-width: 0.5px; fill: rgb(51, 206, 195); fill-opacity: 1; stroke: rgb(0, 0, 0); stroke-opacity: 1;"/></g><g class="point" style="vector-effect: none; stroke-miterlimit: 2;"><path d="M151.84788838318568,162.20266160867024L120.40402928975905,170.69864209925544A41.01587301587302,41.01587301587302 0,0,0 123.81205509352509,179.3063327097654L152.54954075454927,163.9748332049517A8.444444444444446,8.444444444444446 0,0,1 151.84788838318568,162.20266160867024Z" style="opacity: 1; stroke-width: 0.5px; fill: rgb(51, 206, 195); fill-opacity: 1; stroke: rgb(0, 0, 0); stroke-opacity: 1;"/></g><g class="point" style="vector-effect: none; stroke-miterlimit: 2;"><path d="M157.9005090363529,161.18880247484668L141.10458132717602,170.69922227362005A21.714285714285715,21.714285714285715 0,0,0 143.9854294516511,174.66436954777083L158.22060327240567,161.62937439419676A2.412698412698413,2.412698412698413 0,0,1 157.9005090363529,161.18880247484668Z" style="opacity: 1; stroke-width: 0.5px; fill: rgb(51, 206, 195); fill-opacity: 1; stroke: rgb(0, 0, 0); stroke-opacity: 1;"/></g><g class="point" style="vector-effect: none; stroke-miterlimit: 2;"><path d="M143.49005981050576,175.89897418402683L112.20806787251664,206.02334632218293A66.34920634920636,66.34920634920636 0,0,0 123.74716874048818,215.56932075200243L147.47629465580502,179.19667444160083A22.920634920634924,22.920634920634924 0,0,1 143.49005981050576,175.89897418402683Z" style="opacity: 1; stroke-width: 0.5px; fill: rgb(51, 206, 195); fill-opacity: 1; stroke: rgb(0, 0, 0); stroke-opacity: 1;"/></g><g class="point" style="vector-effect: none; stroke-miterlimit: 2;"><path d="M157.46582400780582,164.10638607088234L146.06203204293197,182.58512338985278A26.539682539682545,26.539682539682545 0,0,0 151.4822584825769,185.13568834843196L158.4513197241049,164.57012515426035A4.825396825396826,4.825396825396826 0,0,1 157.46582400780582,164.10638607088234Z" style="opacity: 1; stroke-width: 0.5px; fill: rgb(51, 206, 195); fill-opacity: 1; stroke: rgb(0, 0, 0); stroke-opacity: 1;"/></g><g class="point" style="vector-effect: none; stroke-miterlimit: 2;"><path d="M159.28332824762367,162.30380017145222L153.54995422861296,180.73420154306996A21.714285714285715,21.714285714285715 0,0,0 158.36433222282204,181.6525932628019L159.8182591358691,162.40584369586688A2.412698412698413,2.412698412698413 0,0,1 159.28332824762367,162.30380017145222Z" style="opacity: 1; stroke-width: 0.5px; fill: rgb(51, 206, 195); fill-opacity: 1; stroke: rgb(0, 0, 0); stroke-opacity: 1;"/></g><g class="point" style="vector-effect: none; stroke-miterlimit: 2;"><path d="M159.81816341992084,163.61447660485987L158.78775613280555,184.09651069906582A24.12698412698413,24.12698412698413 0,0,0 164.2227785657527,183.75456807118084L160.6334167848629,163.56318521067712A3.6190476190476195,3.6190476190476195 0,0,1 159.81816341992084,163.61447660485987Z" style="opacity: 1; stroke-width: 0.5px; fill: rgb(51, 206, 195); fill-opacity: 1; stroke: rgb(0, 0, 0); stroke-opacity: 1;"/></g><g class="point" style="vector-effect: none; stroke-miterlimit: 2;"><path d="M160.48183995298714,162.364094729562L164.09563960039068,180.09480520127693A20.50793650793651,20.50793650793651 0,0,0 168.49798810544956,178.66439546230183L160.99976330652348,162.19581123085905A2.412698412698413,2.412698412698413 0,0,1 160.48183995298714,162.364094729562Z" style="opacity: 1; stroke-width: 0.5px; fill: rgb(51, 206, 195); fill-opacity: 1; stroke: rgb(0, 0, 0); stroke-opacity: 1;"/></g><g class="point" style="vector-effect: none; stroke-miterlimit: 2;"><path d="M161.58194277454623,163.2549904342402L170.54628516364156,181.699936228268A24.12698412698413,24.12698412698413 0,0,0 175.1442995105058,178.7819475933631L162.27164492657587,162.81729213900448A3.6190476190476195,3.6190476190476195 0,0,1 161.58194277454623,163.2549904342402Z" style="opacity: 1; stroke-width: 0.5px; fill: rgb(51, 206, 195); fill-opacity: 1; stroke: rgb(0, 0, 0); stroke-opacity: 1;"/></g><g class="point" style="vector-effect: none; stroke-miterlimit: 2;"><path d="M164.68345267421694,165.51863150827333L194.34531961092418,200.46996439400448A53.07936507936509,53.07936507936509 0,0,0 202.54666662552717,191.73641687848166L165.80181817620826,164.32769321070205A7.238095238095239,7.238095238095239 0,0,1 164.68345267421694,165.51863150827333Z" style="opacity: 1; stroke-width: 0.5px; fill: rgb(51, 206, 195); fill-opacity: 1; stroke: rgb(0, 0, 0); stroke-opacity: 1;"/></g><g class="point" style="vector-effect: none; stroke-miterlimit: 2;"><path d="M161.96958041442875,161.39350874476483L176.74143352264446,171.84482433050113A20.50793650793651,20.50793650793651 0,0,0 178.9714246227003,167.78848557800268L162.23193230855298,160.9162924209415A2.412698412698413,2.412698412698413 0,0,1 161.96958041442875,161.39350874476483Z" style="opacity: 1; stroke-width: 0.5px; fill: rgb(51, 206, 195); fill-opacity: 1; stroke: rgb(0, 0, 0); stroke-opacity: 1;"/></g><g class="point" style="vector-effect: none; stroke-miterlimit: 2;"><path d="M205.08507912806508,177.19828748076642L302.01799925340504,214.1746055644142A152.00000000000003,152.00000000000003 0,0,0 310.550136705891,180.94412418406506L207.79369419234635,166.6489283124016A48.25396825396826,48.25396825396826 0,0,1 205.08507912806508,177.19828748076642Z" style="opacity: 1; stroke-width: 0.5px; fill: rgb(51, 206, 195); fill-opacity: 1; stroke: rgb(0, 0, 0); stroke-opacity: 1;"/></g></g></g></g><g class="scatterlayer"/></g><g class="polarsublayer angular-line"><path d="M160,0A160,160 0,1,0 -160,-1.9594348786357652e-14A160,160 0,1,0 160,3.9188697572715304e-14Z" transform="translate(337.5,260)" stroke-width="1" style="fill: none; stroke: rgb(255, 255, 255); stroke-opacity: 1;"/></g><g class="polarsublayer radial-line"><line x1="0" y1="0" x2="160" y2="0" transform="translate(337.5,260)" stroke-width="1" style="fill: none; stroke: rgb(255, 255, 255); stroke-opacity: 1;"/></g><g class="polarsublayer angular-axis"><g class="angularaxistick"><text text-anchor="start" x="2.9000000000000004" y="4.199999999999999" transform="translate(497.5,260)" style="font-family: 'Open Sans', verdana, arial, sans-serif; font-size: 12px; fill: rgb(42, 63, 95); fill-opacity: 1; white-space: pre; opacity: 1;">chr1</text></g><g class="angularaxistick"><text text-anchor="start" x="2.8088911672730306" y="2.749992874766519" transform="translate(492.473305780581,220.20961805362322)" style="font-family: 'Open Sans', verdana, arial, sans-serif; font-size: 12px; fill: rgb(42, 63, 95); fill-opacity: 1; white-space: pre; opacity: 1;">chr10</text></g><g class="angularaxistick"><text text-anchor="start" x="2.5412893721272045" y="1.127193583445135" transform="translate(477.7090688070182,182.91941214372554)" style="font-family: 'Open Sans', verdana, arial, sans-serif; font-size: 12px; fill: rgb(42, 63, 95); fill-opacity: 1; white-space: pre; opacity: 1;">chr11</text></g><g class="angularaxistick"><text text-anchor="start" x="2.114009019522094" y="-0.5664314262521222" transform="translate(454.13498038742586,150.47246305140982)" style="font-family: 'Open Sans', verdana, arial, sans-serif; font-size: 12px; fill: rgb(42, 63, 95); fill-opacity: 1; white-space: pre; opacity: 1;">chr12</text></g><g class="angularaxistick"><text text-anchor="start" x="1.5538977054390901" y="-2.2244654662488954" transform="translate(423.23228719663945,124.90753191967758)" style="font-family: 'Open Sans', verdana, arial, sans-serif; font-size: 12px; fill: rgb(42, 63, 95); fill-opacity: 1; white-space: pre; opacity: 1;">chr13</text></g><g class="angularaxistick"><text text-anchor="start" x="0.8961492836873477" y="-3.742728159989535" transform="translate(386.94271909999156,107.83095739277545)" style="font-family: 'Open Sans', verdana, arial, sans-serif; font-size: 12px; fill: rgb(42, 63, 95); fill-opacity: 1; white-space: pre; opacity: 1;">chr14</text></g><g class="angularaxistick"><text text-anchor="middle" x="0.18209250663500925" y="-5.025821478646723" transform="translate(347.54648312469016,100.31572345147654)" style="font-family: 'Open Sans', verdana, arial, sans-serif; font-size: 12px; fill: rgb(42, 63, 95); fill-opacity: 1; white-space: pre; opacity: 1;">chr15</text></g><g class="angularaxistick"><text text-anchor="end" x="-0.5434058122986014" y="-4.419120907602008" transform="translate(307.5189896662841,102.83403988340982)" style="font-family: 'Open Sans', verdana, arial, sans-serif; font-size: 12px; fill: rgb(42, 63, 95); fill-opacity: 1; white-space: pre; opacity: 1;">chr16</text></g><g class="angularaxistick"><text text-anchor="end" x="-1.234759945538711" y="-3.0073103534965986" transform="translate(269.3753133495884,115.22767160543688)" style="font-family: 'Open Sans', verdana, arial, sans-serif; font-size: 12px; fill: rgb(42, 63, 95); fill-opacity: 1; white-space: pre; opacity: 1;">chr17</text></g><g class="angularaxistick"><text text-anchor="end" x="-1.8485295702712006" y="-1.4065394297671876" transform="translate(235.51216164020963,136.71788115587373)" style="font-family: 'Open Sans', verdana, arial, sans-serif; font-size: 12px; fill: rgb(42, 63, 95); fill-opacity: 1; white-space: pre; opacity: 1;">chr18</text></g><g class="angularaxistick"><text text-anchor="end" x="-2.3461492836873474" y="0.2826095392246697" transform="translate(208.05728090000844,165.95435963320426)" style="font-family: 'Open Sans', verdana, arial, sans-serif; font-size: 12px; fill: rgb(42, 63, 95); fill-opacity: 1; white-space: pre; opacity: 1;">chr19</text></g><g class="angularaxistick"><text text-anchor="end" x="-2.6963518090759293" y="1.9540011115018605" transform="translate(188.7357622578798,201.1000715704515)" style="font-family: 'Open Sans', verdana, arial, sans-serif; font-size: 12px; fill: rgb(42, 63, 95); fill-opacity: 1; white-space: pre; opacity: 1;">chr2</text></g><g class="angularaxistick"><text text-anchor="end" x="-2.877132633811986" y="3.502615607629992" transform="translate(178.76164778968356,239.9466826297113)" style="font-family: 'Open Sans', verdana, arial, sans-serif; font-size: 12px; fill: rgb(42, 63, 95); fill-opacity: 1; white-space: pre; opacity: 1;">chr20</text></g><g class="angularaxistick"><text text-anchor="end" x="-2.877132633811986" y="6.03434692562894" transform="translate(178.76164778968354,280.0533173702887)" style="font-family: 'Open Sans', verdana, arial, sans-serif; font-size: 12px; fill: rgb(42, 63, 95); fill-opacity: 1; white-space: pre; opacity: 1;">chr21</text></g><g class="angularaxistick"><text text-anchor="end" x="-2.6963518090759298" y="9.390117075732356" transform="translate(188.73576225787977,318.8999284295485)" style="font-family: 'Open Sans', verdana, arial, sans-serif; font-size: 12px; fill: rgb(42, 63, 95); fill-opacity: 1; white-space: pre; opacity: 1;">chr22</text></g><g class="angularaxistick"><text text-anchor="end" x="-2.3461492836873488" y="12.155871635532623" transform="translate(208.05728090000835,354.0456403667956)" style="font-family: 'Open Sans', verdana, arial, sans-serif; font-size: 12px; fill: rgb(42, 63, 95); fill-opacity: 1; white-space: pre; opacity: 1;">chr3</text></g><g class="angularaxistick"><text text-anchor="end" x="-1.8485295702712" y="14.157828074303758" transform="translate(235.51216164020968,383.28211884412633)" style="font-family: 'Open Sans', verdana, arial, sans-serif; font-size: 12px; fill: rgb(42, 63, 95); fill-opacity: 1; white-space: pre; opacity: 1;">chr4</text></g><g class="angularaxistick"><text text-anchor="end" x="-1.2347599455387095" y="15.270196106316998" transform="translate(269.37531334958845,404.77232839456315)" style="font-family: 'Open Sans', verdana, arial, sans-serif; font-size: 12px; fill: rgb(42, 63, 95); fill-opacity: 1; white-space: pre; opacity: 1;">chr5</text></g><g class="angularaxistick"><text text-anchor="end" x="-0.5434058122986015" y="15.423081557117506" transform="translate(307.5189896662841,417.1659601165902)" style="font-family: 'Open Sans', verdana, arial, sans-serif; font-size: 12px; fill: rgb(42, 63, 95); fill-opacity: 1; white-space: pre; opacity: 1;">chr6</text></g><g class="angularaxistick"><text text-anchor="middle" x="0.18209250663500723" y="15.13431843560436" transform="translate(347.54648312469004,419.6842765485235)" style="font-family: 'Open Sans', verdana, arial, sans-serif; font-size: 12px; fill: rgb(42, 63, 95); fill-opacity: 1; white-space: pre; opacity: 1;">chr7</text></g><g class="angularaxistick"><text text-anchor="start" x="0.896149283687347" y="15.468613469172567" transform="translate(386.94271909999156,412.1690426072246)" style="font-family: 'Open Sans', verdana, arial, sans-serif; font-size: 12px; fill: rgb(42, 63, 95); fill-opacity: 1; white-space: pre; opacity: 1;">chr8</text></g><g class="angularaxistick"><text text-anchor="start" x="1.5538977054390908" y="14.83095862889181" transform="translate(423.2322871966395,395.0924680803224)" style="font-family: 'Open Sans', verdana, arial, sans-serif; font-size: 12px; fill: rgb(42, 63, 95); fill-opacity: 1; white-space: pre; opacity: 1;">chr9</text></g><g class="angularaxistick"><text text-anchor="start" x="2.1140090195220926" y="13.261420113507393" transform="translate(454.1349803874258,369.52753694859024)" style="font-family: 'Open Sans', verdana, arial, sans-serif; font-size: 12px; fill: rgb(42, 63, 95); fill-opacity: 1; white-space: pre; opacity: 1;">chrM</text></g><g class="angularaxistick"><text text-anchor="start" x="2.5412893721272036" y="10.858617800299795" transform="translate(477.70906880701807,337.0805878562746)" style="font-family: 'Open Sans', verdana, arial, sans-serif; font-size: 12px; fill: rgb(42, 63, 95); fill-opacity: 1; white-space: pre; opacity: 1;">chrX</text></g><g class="angularaxistick"><text text-anchor="start" x="2.80889116727303" y="7.773528595496595" transform="translate(492.473305780581,299.79038194637684)" style="font-family: 'Open Sans', verdana, arial, sans-serif; font-size: 12px; fill: rgb(42, 63, 95); fill-opacity: 1; white-space: pre; opacity: 1;">chrY</text></g></g><g class="polarsublayer radial-axis" transform="translate(337.5,260)"><g class="xtick"><text text-anchor="start" x="0" y="14.9" transform=" rotate(90,0,8.9)" style="font-family: 'Open Sans', verdana, arial, sans-serif; font-size: 12px; fill: rgb(42, 63, 95); fill-opacity: 1; white-space: pre; opacity: 1;">0</text></g><g class="xtick"><text text-anchor="start" x="0" y="14.9" transform="translate(24.13,0) rotate(90,0,8.9)" style="font-family: 'Open Sans', verdana, arial, sans-serif; font-size: 12px; fill: rgb(42, 63, 95); fill-opacity: 1; white-space: pre; opacity: 1;">20</text></g><g class="xtick"><text text-anchor="start" x="0" y="14.9" transform="translate(48.25,0) rotate(90,0,8.9)" style="font-family: 'Open Sans', verdana, arial, sans-serif; font-size: 12px; fill: rgb(42, 63, 95); fill-opacity: 1; white-space: pre; opacity: 1;">40</text></g><g class="xtick"><text text-anchor="start" x="0" y="14.9" transform="translate(72.38,0) rotate(90,0,8.9)" style="font-family: 'Open Sans', verdana, arial, sans-serif; font-size: 12px; fill: rgb(42, 63, 95); fill-opacity: 1; white-space: pre; opacity: 1;">60</text></g><g class="xtick"><text text-anchor="start" x="0" y="14.9" transform="translate(96.51,0) rotate(90,0,8.9)" style="font-family: 'Open Sans', verdana, arial, sans-serif; font-size: 12px; fill: rgb(42, 63, 95); fill-opacity: 1; white-space: pre; opacity: 1;">80</text></g><g class="xtick"><text text-anchor="start" x="0" y="14.9" transform="translate(120.63,0) rotate(90,0,8.9)" style="font-family: 'Open Sans', verdana, arial, sans-serif; font-size: 12px; fill: rgb(42, 63, 95); fill-opacity: 1; white-space: pre; opacity: 1;">100</text></g><g class="xtick"><text text-anchor="start" x="0" y="14.9" transform="translate(144.76,0) rotate(90,0,8.9)" style="font-family: 'Open Sans', verdana, arial, sans-serif; font-size: 12px; fill: rgb(42, 63, 95); fill-opacity: 1; white-space: pre; opacity: 1;">120</text></g></g></g></g><g class="smithlayer"/><g class="ternarylayer"/><g class="geolayer"/><g class="funnelarealayer"/><g class="pielayer"/><g class="iciclelayer"/><g class="treemaplayer"/><g class="sunburstlayer"/><g class="glimages"/><defs id="topdefs-56ffde"><g class="clips"/><clipPath id="legend56ffde"><rect width="83" height="48" x="0" y="0"/></clipPath></defs><g class="layer-above"><g class="imagelayer"/><g class="shapelayer"/></g><g class="infolayer"><g class="legend" pointer-events="all" transform="translate(605.3,100)"><rect class="bg" shape-rendering="crispEdges" style="stroke: rgb(68, 68, 68); stroke-opacity: 1; fill: rgb(255, 255, 255); fill-opacity: 1; stroke-width: 0px;" width="83" height="48" x="0" y="0"/><g class="scrollbox" transform="" clip-path="url(#legend56ffde)"><g class="groups"><g class="traces" transform="translate(0,14.5)" style="opacity: 1;"><text class="legendtext" text-anchor="start" x="40" y="4.680000000000001" style="font-family: 'Open Sans', verdana, arial, sans-serif; font-size: 12px; fill: rgb(42, 63, 95); fill-opacity: 1; white-space: pre;">Closer</text><g class="layers" style="opacity: 0.8;"><g class="legendfill"/><g class="legendlines"/><g class="legendsymbols"><g class="legendpoints"><path class="legendundefined" d="M6,6H-6V-6H6Z" transform="translate(20,0)" style="stroke-width: 0.5px; fill: rgb(255, 147, 64); fill-opacity: 1; stroke: rgb(0, 0, 0); stroke-opacity: 1;"/></g></g></g><rect class="legendtoggle" x="0" y="-9.5" width="77.703125" height="19" style="fill: rgb(0, 0, 0); fill-opacity: 0;"/></g><g class="traces" transform="translate(0,33.5)" style="opacity: 1;"><text class="legendtext" text-anchor="start" x="40" y="4.680000000000001" style="font-family: 'Open Sans', verdana, arial, sans-serif; font-size: 12px; fill: rgb(42, 63, 95); fill-opacity: 1; white-space: pre;">Both</text><g class="layers" style="opacity: 0.8;"><g class="legendfill"/><g class="legendlines"/><g class="legendsymbols"><g class="legendpoints"><path class="legendundefined" d="M6,6H-6V-6H6Z" transform="translate(20,0)" style="stroke-width: 0.5px; fill: rgb(51, 206, 195); fill-opacity: 1; stroke: rgb(0, 0, 0); stroke-opacity: 1;"/></g></g></g><rect class="legendtoggle" x="0" y="-9.5" width="77.703125" height="19" style="fill: rgb(0, 0, 0); fill-opacity: 0;"/></g></g></g><rect class="scrollbar" rx="20" ry="3" width="0" height="0" style="fill: rgb(128, 139, 164); fill-opacity: 1;" x="0" y="0"/></g><g class="g-gtitle"><text class="gtitle" x="35" y="50" text-anchor="start" dy="0em" style="font-family: 'Open Sans', verdana, arial, sans-serif; font-size: 17px; fill: rgb(42, 63, 95); opacity: 1; font-weight: normal; white-space: pre;">Average dist by Chr using two metrics</text></g><g class="g-polartitle"/></g></svg>