<svg class="main-svg" xmlns="http://www.w3.org/2000/svg" xmlns:xlink="http://www.w3.org/1999/xlink" width="700" height="500" style="" viewBox="0 0 700 500"><rect x="0" y="0" width="700" height="500" style="fill: rgb(255, 255, 255); fill-opacity: 1;"/><defs id="defs-652b4a"><g class="clips"><clipPath id="clip652b4apolar-for-traces"><path d="M160,0A160,160 0,1,0 -160,-1.9594348786357652e-14A160,160 0,1,0 160,3.9188697572715304e-14Z" transform="translate(160,160)"/></clipPath></g><g class="gradients"/><g class="patterns"/></defs><g class="bglayer"/><g class="layer-below"><g class="imagelayer"/><g class="shapelayer"/></g><g class="cartesianlayer"/><g class="polarlayer"><g class="polar"><g class="polarsublayer draglayer"/><g class="polarsublayer plotbg"><path d="M160,0A160,160 0,1,0 -160,-1.9594348786357652e-14A160,160 0,1,0 160,3.9188697572715304e-14Z" transform="translate(337.5,260)" style="fill: rgb(229, 236, 246); fill-opacity: 1;"/></g><g class="polarsublayer backplot"><g class="maplayer"/></g><g class="polarsublayer angular-grid" style="fill: none;"><path class="angularaxisgrid" d="M337.5,260L497.5,260" style="stroke: rgb(255, 255, 255); stroke-opacity: 1; stroke-width: 1px;"/><path class="angularaxisgrid" d="M337.5,260L492.473305780581,220.20961805362322" style="stroke: rgb(255, 255, 255); stroke-opacity: 1; stroke-width: 1px;"/><path class="angularaxisgrid" d="M337.5,260L477.7090688070182,182.91941214372554" style="stroke: rgb(255, 255, 255); stroke-opacity: 1; stroke-width: 1px;"/><path class="angularaxisgrid" d="M337.5,260L454.13498038742586,150.47246305140982" style="stroke: rgb(255, 255, 255); stroke-opacity: 1; stroke-width: 1px;"/><path class="angularaxisgrid" d="M337.5,260L423.23228719663945,124.90753191967758" style="stroke: rgb(255, 255, 255); stroke-opacity: 1; stroke-width: 1px;"/><path class="angularaxisgrid" d="M337.5,260L386.94271909999156,107.83095739277545" style="stroke: rgb(255, 255, 255); stroke-opacity: 1; stroke-width: 1px;"/><path class="angularaxisgrid" d="M337.5,260L347.54648312469016,100.31572345147654" style="stroke: rgb(255, 255, 255); stroke-opacity: 1; stroke-width: 1px;"/><path class="angularaxisgrid" d="M337.5,260L307.5189896662841,102.83403988340982" style="stroke: rgb(255, 255, 255); stroke-opacity: 1; stroke-width: 1px;"/><path class="angularaxisgrid" d="M337.5,260L269.3753133495884,115.22767160543688" style="stroke: rgb(255, 255, 255); stroke-opacity: 1; stroke-width: 1px;"/><path class="angularaxisgrid" d="M337.5,260L235.51216164020963,136.71788115587373" style="stroke: rgb(255, 255, 255); stroke-opacity: 1; stroke-width: 1px;"/><path class="angularaxisgrid" d="M337.5,260L208.05728090000844,165.95435963320426" style="stroke: rgb(255, 255, 255); stroke-opacity: 1; stroke-width: 1px;"/><path class="angularaxisgrid" d="M337.5,260L188.7357622578798,201.1000715704515" style="stroke: rgb(255, 255, 255); stroke-opacity: 1; stroke-width: 1px;"/><path class="angularaxisgrid" d="M337.5,260L178.76164778968356,239.9466826297113" style="stroke: rgb(255, 255, 255); stroke-opacity: 1; stroke-width: 1px;"/><path class="angularaxisgrid" d="M337.5,260L178.76164778968354,280.0533173702887" style="stroke: rgb(255, 255, 255); stroke-opacity: 1; stroke-width: 1px;"/><path class="angularaxisgrid" d="M337.5,260L188.73576225787977,318.8999284295485" style="stroke: rgb(255, 255, 255); stroke-opacity: 1; stroke-width: 1px;"/><path class="angularaxisgrid" d="M337.5,260L208.05728090000835,354.0456403667956" style="stroke: rgb(255, 255, 255); stroke-opacity: 1; stroke-width: 1px;"/><path class="angularaxisgrid" d="M337.5,260L235.51216164020968,383.28211884412633" style="stroke: rgb(255, 255, 255); stroke-opacity: 1; stroke-width: 1px;"/><path class="angularaxisgrid" d="M337.5,260L269.37531334958845,404.77232839456315" style="stroke: rgb(255, 255, 255); stroke-opacity: 1; stroke-width: 1px;"/><path class="angularaxisgrid" d="M337.5,260L307.5189896662841,417.1659601165902" style="stroke: rgb(255, 255, 255); stroke-opacity: 1; stroke-width: 1px;"/><path class="angularaxisgrid" d="M337.5,260L347.54648312469004,419.6842765485235" style="stroke: rgb(255, 255, 255); stroke-opacity: 1; stroke-width: 1px;"/><path class="angularaxisgrid" d="M337.5,260L386.94271909999156,412.1690426072246" style="stroke: rgb(255, 255, 255); stroke-opacity: 1; stroke-width: 1px;"/><path class="angularaxisgrid" d="M337.5,260L423.2322871966395,395.0924680803224" style="stroke: rgb(255, 255, 255); stroke-opacity: 1; stroke-width: 1px;"/><path class="angularaxisgrid" d="M337.5,260L454.1349803874258,369.52753694859024" style="stroke: rgb(255, 255, 255); stroke-opacity: 1; stroke-width: 1px;"/><path class="angularaxisgrid" d="M337.5,260L477.70906880701807,337.0805878562746" style="stroke: rgb(255, 255, 255); stroke-opacity: 1; stroke-width: 1px;"/><path class="angularaxisgrid" d="M337.5,260L492.473305780581,299.79038194637684" style="stroke: rgb(255, 255, 255); stroke-opacity: 1; stroke-width: 1px;"/></g><g class="polarsublayer radial-grid" transform="translate(337.5,260)" style="fill: none;"><path class="xgrid" d="M18.65,0A18.65,18.65 0,1,0 -18.65,-2.2839662804098134e-15A18.65,18.65 0,1,0 18.65,4.567932560819627e-15Z" style="stroke: rgb(255, 255, 255); stroke-opacity: 1; stroke-width: 1px;"/><path class="xgrid" d="M37.3,0A37.3,37.3 0,1,0 -37.3,-4.567932560819627e-15A37.3,37.3 0,1,0 37.3,9.135865121639254e-15Z" style="stroke: rgb(255, 255, 255); stroke-opacity: 1; stroke-width: 1px;"/><path class="xgrid" d="M55.95,0A55.95,55.95 0,1,0 -55.95,-6.8518988412294415e-15A55.95,55.95 0,1,0 55.95,1.3703797682458883e-14Z" style="stroke: rgb(255, 255, 255); stroke-opacity: 1; stroke-width: 1px;"/><path class="xgrid" d="M74.6,0A74.6,74.6 0,1,0 -74.6,-9.135865121639254e-15A74.6,74.6 0,1,0 74.6,1.8271730243278507e-14Z" style="stroke: rgb(255, 255, 255); stroke-opacity: 1; stroke-width: 1px;"/><path class="xgrid" d="M93.25,0A93.25,93.25 0,1,0 -93.25,-1.1419831402049068e-14A93.25,93.25 0,1,0 93.25,2.2839662804098137e-14Z" style="stroke: rgb(255, 255, 255); stroke-opacity: 1; stroke-width: 1px;"/><path class="xgrid" d="M111.9,0A111.9,111.9 0,1,0 -111.9,-1.3703797682458883e-14A111.9,111.9 0,1,0 111.9,2.7407595364917766e-14Z" style="stroke: rgb(255, 255, 255); stroke-opacity: 1; stroke-width: 1px;"/><path class="xgrid" d="M130.55,0A130.55,130.55 0,1,0 -130.55,-1.5987763962868698e-14A130.55,130.55 0,1,0 130.55,3.1975527925737395e-14Z" style="stroke: rgb(255, 255, 255); stroke-opacity: 1; stroke-width: 1px;"/><path class="xgrid" d="M149.2,0A149.2,149.2 0,1,0 -149.2,-1.8271730243278507e-14A149.2,149.2 0,1,0 149.2,3.6543460486557015e-14Z" style="stroke: rgb(255, 255, 255); stroke-opacity: 1; stroke-width: 1px;"/></g><g class="polarsublayer frontplot" transform="translate(177.5,100)" clip-path="url(#clip652b4apolar-for-traces)"><g class="barlayer"><g class="trace bars" style="opacity: 0.8;"><g class="points"><g class="point" style="vector-effect: none; stroke-miterlimit: 2;"><path d="M160,160L165.5593467189831,160.631441858924A5.595092024539878,5.595092024539878 0,0,0 165.5593467189831,159.368558141076L160,160A0,0 0,0,1 160,160Z" style="opacity: 1; stroke-width: 0.5px; fill: rgb(255, 147, 64); fill-opacity: 1; stroke: rgb(0, 0, 0); stroke-opacity: 1;"/></g><g class="point" style="vector-effect: none; stroke-miterlimit: 2;"><path d="M160,160L196.02119835294323,154.98882918295376A36.3680981595092,36.3680981595092 0,0,0 193.9797666925325,147.03797780974142L160,160A0,0 0,0,1 160,160Z" style="opacity: 1; stroke-width: 0.5px; fill: rgb(255, 147, 64); fill-opacity: 1; stroke: rgb(0, 0, 0); stroke-opacity: 1;"/></g><g class="point" style="vector-effect: none; stroke-miterlimit: 2;"><path d="M160,160L164.31324341836924,158.22925084296583A4.662576687116565,4.662576687116565 0,0,0 163.80624435917215,157.30702297790845L160,160A0,0 0,0,1 160,160Z" style="opacity: 1; stroke-width: 0.5px; fill: rgb(255, 147, 64); fill-opacity: 1; stroke: rgb(0, 0, 0); stroke-opacity: 1;"/></g><g class="point" style="vector-effect: none; stroke-miterlimit: 2;"><path d="M160,160L168.96968208837103,153.30933319572446A11.190184049079756,11.190184049079756 0,0,0 167.24067530001636,151.4681279749394L160,160A0,0 0,0,1 160,160Z" style="opacity: 1; stroke-width: 0.5px; fill: rgb(255, 147, 64); fill-opacity: 1; stroke: rgb(0, 0, 0); stroke-opacity: 1;"/></g><g class="point" style="vector-effect: none; stroke-miterlimit: 2;"><path d="M160,160L163.51199092943017,155.6444317850974A5.595092024539878,5.595092024539878 0,0,0 162.44570293978927,154.9677448501317L160,160A0,0 0,0,1 160,160Z" style="opacity: 1; stroke-width: 0.5px; fill: rgb(255, 147, 64); fill-opacity: 1; stroke: rgb(0, 0, 0); stroke-opacity: 1;"/></g><g class="point" style="vector-effect: none; stroke-miterlimit: 2;"><path d="M160,160L162.3184695083796,154.90787334193425A5.595092024539878,5.595092024539878 0,0,0 161.11739571919716,154.5176208111998L160,160A0,0 0,0,1 160,160Z" style="opacity: 1; stroke-width: 0.5px; fill: rgb(255, 147, 64); fill-opacity: 1; stroke: rgb(0, 0, 0); stroke-opacity: 1;"/></g><g class="point" style="vector-effect: none; stroke-miterlimit: 2;"><path d="M160,160L163.91708048553255,137.96508777691693A22.38036809815951,22.38036809815951 0,0,0 158.8755136642957,137.64789927792177L160,160A0,0 0,0,1 160,160Z" style="opacity: 1; stroke-width: 0.5px; fill: rgb(255, 147, 64); fill-opacity: 1; stroke: rgb(0, 0, 0); stroke-opacity: 1;"/></g><g class="point" style="vector-effect: none; stroke-miterlimit: 2;"><path d="M160,160L159.3678093867349,151.63120628492933A8.392638036809817,8.392638036809817 0,0,0 157.50703752394244,151.98616750175825L160,160A0,0 0,0,1 160,160Z" style="opacity: 1; stroke-width: 0.5px; fill: rgb(255, 147, 64); fill-opacity: 1; stroke: rgb(0, 0, 0); stroke-opacity: 1;"/></g><g class="point" style="vector-effect: none; stroke-miterlimit: 2;"><path d="M160,160L154.61287290532192,144.102693481806A16.785276073619634,16.785276073619634 0,0,0 151.18479884923863,145.7158226859492L160,160A0,0 0,0,1 160,160Z" style="opacity: 1; stroke-width: 0.5px; fill: rgb(255, 147, 64); fill-opacity: 1; stroke: rgb(0, 0, 0); stroke-opacity: 1;"/></g><g class="point" style="vector-effect: none; stroke-miterlimit: 2;"><path d="M160,160L155.92383113111123,153.75193805710893A7.4601226993865035,7.4601226993865035 0,0,0 154.62640629286076,154.8252612278014L160,160A0,0 0,0,1 160,160Z" style="opacity: 1; stroke-width: 0.5px; fill: rgb(255, 147, 64); fill-opacity: 1; stroke: rgb(0, 0, 0); stroke-opacity: 1;"/></g><g class="point" style="vector-effect: none; stroke-miterlimit: 2;"><path d="M160,160L155.87354623907575,156.22145079137195A5.595092024539878,5.595092024539878 0,0,0 155.13124181436436,157.24314518103043L160,160A0,0 0,0,1 160,160Z" style="opacity: 1; stroke-width: 0.5px; fill: rgb(255, 147, 64); fill-opacity: 1; stroke: rgb(0, 0, 0); stroke-opacity: 1;"/></g><g class="point" style="vector-effect: none; stroke-miterlimit: 2;"><path d="M160,160L152.59524909347843,156.04955227483327A8.392638036809817,8.392638036809817 0,0,0 151.89790133789006,157.81085165273265L160,160A0,0 0,0,1 160,160Z" style="opacity: 1; stroke-width: 0.5px; fill: rgb(255, 147, 64); fill-opacity: 1; stroke: rgb(0, 0, 0); stroke-opacity: 1;"/></g><g class="point" style="vector-effect: none; stroke-miterlimit: 2;"><path d="M160,160L147.31513909421824,156.91245481186203A13.055214723926381,13.055214723926381 0,0,0 146.9458160609465,159.83594765109342L160,160A0,0 0,0,1 160,160Z" style="opacity: 1; stroke-width: 0.5px; fill: rgb(255, 147, 64); fill-opacity: 1; stroke: rgb(0, 0, 0); stroke-opacity: 1;"/></g><g class="point" style="vector-effect: none; stroke-miterlimit: 2;"><path d="M160,160L125.49965673250145,160.4335669221103A34.50306748466258,34.50306748466258 0,0,0 126.47572474900537,168.15994085436458L160,160A0,0 0,0,1 160,160Z" style="opacity: 1; stroke-width: 0.5px; fill: rgb(255, 147, 64); fill-opacity: 1; stroke: rgb(0, 0, 0); stroke-opacity: 1;"/></g><g class="point" style="vector-effect: none; stroke-miterlimit: 2;"><path d="M160,160L149.19720178385342,162.91886446302314A11.190184049079756,11.190184049079756 0,0,0 150.12699879130457,165.26726363355561L160,160A0,0 0,0,1 160,160Z" style="opacity: 1; stroke-width: 0.5px; fill: rgb(255, 147, 64); fill-opacity: 1; stroke: rgb(0, 0, 0); stroke-opacity: 1;"/></g><g class="point" style="vector-effect: none; stroke-miterlimit: 2;"><path d="M160,160L154.31978211675843,163.21633062213118A6.527607361963191,6.527607361963191 0,0,0 155.18580394558836,164.40830741006607L160,160A0,0 0,0,1 160,160Z" style="opacity: 1; stroke-width: 0.5px; fill: rgb(255, 147, 64); fill-opacity: 1; stroke: rgb(0, 0, 0); stroke-opacity: 1;"/></g><g class="point" style="vector-effect: none; stroke-miterlimit: 2;"><path d="M160,160L129.10183618394942,189.7547479401419A42.895705521472394,42.895705521472394 0,0,0 136.5620290038895,195.92635617162367L160,160A0,0 0,0,1 160,160Z" style="opacity: 1; stroke-width: 0.5px; fill: rgb(255, 147, 64); fill-opacity: 1; stroke: rgb(0, 0, 0); stroke-opacity: 1;"/></g><g class="point" style="vector-effect: none; stroke-miterlimit: 2;"><path d="M160,160L155.59239942461932,167.1420886570254A8.392638036809817,8.392638036809817 0,0,0 157.30643645266096,167.948653259097L160,160A0,0 0,0,1 160,160Z" style="opacity: 1; stroke-width: 0.5px; fill: rgb(255, 147, 64); fill-opacity: 1; stroke: rgb(0, 0, 0); stroke-opacity: 1;"/></g><g class="point" style="vector-effect: none; stroke-miterlimit: 2;"><path d="M160,160L158.33802501596162,165.34255499882784A5.595092024539878,5.595092024539878 0,0,0 159.57853959115658,165.5791958100471L160,160A0,0 0,0,1 160,160Z" style="opacity: 1; stroke-width: 0.5px; fill: rgb(255, 147, 64); fill-opacity: 1; stroke: rgb(0, 0, 0); stroke-opacity: 1;"/></g><g class="point" style="vector-effect: none; stroke-miterlimit: 2;"><path d="M160,160L159.6251712214319,167.45070024069275A7.4601226993865035,7.4601226993865035 0,0,0 161.3056934951775,167.34497074102768L160,160A0,0 0,0,1 160,160Z" style="opacity: 1; stroke-width: 0.5px; fill: rgb(255, 147, 64); fill-opacity: 1; stroke: rgb(0, 0, 0); stroke-opacity: 1;"/></g><g class="point" style="vector-effect: none; stroke-miterlimit: 2;"><path d="M160,160L161.11739571919716,165.4823791888002A5.595092024539878,5.595092024539878 0,0,0 162.3184695083796,165.09212665806575L160,160A0,0 0,0,1 160,160Z" style="opacity: 1; stroke-width: 0.5px; fill: rgb(255, 147, 64); fill-opacity: 1; stroke: rgb(0, 0, 0); stroke-opacity: 1;"/></g><g class="point" style="vector-effect: none; stroke-miterlimit: 2;"><path d="M160,160L163.6685544096839,167.54838272480242A8.392638036809817,8.392638036809817 0,0,0 165.26798639414528,166.53335232235392L160,160A0,0 0,0,1 160,160Z" style="opacity: 1; stroke-width: 0.5px; fill: rgb(255, 147, 64); fill-opacity: 1; stroke: rgb(0, 0, 0); stroke-opacity: 1;"/></g><g class="point" style="vector-effect: none; stroke-miterlimit: 2;"><path d="M160,160L169.05084412502046,170.66484003132578A13.987730061349694,13.987730061349694 0,0,0 171.2121026104638,168.36333350534443L160,160A0,0 0,0,1 160,160Z" style="opacity: 1; stroke-width: 0.5px; fill: rgb(255, 147, 64); fill-opacity: 1; stroke: rgb(0, 0, 0); stroke-opacity: 1;"/></g><g class="point" style="vector-effect: none; stroke-miterlimit: 2;"><path d="M160,160L163.80624435917215,162.69297702209155A4.662576687116565,4.662576687116565 0,0,0 164.31324341836924,161.77074915703417L160,160A0,0 0,0,1 160,160Z" style="opacity: 1; stroke-width: 0.5px; fill: rgb(255, 147, 64); fill-opacity: 1; stroke: rgb(0, 0, 0); stroke-opacity: 1;"/></g><g class="point" style="vector-effect: none; stroke-miterlimit: 2;"><path d="M160,160L207.9201837971612,178.27977488369805A51.288343558282214,51.288343558282214 0,0,0 210.79912588235587,167.0670357676293L160,160A0,0 0,0,1 160,160Z" style="opacity: 1; stroke-width: 0.5px; fill: rgb(255, 147, 64); fill-opacity: 1; stroke: rgb(0, 0, 0); stroke-opacity: 1;"/></g></g></g><g class="trace bars" style="opacity: 0.8;"><g class="points"><g class="point" style="vector-effect: none; stroke-miterlimit: 2;"><path d="M165.5593467189831,160.631441858924L217.44658276282553,166.52489920888155A57.8159509202454,57.8159509202454 0,0,0 217.44658276282553,153.47510079111845L165.5593467189831,159.368558141076A5.595092024539878,5.595092024539878 0,0,1 165.5593467189831,160.631441858924Z" style="opacity: 1; stroke-width: 0.5px; fill: rgb(51, 206, 195); fill-opacity: 1; stroke: rgb(0, 0, 0); stroke-opacity: 1;"/></g><g class="point" style="vector-effect: none; stroke-miterlimit: 2;"><path d="M196.02119835294323,154.98882918295376L280.99428164706575,143.16760571710114A122.15950920245399,122.15950920245399 0,0,0 274.1371650441476,116.46089982246474L193.9797666925325,147.03797780974142A36.3680981595092,36.3680981595092 0,0,1 196.02119835294323,154.98882918295376Z" style="opacity: 1; stroke-width: 0.5px; fill: rgb(51, 206, 195); fill-opacity: 1; stroke: rgb(0, 0, 0); stroke-opacity: 1;"/></g><g class="point" style="vector-effect: none; stroke-miterlimit: 2;"><path d="M164.31324341836924,158.22925084296583L212.62156970410487,138.3968602841832A56.88343558282209,56.88343558282209 0,0,0 206.43618118190017,127.14568033048303L163.80624435917215,157.30702297790845A4.662576687116565,4.662576687116565 0,0,1 164.31324341836924,158.22925084296583Z" style="opacity: 1; stroke-width: 0.5px; fill: rgb(51, 206, 195); fill-opacity: 1; stroke: rgb(0, 0, 0); stroke-opacity: 1;"/></g><g class="point" style="vector-effect: none; stroke-miterlimit: 2;"><path d="M168.96968208837103,153.30933319572446L214.5655660375905,119.29844360732375A68.07361963190185,68.07361963190185 0,0,0 204.04744140843286,108.09777851421457L167.24067530001636,151.4681279749394A11.190184049079756,11.190184049079756 0,0,1 168.96968208837103,153.30933319572446Z" style="opacity: 1; stroke-width: 0.5px; fill: rgb(51, 206, 195); fill-opacity: 1; stroke: rgb(0, 0, 0); stroke-opacity: 1;"/></g><g class="point" style="vector-effect: none; stroke-miterlimit: 2;"><path d="M163.51199092943017,155.6444317850974L198.04656840216026,112.8146776718884A60.61349693251534,60.61349693251534 0,0,0 186.4951151810504,105.48390254309358L162.44570293978927,154.9677448501317A5.595092024539878,5.595092024539878 0,0,1 163.51199092943017,155.6444317850974Z" style="opacity: 1; stroke-width: 0.5px; fill: rgb(51, 206, 195); fill-opacity: 1; stroke: rgb(0, 0, 0); stroke-opacity: 1;"/></g><g class="point" style="vector-effect: none; stroke-miterlimit: 2;"><path d="M162.3184695083796,154.90787334193425L183.9575182532559,107.38135786665399A57.8159509202454,57.8159509202454 0,0,0 171.54642243170412,103.3487483823979L161.11739571919716,154.5176208111998A5.595092024539878,5.595092024539878 0,0,1 162.3184695083796,154.90787334193425Z" style="opacity: 1; stroke-width: 0.5px; fill: rgb(51, 206, 195); fill-opacity: 1; stroke: rgb(0, 0, 0); stroke-opacity: 1;"/></g><g class="point" style="vector-effect: none; stroke-miterlimit: 2;"><path d="M163.91708048553255,137.96508777691693L175.83153362902743,70.94222976503923A90.45398773006136,90.45398773006136 0,0,0 155.45520105986182,69.66025958160047L158.8755136642957,137.64789927792177A22.38036809815951,22.38036809815951 0,0,1 163.91708048553255,137.96508777691693Z" style="opacity: 1; stroke-width: 0.5px; fill: rgb(51, 206, 195); fill-opacity: 1; stroke: rgb(0, 0, 0); stroke-opacity: 1;"/></g><g class="point" style="vector-effect: none; stroke-miterlimit: 2;"><path d="M159.3678093867349,151.63120628492933L155.22344869977476,96.76911415279935A63.41104294478528,63.41104294478528 0,0,0 141.1642835142317,99.45104334661778L157.50703752394244,151.98616750175825A8.392638036809817,8.392638036809817 0,0,1 159.3678093867349,151.63120628492933Z" style="opacity: 1; stroke-width: 0.5px; fill: rgb(51, 206, 195); fill-opacity: 1; stroke: rgb(0, 0, 0); stroke-opacity: 1;"/></g><g class="point" style="vector-effect: none; stroke-miterlimit: 2;"><path d="M154.61287290532192,144.102693481806L135.15935839676226,86.6957532772166A77.39877300613497,77.39877300613497 0,0,0 119.35212802704476,94.13407127409917L151.18479884923863,145.7158226859492A16.785276073619634,16.785276073619634 0,0,1 154.61287290532192,144.102693481806Z" style="opacity: 1; stroke-width: 0.5px; fill: rgb(51, 206, 195); fill-opacity: 1; stroke: rgb(0, 0, 0); stroke-opacity: 1;"/></g><g class="point" style="vector-effect: none; stroke-miterlimit: 2;"><path d="M155.92383113111123,153.75193805710893L124.33352239722318,105.32945799970314A65.2760736196319,65.2760736196319 0,0,0 112.98105506253171,114.7210357432623L154.62640629286076,154.8252612278014A7.4601226993865035,7.4601226993865035 0,0,1 155.92383113111123,153.75193805710893Z" style="opacity: 1; stroke-width: 0.5px; fill: rgb(51, 206, 195); fill-opacity: 1; stroke: rgb(0, 0, 0); stroke-opacity: 1;"/></g><g class="point" style="vector-effect: none; stroke-miterlimit: 2;"><path d="M155.87354623907575,156.22145079137195L123.54965844516902,126.62281532378546A49.423312883435585,49.423312883435585 0,0,0 116.99263602688528,135.64778243243535L155.13124181436436,157.24314518103043A5.595092024539878,5.595092024539878 0,0,1 155.87354623907575,156.22145079137195Z" style="opacity: 1; stroke-width: 0.5px; fill: rgb(51, 206, 195); fill-opacity: 1; stroke: rgb(0, 0, 0); stroke-opacity: 1;"/></g><g class="point" style="vector-effect: none; stroke-miterlimit: 2;"><path d="M152.59524909347843,156.04955227483327L101.58474284855205,128.8353568347959A66.20858895705521,66.20858895705521 0,0,0 96.08344388779943,142.7300519271131L151.89790133789006,157.81085165273265A8.392638036809817,8.392638036809817 0,0,1 152.59524909347843,156.04955227483327Z" style="opacity: 1; stroke-width: 0.5px; fill: rgb(51, 206, 195); fill-opacity: 1; stroke: rgb(0, 0, 0); stroke-opacity: 1;"/></g><g class="point" style="vector-effect: none; stroke-miterlimit: 2;"><path d="M147.31513909421824,156.91245481186203L86.60901904511984,142.13634569720182A75.53374233128835,75.53374233128835 0,0,0 84.47222149547616,159.05083998132613L146.9458160609465,159.83594765109342A13.055214723926381,13.055214723926381 0,0,1 147.31513909421824,156.91245481186203Z" style="opacity: 1; stroke-width: 0.5px; fill: rgb(51, 206, 195); fill-opacity: 1; stroke: rgb(0, 0, 0); stroke-opacity: 1;"/></g><g class="point" style="vector-effect: none; stroke-miterlimit: 2;"><path d="M125.49965673250145,160.4335669221103L35.05281086905934,161.5702153395345A124.95705521472394,124.95705521472394 0,0,0 38.587759901803196,189.5522182293204L126.47572474900537,168.15994085436458A34.50306748466258,34.50306748466258 0,0,1 125.49965673250145,160.4335669221103Z" style="opacity: 1; stroke-width: 0.5px; fill: rgb(51, 206, 195); fill-opacity: 1; stroke: rgb(0, 0, 0); stroke-opacity: 1;"/></g><g class="point" style="vector-effect: none; stroke-miterlimit: 2;"><path d="M149.19720178385342,162.91886446302314L93.38274433376279,177.9996641886427A69.00613496932516,69.00613496932516 0,0,0 99.1164925463782,192.48145907359302L150.12699879130457,165.26726363355561A11.190184049079756,11.190184049079756 0,0,1 149.19720178385342,162.91886446302314Z" style="opacity: 1; stroke-width: 0.5px; fill: rgb(51, 206, 195); fill-opacity: 1; stroke: rgb(0, 0, 0); stroke-opacity: 1;"/></g><g class="point" style="vector-effect: none; stroke-miterlimit: 2;"><path d="M154.31978211675843,163.21633062213118L105.63220026040216,190.784878811827A62.47852760736197,62.47852760736197 0,0,0 113.92126633634577,202.19379949634674L155.18580394558836,164.40830741006607A6.527607361963191,6.527607361963191 0,0,1 154.31978211675843,163.21633062213118Z" style="opacity: 1; stroke-width: 0.5px; fill: rgb(51, 206, 195); fill-opacity: 1; stroke: rgb(0, 0, 0); stroke-opacity: 1;"/></g><g class="point" style="vector-effect: none; stroke-miterlimit: 2;"><path d="M129.10183618394942,189.7547479401419L59.91681720453178,256.3795096321988A138.94478527607362,138.94478527607362 0,0,0 84.08135481694649,276.37015368634616L136.5620290038895,195.92635617162367A42.895705521472394,42.895705521472394 0,0,1 129.10183618394942,189.7547479401419Z" style="opacity: 1; stroke-width: 0.5px; fill: rgb(51, 206, 195); fill-opacity: 1; stroke: rgb(0, 0, 0); stroke-opacity: 1;"/></g><g class="point" style="vector-effect: none; stroke-miterlimit: 2;"><path d="M155.59239942461932,167.1420886570254L125.22892879421903,216.34314384986698A66.20858895705521,66.20858895705521 0,0,0 138.75077645988094,222.70604237732073L157.30643645266096,167.948653259097A8.392638036809817,8.392638036809817 0,0,1 155.59239942461932,167.1420886570254Z" style="opacity: 1; stroke-width: 0.5px; fill: rgb(51, 206, 195); fill-opacity: 1; stroke: rgb(0, 0, 0); stroke-opacity: 1;"/></g><g class="point" style="vector-effect: none; stroke-miterlimit: 2;"><path d="M158.33802501596162,165.34255499882784L141.99527100625087,217.8776791539683A60.61349693251534,60.61349693251534 0,0,0 155.43417890419647,220.4412879421771L159.57853959115658,165.5791958100471A5.595092024539878,5.595092024539878 0,0,1 158.33802501596162,165.34255499882784Z" style="opacity: 1; stroke-width: 0.5px; fill: rgb(51, 206, 195); fill-opacity: 1; stroke: rgb(0, 0, 0); stroke-opacity: 1;"/></g><g class="point" style="vector-effect: none; stroke-miterlimit: 2;"><path d="M159.6251712214319,167.45070024069275L156.86080897949222,222.39961451580174A62.47852760736197,62.47852760736197 0,0,0 170.9351830221117,221.51412995610693L161.3056934951775,167.34497074102768A7.4601226993865035,7.4601226993865035 0,0,1 159.6251712214319,167.45070024069275Z" style="opacity: 1; stroke-width: 0.5px; fill: rgb(51, 206, 195); fill-opacity: 1; stroke: rgb(0, 0, 0); stroke-opacity: 1;"/></g><g class="point" style="vector-effect: none; stroke-miterlimit: 2;"><path d="M161.11739571919716,165.4823791888002L171.7326550515703,217.56498148240215A58.74846625766872,58.74846625766872 0,0,0 184.34392983798583,213.4673299096903L162.3184695083796,165.09212665806575A5.595092024539878,5.595092024539878 0,0,1 161.11739571919716,165.4823791888002Z" style="opacity: 1; stroke-width: 0.5px; fill: rgb(51, 206, 195); fill-opacity: 1; stroke: rgb(0, 0, 0); stroke-opacity: 1;"/></g><g class="point" style="vector-effect: none; stroke-miterlimit: 2;"><path d="M163.6685544096839,167.54838272480242L188.53320096420813,218.70964341513A65.2760736196319,65.2760736196319 0,0,0 200.97322751001875,210.8149625071971L165.26798639414528,166.53335232235392A8.392638036809817,8.392638036809817 0,0,1 163.6685544096839,167.54838272480242Z" style="opacity: 1; stroke-width: 0.5px; fill: rgb(51, 206, 195); fill-opacity: 1; stroke: rgb(0, 0, 0); stroke-opacity: 1;"/></g><g class="point" style="vector-effect: none; stroke-miterlimit: 2;"><path d="M169.05084412502046,170.66484003132578L251.71522046687392,268.0703789841011A141.74233128834356,141.74233128834356 0,0,0 273.61597311936646,244.74844618749034L171.2121026104638,168.36333350534443A13.987730061349694,13.987730061349694 0,0,1 169.05084412502046,170.66484003132578Z" style="opacity: 1; stroke-width: 0.5px; fill: rgb(51, 206, 195); fill-opacity: 1; stroke: rgb(0, 0, 0); stroke-opacity: 1;"/></g><g class="point" style="vector-effect: none; stroke-miterlimit: 2;"><path d="M163.80624435917215,162.69297702209155L206.43618118190017,192.854319669517A56.88343558282209,56.88343558282209 0,0,0 212.62156970410484,181.60313971581687L164.31324341836924,161.77074915703417A4.662576687116565,4.662576687116565 0,0,1 163.80624435917215,162.69297702209155Z" style="opacity: 1; stroke-width: 0.5px; fill: rgb(51, 206, 195); fill-opacity: 1; stroke: rgb(0, 0, 0); stroke-opacity: 1;"/></g><g class="point" style="vector-effect: none; stroke-miterlimit: 2;"><path d="M207.9201837971612,178.27977488369805L302.017999253405,214.1746055644142A152,152 0,0,0 310.55013670589096,180.94412418406506L210.79912588235587,167.0670357676293A51.288343558282214,51.288343558282214 0,0,1 207.9201837971612,178.27977488369805Z" style="opacity: 1; stroke-width: 0.5px; fill: rgb(51, 206, 195); fill-opacity: 1; stroke: rgb(0, 0, 0); stroke-opacity: 1;"/></g></g></g></g><g class="scatterlayer"/></g><g class="polarsublayer angular-line"><path d="M160,0A160,160 0,1,0 -160,-1.9594348786357652e-14A160,160 0,1,0 160,3.9188697572715304e-14Z" transform="translate(337.5,260)" stroke-width="1" style="fill: none; stroke: rgb(255, 255, 255); stroke-opacity: 1;"/></g><g class="polarsublayer radial-line"><line x1="0" y1="0" x2="160" y2="0" transform="translate(337.5,260)" stroke-width="1" style="fill: none; stroke: rgb(255, 255, 255); stroke-opacity: 1;"/></g><g class="polarsublayer angular-axis"><g class="angularaxistick"><text text-anchor="start" x="2.9000000000000004" y="4.199999999999999" transform="translate(497.5,260)" style="font-family: 'Open Sans', verdana, arial, sans-serif; font-size: 12px; fill: rgb(42, 63, 95); fill-opacity: 1; white-space: pre; opacity: 1;">chr1</text></g><g class="angularaxistick"><text text-anchor="start" x="2.8088911672730306" y="2.749992874766519" transform="translate(492.473305780581,220.20961805362322)" style="font-family: 'Open Sans', verdana, arial, sans-serif; font-size: 12px; fill: rgb(42, 63, 95); fill-opacity: 1; white-space: pre; opacity: 1;">chr10</text></g><g class="angularaxistick"><text text-anchor="start" x="2.5412893721272045" y="1.127193583445135" transform="translate(477.7090688070182,182.91941214372554)" style="font-family: 'Open Sans', verdana, arial, sans-serif; font-size: 12px; fill: rgb(42, 63, 95); fill-opacity: 1; white-space: pre; opacity: 1;">chr11</text></g><g class="angularaxistick"><text text-anchor="start" x="2.114009019522094" y="-0.5664314262521222" transform="translate(454.13498038742586,150.47246305140982)" style="font-family: 'Open Sans', verdana, arial, sans-serif; font-size: 12px; fill: rgb(42, 63, 95); fill-opacity: 1; white-space: pre; opacity: 1;">chr12</text></g><g class="angularaxistick"><text text-anchor="start" x="1.5538977054390901" y="-2.2244654662488954" transform="translate(423.23228719663945,124.90753191967758)" style="font-family: 'Open Sans', verdana, arial, sans-serif; font-size: 12px; fill: rgb(42, 63, 95); fill-opacity: 1; white-space: pre; opacity: 1;">chr13</text></g><g class="angularaxistick"><text text-anchor="start" x="0.8961492836873477" y="-3.742728159989535" transform="translate(386.94271909999156,107.83095739277545)" style="font-family: 'Open Sans', verdana, arial, sans-serif; font-size: 12px; fill: rgb(42, 63, 95); fill-opacity: 1; white-space: pre; opacity: 1;">chr14</text></g><g class="angularaxistick"><text text-anchor="middle" x="0.18209250663500925" y="-5.025821478646723" transform="translate(347.54648312469016,100.31572345147654)" style="font-family: 'Open Sans', verdana, arial, sans-serif; font-size: 12px; fill: rgb(42, 63, 95); fill-opacity: 1; white-space: pre; opacity: 1;">chr15</text></g><g class="angularaxistick"><text text-anchor="end" x="-0.5434058122986014" y="-4.419120907602008" transform="translate(307.5189896662841,102.83403988340982)" style="font-family: 'Open Sans', verdana, arial, sans-serif; font-size: 12px; fill: rgb(42, 63, 95); fill-opacity: 1; white-space: pre; opacity: 1;">chr16</text></g><g class="angularaxistick"><text text-anchor="end" x="-1.234759945538711" y="-3.0073103534965986" transform="translate(269.3753133495884,115.22767160543688)" style="font-family: 'Open Sans', verdana, arial, sans-serif; font-size: 12px; fill: rgb(42, 63, 95); fill-opacity: 1; white-space: pre; opacity: 1;">chr17</text></g><g class="angularaxistick"><text text-anchor="end" x="-1.8485295702712006" y="-1.4065394297671876" transform="translate(235.51216164020963,136.71788115587373)" style="font-family: 'Open Sans', verdana, arial, sans-serif; font-size: 12px; fill: rgb(42, 63, 95); fill-opacity: 1; white-space: pre; opacity: 1;">chr18</text></g><g class="angularaxistick"><text text-anchor="end" x="-2.3461492836873474" y="0.2826095392246697" transform="translate(208.05728090000844,165.95435963320426)" style="font-family: 'Open Sans', verdana, arial, sans-serif; font-size: 12px; fill: rgb(42, 63, 95); fill-opacity: 1; white-space: pre; opacity: 1;">chr19</text></g><g class="angularaxistick"><text text-anchor="end" x="-2.6963518090759293" y="1.9540011115018605" transform="translate(188.7357622578798,201.1000715704515)" style="font-family: 'Open Sans', verdana, arial, sans-serif; font-size: 12px; fill: rgb(42, 63, 95); fill-opacity: 1; white-space: pre; opacity: 1;">chr2</text></g><g class="angularaxistick"><text text-anchor="end" x="-2.877132633811986" y="3.502615607629992" transform="translate(178.76164778968356,239.9466826297113)" style="font-family: 'Open Sans', verdana, arial, sans-serif; font-size: 12px; fill: rgb(42, 63, 95); fill-opacity: 1; white-space: pre; opacity: 1;">chr20</text></g><g class="angularaxistick"><text text-anchor="end" x="-2.877132633811986" y="6.03434692562894" transform="translate(178.76164778968354,280.0533173702887)" style="font-family: 'Open Sans', verdana, arial, sans-serif; font-size: 12px; fill: rgb(42, 63, 95); fill-opacity: 1; white-space: pre; opacity: 1;">chr21</text></g><g class="angularaxistick"><text text-anchor="end" x="-2.6963518090759298" y="9.390117075732356" transform="translate(188.73576225787977,318.8999284295485)" style="font-family: 'Open Sans', verdana, arial, sans-serif; font-size: 12px; fill: rgb(42, 63, 95); fill-opacity: 1; white-space: pre; opacity: 1;">chr22</text></g><g class="angularaxistick"><text text-anchor="end" x="-2.3461492836873488" y="12.155871635532623" transform="translate(208.05728090000835,354.0456403667956)" style="font-family: 'Open Sans', verdana, arial, sans-serif; font-size: 12px; fill: rgb(42, 63, 95); fill-opacity: 1; white-space: pre; opacity: 1;">chr3</text></g><g class="angularaxistick"><text text-anchor="end" x="-1.8485295702712" y="14.157828074303758" transform="translate(235.51216164020968,383.28211884412633)" style="font-family: 'Open Sans', verdana, arial, sans-serif; font-size: 12px; fill: rgb(42, 63, 95); fill-opacity: 1; white-space: pre; opacity: 1;">chr4</text></g><g class="angularaxistick"><text text-anchor="end" x="-1.2347599455387095" y="15.270196106316998" transform="translate(269.37531334958845,404.77232839456315)" style="font-family: 'Open Sans', verdana, arial, sans-serif; font-size: 12px; fill: rgb(42, 63, 95); fill-opacity: 1; white-space: pre; opacity: 1;">chr5</text></g><g class="angularaxistick"><text text-anchor="end" x="-0.5434058122986015" y="15.423081557117506" transform="translate(307.5189896662841,417.1659601165902)" style="font-family: 'Open Sans', verdana, arial, sans-serif; font-size: 12px; fill: rgb(42, 63, 95); fill-opacity: 1; white-space: pre; opacity: 1;">chr6</text></g><g class="angularaxistick"><text text-anchor="middle" x="0.18209250663500723" y="15.13431843560436" transform="translate(347.54648312469004,419.6842765485235)" style="font-family: 'Open Sans', verdana, arial, sans-serif; font-size: 12px; fill: rgb(42, 63, 95); fill-opacity: 1; white-space: pre; opacity: 1;">chr7</text></g><g class="angularaxistick"><text text-anchor="start" x="0.896149283687347" y="15.468613469172567" transform="translate(386.94271909999156,412.1690426072246)" style="font-family: 'Open Sans', verdana, arial, sans-serif; font-size: 12px; fill: rgb(42, 63, 95); fill-opacity: 1; white-space: pre; opacity: 1;">chr8</text></g><g class="angularaxistick"><text text-anchor="start" x="1.5538977054390908" y="14.83095862889181" transform="translate(423.2322871966395,395.0924680803224)" style="font-family: 'Open Sans', verdana, arial, sans-serif; font-size: 12px; fill: rgb(42, 63, 95); fill-opacity: 1; white-space: pre; opacity: 1;">chr9</text></g><g class="angularaxistick"><text text-anchor="start" x="2.1140090195220926" y="13.261420113507393" transform="translate(454.1349803874258,369.52753694859024)" style="font-family: 'Open Sans', verdana, arial, sans-serif; font-size: 12px; fill: rgb(42, 63, 95); fill-opacity: 1; white-space: pre; opacity: 1;">chrM</text></g><g class="angularaxistick"><text text-anchor="start" x="2.5412893721272036" y="10.858617800299795" transform="translate(477.70906880701807,337.0805878562746)" style="font-family: 'Open Sans', verdana, arial, sans-serif; font-size: 12px; fill: rgb(42, 63, 95); fill-opacity: 1; white-space: pre; opacity: 1;">chrX</text></g><g class="angularaxistick"><text text-anchor="start" x="2.80889116727303" y="7.773528595496595" transform="translate(492.473305780581,299.79038194637684)" style="font-family: 'Open Sans', verdana, arial, sans-serif; font-size: 12px; fill: rgb(42, 63, 95); fill-opacity: 1; white-space: pre; opacity: 1;">chrY</text></g></g><g class="polarsublayer radial-axis" transform="translate(337.5,260)"><g class="xtick"><text text-anchor="start" x="0" y="14.9" transform=" rotate(90,0,8.9)" style="font-family: 'Open Sans', verdana, arial, sans-serif; font-size: 12px; fill: rgb(42, 63, 95); fill-opacity: 1; white-space: pre; opacity: 1;">0</text></g><g class="xtick"><text text-anchor="start" x="0" y="14.9" transform="translate(18.65,0) rotate(90,0,8.9)" style="font-family: 'Open Sans', verdana, arial, sans-serif; font-size: 12px; fill: rgb(42, 63, 95); fill-opacity: 1; white-space: pre; opacity: 1;">20</text></g><g class="xtick"><text text-anchor="start" x="0" y="14.9" transform="translate(37.3,0) rotate(90,0,8.9)" style="font-family: 'Open Sans', verdana, arial, sans-serif; font-size: 12px; fill: rgb(42, 63, 95); fill-opacity: 1; white-space: pre; opacity: 1;">40</text></g><g class="xtick"><text text-anchor="start" x="0" y="14.9" transform="translate(55.95,0) rotate(90,0,8.9)" style="font-family: 'Open Sans', verdana, arial, sans-serif; font-size: 12px; fill: rgb(42, 63, 95); fill-opacity: 1; white-space: pre; opacity: 1;">60</text></g><g class="xtick"><text text-anchor="start" x="0" y="14.9" transform="translate(74.6,0) rotate(90,0,8.9)" style="font-family: 'Open Sans', verdana, arial, sans-serif; font-size: 12px; fill: rgb(42, 63, 95); fill-opacity: 1; white-space: pre; opacity: 1;">80</text></g><g class="xtick"><text text-anchor="start" x="0" y="14.9" transform="translate(93.25,0) rotate(90,0,8.9)" style="font-family: 'Open Sans', verdana, arial, sans-serif; font-size: 12px; fill: rgb(42, 63, 95); fill-opacity: 1; white-space: pre; opacity: 1;">100</text></g><g class="xtick"><text text-anchor="start" x="0" y="14.9" transform="translate(111.9,0) rotate(90,0,8.9)" style="font-family: 'Open Sans', verdana, arial, sans-serif; font-size: 12px; fill: rgb(42, 63, 95); fill-opacity: 1; white-space: pre; opacity: 1;">120</text></g><g class="xtick"><text text-anchor="start" x="0" y="14.9" transform="translate(130.55,0) rotate(90,0,8.9)" style="font-family: 'Open Sans', verdana, arial, sans-serif; font-size: 12px; fill: rgb(42, 63, 95); fill-opacity: 1; white-space: pre; opacity: 1;">140</text></g><g class="xtick"><text text-anchor="start" x="0" y="14.9" transform="translate(149.2,0) rotate(90,0,8.9)" style="font-family: 'Open Sans', verdana, arial, sans-serif; font-size: 12px; fill: rgb(42, 63, 95); fill-opacity: 1; white-space: pre; opacity: 1;">160</text></g></g></g></g><g class="smithlayer"/><g class="ternarylayer"/><g class="geolayer"/><g class="funnelarealayer"/><g class="pielayer"/><g class="iciclelayer"/><g class="treemaplayer"/><g class="sunburstlayer"/><g class="glimages"/><defs id="topdefs-652b4a"><g class="clips"/><clipPath id="legend652b4a"><rect width="83" height="48" x="0" y="0"/></clipPath></defs><g class="layer-above"><g class="imagelayer"/><g class="shapelayer"/></g><g class="infolayer"><g class="legend" pointer-events="all" transform="translate(605.3,100)"><rect class="bg" shape-rendering="crispEdges" style="stroke: rgb(68, 68, 68); stroke-opacity: 1; fill: rgb(255, 255, 255); fill-opacity: 1; stroke-width: 0px;" width="83" height="48" x="0" y="0"/><g class="scrollbox" transform="" clip-path="url(#legend652b4a)"><g class="groups"><g class="traces" transform="translate(0,14.5)" style="opacity: 1;"><text class="legendtext" text-anchor="start" x="40" y="4.680000000000001" style="font-family: 'Open Sans', verdana, arial, sans-serif; font-size: 12px; fill: rgb(42, 63, 95); fill-opacity: 1; white-space: pre;">Closer</text><g class="layers" style="opacity: 0.8;"><g class="legendfill"/><g class="legendlines"/><g class="legendsymbols"><g class="legendpoints"><path class="legendundefined" d="M6,6H-6V-6H6Z" transform="translate(20,0)" style="stroke-width: 0.5px; fill: rgb(255, 147, 64); fill-opacity: 1; stroke: rgb(0, 0, 0); stroke-opacity: 1;"/></g></g></g><rect class="legendtoggle" x="0" y="-9.5" width="77.703125" height="19" style="fill: rgb(0, 0, 0); fill-opacity: 0;"/></g><g class="traces" transform="translate(0,33.5)" style="opacity: 1;"><text class="legendtext" text-anchor="start" x="40" y="4.680000000000001" style="font-family: 'Open Sans', verdana, arial, sans-serif; font-size: 12px; fill: rgb(42, 63, 95); fill-opacity: 1; white-space: pre;">Both</text><g class="layers" style="opacity: 0.8;"><g class="legendfill"/><g class="legendlines"/><g class="legendsymbols"><g class="legendpoints"><path class="legendundefined" d="M6,6H-6V-6H6Z" transform="translate(20,0)" style="stroke-width: 0.5px; fill: rgb(51, 206, 195); fill-opacity: 1; stroke: rgb(0, 0, 0); stroke-opacity: 1;"/></g></g></g><rect class="legendtoggle" x="0" y="-9.5" width="77.703125" height="19" style="fill: rgb(0, 0, 0); fill-opacity: 0;"/></g></g></g><rect class="scrollbar" rx="20" ry="3" width="0" height="0" style="fill: rgb(128, 139, 164); fill-opacity: 1;" x="0" y="0"/></g><g class="g-gtitle"><text class="gtitle" x="35" y="50" text-anchor="start" dy="0em" style="font-family: 'Open Sans', verdana, arial, sans-serif; font-size: 17px; fill: rgb(42, 63, 95); opacity: 1; font-weight: normal; white-space: pre;">Average dist by Chr using two metrics</text></g><g class="g-polartitle"/></g></svg>