<?xml version="1.0" encoding="utf-8" standalone="no"?>
<!DOCTYPE svg PUBLIC "-//W3C//DTD SVG 1.1//EN"
  "http://www.w3.org/Graphics/SVG/1.1/DTD/svg11.dtd">
<svg xmlns:xlink="http://www.w3.org/1999/xlink" width="432pt" height="360pt" viewBox="0 0 432 360" xmlns="http://www.w3.org/2000/svg" version="1.1">
 <metadata>
  <rdf:RDF xmlns:dc="http://purl.org/dc/elements/1.1/" xmlns:cc="http://creativecommons.org/ns#" xmlns:rdf="http://www.w3.org/1999/02/22-rdf-syntax-ns#">
   <cc:Work>
    <dc:type rdf:resource="http://purl.org/dc/dcmitype/StillImage"/>
    <dc:date>2023-11-22T17:47:48.276164</dc:date>
    <dc:format>image/svg+xml</dc:format>
    <dc:creator>
     <cc:Agent>
      <dc:title>Matplotlib v3.7.4, https://matplotlib.org/</dc:title>
     </cc:Agent>
    </dc:creator>
   </cc:Work>
  </rdf:RDF>
 </metadata>
 <defs>
  <style type="text/css">*{stroke-linejoin: round; stroke-linecap: butt}</style>
 </defs>
 <g id="figure_1">
  <g id="patch_1">
   <path d="M 0 360 
L 432 360 
L 432 0 
L 0 0 
z
" style="fill: #ffffff"/>
  </g>
  <g id="axes_1">
   <g id="patch_2">
    <path d="M 54 320.4 
L 388.8 320.4 
L 388.8 43.2 
L 54 43.2 
z
" style="fill: #ffffff"/>
   </g>
   <g id="PolyCollection_1">
    <path d="M -91274.388347 92.503044 
L -91274.388347 86.296956 
L 91.270305 63.165305 
L 153.016206 52.44 
L 176.145961 56.884296 
L 190.679677 68.234551 
L 201.302797 76.127767 
L 209.679673 81.031911 
L 216.596402 83.961297 
L 222.487245 85.769803 
L 227.617579 86.892406 
L 232.161505 87.652037 
L 236.239432 88.096507 
L 239.938113 88.415232 
L 243.322124 88.651136 
L 246.440834 88.797966 
L 249.332834 88.917942 
L 252.028864 88.997617 
L 254.553804 89.071435 
L 256.928081 89.130783 
L 259.168665 89.172699 
L 261.289815 89.203742 
L 263.30362 89.23056 
L 265.220426 89.258677 
L 267.049147 89.279887 
L 268.797525 89.286618 
L 270.472324 89.292501 
L 272.079488 89.306515 
L 273.624268 89.314521 
L 275.111326 89.319794 
L 276.544821 89.327932 
L 277.928478 89.331148 
L 279.265647 89.33288 
L 280.559349 89.33789 
L 281.812322 89.342273 
L 283.027053 89.344026 
L 284.205807 89.356266 
L 285.350653 89.357386 
L 286.463489 89.360381 
L 287.546055 89.361335 
L 288.599955 89.360545 
L 289.626668 89.36401 
L 290.627561 89.366736 
L 291.603901 89.367997 
L 292.556864 89.364433 
L 293.487544 89.366851 
L 294.396958 89.371093 
L 295.286057 89.371974 
L 296.155729 89.377545 
L 297.006804 89.380826 
L 297.840062 89.379563 
L 298.656232 89.379495 
L 299.456002 89.383386 
L 300.240018 89.38018 
L 301.008888 89.379366 
L 301.763188 89.383985 
L 302.503457 89.387139 
L 303.23021 89.386339 
L 303.943931 89.387776 
L 304.645078 89.386642 
L 305.334088 89.387704 
L 306.011373 89.388746 
L 306.677326 89.388824 
L 307.33232 89.388741 
L 307.976709 89.387864 
L 308.610832 89.392859 
L 309.235011 89.39075 
L 309.849552 89.391511 
L 310.454748 89.391322 
L 311.050881 89.393094 
L 311.638216 89.390388 
L 312.217011 89.394537 
L 312.787509 89.397092 
L 313.349946 89.394712 
L 313.904545 89.394433 
L 314.451523 89.394458 
L 314.991086 89.395462 
L 315.523433 89.394585 
L 316.048753 89.398458 
L 316.56723 89.397869 
L 317.07904 89.39685 
L 317.584353 89.398411 
L 318.08333 89.397634 
L 318.57613 89.396046 
L 319.062902 89.398573 
L 319.543794 89.397146 
L 320.018944 89.399039 
L 320.488489 89.397807 
L 320.95256 89.398656 
L 321.411282 89.398286 
L 321.864778 89.399183 
L 322.313164 89.399595 
L 322.756556 89.399305 
L 323.195063 89.398737 
L 323.628791 89.398957 
L 324.057844 89.399769 
L 324.482321 89.399842 
L 324.902319 89.4 
L 325.317931 89.399892 
L 325.729248 89.398924 
L 326.136359 89.399934 
L 326.136359 89.400066 
L 326.136359 89.400066 
L 325.729248 89.401076 
L 325.317931 89.400108 
L 324.902319 89.4 
L 324.482321 89.400158 
L 324.057844 89.400231 
L 323.628791 89.401043 
L 323.195063 89.401263 
L 322.756556 89.400695 
L 322.313164 89.400405 
L 321.864778 89.400817 
L 321.411282 89.401714 
L 320.95256 89.401344 
L 320.488489 89.402193 
L 320.018944 89.400961 
L 319.543794 89.402854 
L 319.062902 89.401427 
L 318.57613 89.403954 
L 318.08333 89.402366 
L 317.584353 89.401589 
L 317.07904 89.40315 
L 316.56723 89.402131 
L 316.048753 89.401542 
L 315.523433 89.405415 
L 314.991086 89.404538 
L 314.451523 89.405542 
L 313.904545 89.405567 
L 313.349946 89.405288 
L 312.787509 89.402908 
L 312.217011 89.405463 
L 311.638216 89.409612 
L 311.050881 89.406906 
L 310.454748 89.408678 
L 309.849552 89.408489 
L 309.235011 89.40925 
L 308.610832 89.407141 
L 307.976709 89.412136 
L 307.33232 89.411259 
L 306.677326 89.411176 
L 306.011373 89.411254 
L 305.334088 89.412296 
L 304.645078 89.413358 
L 303.943931 89.412224 
L 303.23021 89.413661 
L 302.503457 89.412861 
L 301.763188 89.416015 
L 301.008888 89.420634 
L 300.240018 89.41982 
L 299.456002 89.416614 
L 298.656232 89.420505 
L 297.840062 89.420437 
L 297.006804 89.419174 
L 296.155729 89.422455 
L 295.286057 89.428026 
L 294.396958 89.428907 
L 293.487544 89.433149 
L 292.556864 89.435567 
L 291.603901 89.432003 
L 290.627561 89.433264 
L 289.626668 89.43599 
L 288.599955 89.439455 
L 287.546055 89.438665 
L 286.463489 89.439619 
L 285.350653 89.442614 
L 284.205807 89.443734 
L 283.027053 89.455974 
L 281.812322 89.457727 
L 280.559349 89.46211 
L 279.265647 89.46712 
L 277.928478 89.468852 
L 276.544821 89.472068 
L 275.111326 89.480206 
L 273.624268 89.485479 
L 272.079488 89.493485 
L 270.472324 89.507499 
L 268.797525 89.513382 
L 267.049147 89.520113 
L 265.220426 89.541323 
L 263.30362 89.56944 
L 261.289815 89.596258 
L 259.168665 89.627301 
L 256.928081 89.669217 
L 254.553804 89.728565 
L 252.028864 89.802383 
L 249.332834 89.882058 
L 246.440834 90.002034 
L 243.322124 90.148864 
L 239.938113 90.384768 
L 236.239432 90.703493 
L 232.161505 91.147963 
L 227.617579 91.907594 
L 222.487245 93.030197 
L 216.596402 94.838703 
L 209.679673 97.768089 
L 201.302797 102.672233 
L 190.679677 110.565449 
L 176.145961 121.915704 
L 153.016206 126.36 
L 91.270305 115.634695 
L -91274.388347 92.503044 
z
" clip-path="url(#p41a2791992)" style="fill: #cfdc91; stroke: #616161; stroke-width: 1.25"/>
   </g>
   <g id="PolyCollection_2">
    <path d="M -91274.388347 183.374384 
L -91274.388347 180.225616 
L -91274.388347 170.542769 
L 128.3732 151.780623 
L 198.841776 144.84 
L 222.889468 153.364595 
L 237.773891 163.103423 
L 248.582162 169.072355 
L 257.073479 172.404455 
L 264.067951 174.38448 
L 270.015051 175.689961 
L 275.187983 176.608765 
L 279.765283 177.28052 
L 283.870065 177.808687 
L 287.59082 178.233472 
L 290.993298 178.578351 
L 294.127684 178.87584 
L 297.033159 179.145853 
L 299.740894 179.372495 
L 302.276099 179.55605 
L 304.659448 179.728936 
L 306.90811 179.903107 
L 309.036498 180.039851 
L 311.056826 180.127606 
L 312.97954 180.222355 
L 314.813638 180.329935 
L 316.566931 180.432435 
L 318.246239 180.521001 
L 319.857554 180.601674 
L 321.406169 180.684717 
L 322.89678 180.742069 
L 324.333577 180.788281 
L 325.72031 180.861433 
L 327.060351 180.935881 
L 328.356742 180.981281 
L 329.612237 181.012343 
L 330.829338 181.042602 
L 332.010323 181.066623 
L 333.157274 181.099963 
L 334.272098 181.136973 
L 335.356546 181.156725 
L 336.41223 181.172072 
L 337.440635 181.186187 
L 338.443137 181.194136 
L 339.421007 181.192077 
L 340.375428 181.192391 
L 341.307499 181.225263 
L 342.21824 181.277962 
L 343.108608 181.332085 
L 343.979494 181.381761 
L 344.831732 181.426217 
L 345.666104 181.465564 
L 346.483343 181.503868 
L 347.28414 181.530947 
L 348.069142 181.544905 
L 348.838962 181.563496 
L 349.594174 181.583068 
L 350.335323 181.598356 
L 351.062923 181.609237 
L 351.777461 181.617829 
L 352.479398 181.629169 
L 353.16917 181.643356 
L 353.847191 181.65436 
L 354.513856 181.666045 
L 355.169538 181.681036 
L 355.814593 181.69081 
L 356.449361 181.696576 
L 357.074165 181.703802 
L 357.689312 181.709679 
L 358.295096 181.714973 
L 358.891799 181.720002 
L 359.479688 181.727552 
L 360.05902 181.735534 
L 360.63004 181.742458 
L 361.192984 181.74811 
L 361.748077 181.750998 
L 362.295535 181.757226 
L 362.835565 181.763852 
L 363.368366 181.767222 
L 363.894129 181.768688 
L 364.413038 181.769744 
L 364.925268 181.772758 
L 365.43099 181.778204 
L 365.930367 181.781989 
L 366.423556 181.784173 
L 366.910709 181.785653 
L 367.391971 181.786972 
L 367.867484 181.788829 
L 368.337383 181.791361 
L 368.801799 181.793343 
L 369.260858 181.793745 
L 369.714684 181.793958 
L 370.163393 181.795058 
L 370.6071 181.795583 
L 371.045915 181.79672 
L 371.479945 181.797899 
L 371.909293 181.798224 
L 372.334059 181.798744 
L 372.75434 181.799327 
L 373.170229 181.799743 
L 373.581818 181.799959 
L 373.581818 181.800041 
L 373.581818 181.800041 
L 373.170229 181.800257 
L 372.75434 181.800673 
L 372.334059 181.801256 
L 371.909293 181.801776 
L 371.479945 181.802101 
L 371.045915 181.80328 
L 370.6071 181.804417 
L 370.163393 181.804942 
L 369.714684 181.806042 
L 369.260858 181.806255 
L 368.801799 181.806657 
L 368.337383 181.808639 
L 367.867484 181.811171 
L 367.391971 181.813028 
L 366.910709 181.814347 
L 366.423556 181.815827 
L 365.930367 181.818011 
L 365.43099 181.821796 
L 364.925268 181.827242 
L 364.413038 181.830256 
L 363.894129 181.831312 
L 363.368366 181.832778 
L 362.835565 181.836148 
L 362.295535 181.842774 
L 361.748077 181.849002 
L 361.192984 181.85189 
L 360.63004 181.857542 
L 360.05902 181.864466 
L 359.479688 181.872448 
L 358.891799 181.879998 
L 358.295096 181.885027 
L 357.689312 181.890321 
L 357.074165 181.896198 
L 356.449361 181.903424 
L 355.814593 181.90919 
L 355.169538 181.918964 
L 354.513856 181.933955 
L 353.847191 181.94564 
L 353.16917 181.956644 
L 352.479398 181.970831 
L 351.777461 181.982171 
L 351.062923 181.990763 
L 350.335323 182.001644 
L 349.594174 182.016932 
L 348.838962 182.036504 
L 348.069142 182.055095 
L 347.28414 182.069053 
L 346.483343 182.096132 
L 345.666104 182.134436 
L 344.831732 182.173783 
L 343.979494 182.218239 
L 343.108608 182.267915 
L 342.21824 182.322038 
L 341.307499 182.374737 
L 340.375428 182.407609 
L 339.421007 182.407923 
L 338.443137 182.405864 
L 337.440635 182.413813 
L 336.41223 182.427928 
L 335.356546 182.443275 
L 334.272098 182.463027 
L 333.157274 182.500037 
L 332.010323 182.533377 
L 330.829338 182.557398 
L 329.612237 182.587657 
L 328.356742 182.618719 
L 327.060351 182.664119 
L 325.72031 182.738567 
L 324.333577 182.811719 
L 322.89678 182.857931 
L 321.406169 182.915283 
L 319.857554 182.998326 
L 318.246239 183.078999 
L 316.566931 183.167565 
L 314.813638 183.270065 
L 312.97954 183.377645 
L 311.056826 183.472394 
L 309.036498 183.560149 
L 306.90811 183.696893 
L 304.659448 183.871064 
L 302.276099 184.04395 
L 299.740894 184.227505 
L 297.033159 184.454147 
L 294.127684 184.72416 
L 290.993298 185.021649 
L 287.59082 185.366528 
L 283.870065 185.791313 
L 279.765283 186.31948 
L 275.187983 186.991235 
L 270.015051 187.910039 
L 264.067951 189.21552 
L 257.073479 191.195545 
L 248.582162 194.527645 
L 237.773891 200.496577 
L 222.889468 210.235405 
L 198.841776 218.76 
L 128.3732 211.819377 
L -91274.388347 193.057231 
L -91274.388347 183.374384 
z
" clip-path="url(#p41a2791992)" style="fill: #dfcd94; stroke: #616161; stroke-width: 1.25"/>
   </g>
   <g id="PolyCollection_3">
    <path d="M -91274.388347 274.204635 
L -91274.388347 274.195365 
L 135.705872 272.718878 
L 179.214279 264.419225 
L 199.502423 247.652292 
L 212.875979 237.24 
L 222.868423 239.17616 
L 230.848932 245.901761 
L 237.49347 252.296451 
L 243.185843 257.873672 
L 248.165048 262.031853 
L 252.590051 265.079484 
L 256.571959 267.544302 
L 260.191487 269.209114 
L 263.509128 270.482254 
L 266.571384 271.420528 
L 269.414779 272.072948 
L 272.068522 272.63923 
L 274.556337 272.980134 
L 276.897759 273.320843 
L 279.109063 273.508688 
L 281.203952 273.655687 
L 283.194074 273.75438 
L 285.089411 273.84939 
L 286.898581 273.943468 
L 288.629081 273.992999 
L 290.287468 274.041599 
L 291.879513 274.072112 
L 293.410319 274.095878 
L 294.884424 274.118794 
L 296.305879 274.120774 
L 297.678315 274.140735 
L 299.005002 274.147691 
L 300.28889 274.163717 
L 301.532655 274.158849 
L 302.738729 274.163811 
L 303.90933 274.178781 
L 305.046484 274.17761 
L 306.15205 274.180962 
L 307.227736 274.182483 
L 308.275114 274.184352 
L 309.295635 274.184551 
L 310.290644 274.18133 
L 311.261385 274.189752 
L 312.209012 274.19243 
L 313.134602 274.193431 
L 314.039156 274.19633 
L 314.923608 274.195029 
L 315.788834 274.193739 
L 316.635651 274.19393 
L 317.464826 274.195381 
L 318.27708 274.197682 
L 319.073088 274.196096 
L 319.853489 274.196619 
L 320.618883 274.197552 
L 321.369835 274.198412 
L 322.106881 274.199735 
L 322.830527 274.199534 
L 323.54125 274.199293 
L 324.239505 274.198722 
L 324.925721 274.198402 
L 325.600307 274.199216 
L 326.26365 274.199823 
L 326.916119 274.2 
L 327.558064 274.19979 
L 328.18982 274.199342 
L 328.811705 274.199181 
L 329.424023 274.199185 
L 330.027063 274.199759 
L 330.621103 274.2 
L 331.206407 274.199979 
L 331.783229 274.199395 
L 332.351811 274.2 
L 332.912385 274.2 
L 333.465173 274.2 
L 334.010389 274.2 
L 334.548238 274.2 
L 335.078915 274.2 
L 335.60261 274.2 
L 336.119504 274.199968 
L 336.629771 274.199471 
L 337.133579 274.2 
L 337.63109 274.2 
L 338.122459 274.2 
L 338.607835 274.2 
L 339.087364 274.2 
L 339.561184 274.2 
L 340.029431 274.2 
L 340.492232 274.2 
L 340.949714 274.2 
L 341.401998 274.2 
L 341.8492 274.2 
L 342.291433 274.2 
L 342.728807 274.2 
L 343.161426 274.2 
L 343.589394 274.2 
L 344.012809 274.2 
L 344.431768 274.2 
L 344.846362 274.2 
L 345.256682 274.199705 
L 345.662815 274.199896 
L 345.662815 274.200104 
L 345.662815 274.200104 
L 345.256682 274.200295 
L 344.846362 274.2 
L 344.431768 274.2 
L 344.012809 274.2 
L 343.589394 274.2 
L 343.161426 274.2 
L 342.728807 274.2 
L 342.291433 274.2 
L 341.8492 274.2 
L 341.401998 274.2 
L 340.949714 274.2 
L 340.492232 274.2 
L 340.029431 274.2 
L 339.561184 274.2 
L 339.087364 274.2 
L 338.607835 274.2 
L 338.122459 274.2 
L 337.63109 274.2 
L 337.133579 274.2 
L 336.629771 274.200529 
L 336.119504 274.200032 
L 335.60261 274.2 
L 335.078915 274.2 
L 334.548238 274.2 
L 334.010389 274.2 
L 333.465173 274.2 
L 332.912385 274.2 
L 332.351811 274.2 
L 331.783229 274.200605 
L 331.206407 274.200021 
L 330.621103 274.2 
L 330.027063 274.200241 
L 329.424023 274.200815 
L 328.811705 274.200819 
L 328.18982 274.200658 
L 327.558064 274.20021 
L 326.916119 274.2 
L 326.26365 274.200177 
L 325.600307 274.200784 
L 324.925721 274.201598 
L 324.239505 274.201278 
L 323.54125 274.200707 
L 322.830527 274.200466 
L 322.106881 274.200265 
L 321.369835 274.201588 
L 320.618883 274.202448 
L 319.853489 274.203381 
L 319.073088 274.203904 
L 318.27708 274.202318 
L 317.464826 274.204619 
L 316.635651 274.20607 
L 315.788834 274.206261 
L 314.923608 274.204971 
L 314.039156 274.20367 
L 313.134602 274.206569 
L 312.209012 274.20757 
L 311.261385 274.210248 
L 310.290644 274.21867 
L 309.295635 274.215449 
L 308.275114 274.215648 
L 307.227736 274.217517 
L 306.15205 274.219038 
L 305.046484 274.22239 
L 303.90933 274.221219 
L 302.738729 274.236189 
L 301.532655 274.241151 
L 300.28889 274.236283 
L 299.005002 274.252309 
L 297.678315 274.259265 
L 296.305879 274.279226 
L 294.884424 274.281206 
L 293.410319 274.304122 
L 291.879513 274.327888 
L 290.287468 274.358401 
L 288.629081 274.407001 
L 286.898581 274.456532 
L 285.089411 274.55061 
L 283.194074 274.64562 
L 281.203952 274.744313 
L 279.109063 274.891312 
L 276.897759 275.079157 
L 274.556337 275.419866 
L 272.068522 275.76077 
L 269.414779 276.327052 
L 266.571384 276.979472 
L 263.509128 277.917746 
L 260.191487 279.190886 
L 256.571959 280.855698 
L 252.590051 283.320516 
L 248.165048 286.368147 
L 243.185843 290.526328 
L 237.49347 296.103549 
L 230.848932 302.498239 
L 222.868423 309.22384 
L 212.875979 311.16 
L 199.502423 300.747708 
L 179.214279 283.980775 
L 135.705872 275.681122 
L -91274.388347 274.204635 
z
" clip-path="url(#p41a2791992)" style="fill: #9d85bf; stroke: #616161; stroke-width: 1.25"/>
   </g>
   <g id="matplotlib.axis_1">
    <g id="xtick_1">
     <g id="line2d_1">
      <defs>
       <path id="maed89067c2" d="M 0 0 
L 0 3.5 
" style="stroke: #000000; stroke-width: 0.8"/>
      </defs>
      <g>
       <use xlink:href="#maed89067c2" x="99.09818" y="320.4" style="stroke: #000000; stroke-width: 0.8"/>
      </g>
     </g>
     <g id="text_1">
      <!-- $\mathdefault{10^{-3}}$ -->
      <g transform="translate(87.34818 334.998438) scale(0.1 -0.1)">
       <defs>
        <path id="DejaVuSans-31" d="M 794 531 
L 1825 531 
L 1825 4091 
L 703 3866 
L 703 4441 
L 1819 4666 
L 2450 4666 
L 2450 531 
L 3481 531 
L 3481 0 
L 794 0 
L 794 531 
z
" transform="scale(0.015625)"/>
        <path id="DejaVuSans-30" d="M 2034 4250 
Q 1547 4250 1301 3770 
Q 1056 3291 1056 2328 
Q 1056 1369 1301 889 
Q 1547 409 2034 409 
Q 2525 409 2770 889 
Q 3016 1369 3016 2328 
Q 3016 3291 2770 3770 
Q 2525 4250 2034 4250 
z
M 2034 4750 
Q 2819 4750 3233 4129 
Q 3647 3509 3647 2328 
Q 3647 1150 3233 529 
Q 2819 -91 2034 -91 
Q 1250 -91 836 529 
Q 422 1150 422 2328 
Q 422 3509 836 4129 
Q 1250 4750 2034 4750 
z
" transform="scale(0.015625)"/>
        <path id="DejaVuSans-2212" d="M 678 2272 
L 4684 2272 
L 4684 1741 
L 678 1741 
L 678 2272 
z
" transform="scale(0.015625)"/>
        <path id="DejaVuSans-33" d="M 2597 2516 
Q 3050 2419 3304 2112 
Q 3559 1806 3559 1356 
Q 3559 666 3084 287 
Q 2609 -91 1734 -91 
Q 1441 -91 1130 -33 
Q 819 25 488 141 
L 488 750 
Q 750 597 1062 519 
Q 1375 441 1716 441 
Q 2309 441 2620 675 
Q 2931 909 2931 1356 
Q 2931 1769 2642 2001 
Q 2353 2234 1838 2234 
L 1294 2234 
L 1294 2753 
L 1863 2753 
Q 2328 2753 2575 2939 
Q 2822 3125 2822 3475 
Q 2822 3834 2567 4026 
Q 2313 4219 1838 4219 
Q 1578 4219 1281 4162 
Q 984 4106 628 3988 
L 628 4550 
Q 988 4650 1302 4700 
Q 1616 4750 1894 4750 
Q 2613 4750 3031 4423 
Q 3450 4097 3450 3541 
Q 3450 3153 3228 2886 
Q 3006 2619 2597 2516 
z
" transform="scale(0.015625)"/>
       </defs>
       <use xlink:href="#DejaVuSans-31" transform="translate(0 0.765625)"/>
       <use xlink:href="#DejaVuSans-30" transform="translate(63.623047 0.765625)"/>
       <use xlink:href="#DejaVuSans-2212" transform="translate(128.203125 39.046875) scale(0.7)"/>
       <use xlink:href="#DejaVuSans-33" transform="translate(186.855469 39.046875) scale(0.7)"/>
      </g>
     </g>
    </g>
    <g id="xtick_2">
     <g id="line2d_2">
      <g>
       <use xlink:href="#maed89067c2" x="190.746611" y="320.4" style="stroke: #000000; stroke-width: 0.8"/>
      </g>
     </g>
     <g id="text_2">
      <!-- $\mathdefault{10^{-2}}$ -->
      <g transform="translate(178.996611 334.998438) scale(0.1 -0.1)">
       <defs>
        <path id="DejaVuSans-32" d="M 1228 531 
L 3431 531 
L 3431 0 
L 469 0 
L 469 531 
Q 828 903 1448 1529 
Q 2069 2156 2228 2338 
Q 2531 2678 2651 2914 
Q 2772 3150 2772 3378 
Q 2772 3750 2511 3984 
Q 2250 4219 1831 4219 
Q 1534 4219 1204 4116 
Q 875 4013 500 3803 
L 500 4441 
Q 881 4594 1212 4672 
Q 1544 4750 1819 4750 
Q 2544 4750 2975 4387 
Q 3406 4025 3406 3419 
Q 3406 3131 3298 2873 
Q 3191 2616 2906 2266 
Q 2828 2175 2409 1742 
Q 1991 1309 1228 531 
z
" transform="scale(0.015625)"/>
       </defs>
       <use xlink:href="#DejaVuSans-31" transform="translate(0 0.765625)"/>
       <use xlink:href="#DejaVuSans-30" transform="translate(63.623047 0.765625)"/>
       <use xlink:href="#DejaVuSans-2212" transform="translate(128.203125 39.046875) scale(0.7)"/>
       <use xlink:href="#DejaVuSans-32" transform="translate(186.855469 39.046875) scale(0.7)"/>
      </g>
     </g>
    </g>
    <g id="xtick_3">
     <g id="line2d_3">
      <g>
       <use xlink:href="#maed89067c2" x="282.395043" y="320.4" style="stroke: #000000; stroke-width: 0.8"/>
      </g>
     </g>
     <g id="text_3">
      <!-- $\mathdefault{10^{-1}}$ -->
      <g transform="translate(270.645043 334.998438) scale(0.1 -0.1)">
       <use xlink:href="#DejaVuSans-31" transform="translate(0 0.684375)"/>
       <use xlink:href="#DejaVuSans-30" transform="translate(63.623047 0.684375)"/>
       <use xlink:href="#DejaVuSans-2212" transform="translate(128.203125 38.965625) scale(0.7)"/>
       <use xlink:href="#DejaVuSans-31" transform="translate(186.855469 38.965625) scale(0.7)"/>
      </g>
     </g>
    </g>
    <g id="xtick_4">
     <g id="line2d_4">
      <g>
       <use xlink:href="#maed89067c2" x="374.043475" y="320.4" style="stroke: #000000; stroke-width: 0.8"/>
      </g>
     </g>
     <g id="text_4">
      <!-- $\mathdefault{10^{0}}$ -->
      <g transform="translate(365.243475 334.998438) scale(0.1 -0.1)">
       <use xlink:href="#DejaVuSans-31" transform="translate(0 0.765625)"/>
       <use xlink:href="#DejaVuSans-30" transform="translate(63.623047 0.765625)"/>
       <use xlink:href="#DejaVuSans-30" transform="translate(128.203125 39.046875) scale(0.7)"/>
      </g>
     </g>
    </g>
    <g id="xtick_5">
     <g id="line2d_5">
      <defs>
       <path id="m0133eb535e" d="M 0 0 
L 0 2 
" style="stroke: #000000; stroke-width: 0.6"/>
      </defs>
      <g>
       <use xlink:href="#m0133eb535e" x="62.627602" y="320.4" style="stroke: #000000; stroke-width: 0.6"/>
      </g>
     </g>
    </g>
    <g id="xtick_6">
     <g id="line2d_6">
      <g>
       <use xlink:href="#m0133eb535e" x="71.509253" y="320.4" style="stroke: #000000; stroke-width: 0.6"/>
      </g>
     </g>
    </g>
    <g id="xtick_7">
     <g id="line2d_7">
      <g>
       <use xlink:href="#m0133eb535e" x="78.76609" y="320.4" style="stroke: #000000; stroke-width: 0.6"/>
      </g>
     </g>
    </g>
    <g id="xtick_8">
     <g id="line2d_8">
      <g>
       <use xlink:href="#m0133eb535e" x="84.901658" y="320.4" style="stroke: #000000; stroke-width: 0.6"/>
      </g>
     </g>
    </g>
    <g id="xtick_9">
     <g id="line2d_9">
      <g>
       <use xlink:href="#m0133eb535e" x="90.216529" y="320.4" style="stroke: #000000; stroke-width: 0.6"/>
      </g>
     </g>
    </g>
    <g id="xtick_10">
     <g id="line2d_10">
      <g>
       <use xlink:href="#m0133eb535e" x="94.904577" y="320.4" style="stroke: #000000; stroke-width: 0.6"/>
      </g>
     </g>
    </g>
    <g id="xtick_11">
     <g id="line2d_11">
      <g>
       <use xlink:href="#m0133eb535e" x="126.687107" y="320.4" style="stroke: #000000; stroke-width: 0.6"/>
      </g>
     </g>
    </g>
    <g id="xtick_12">
     <g id="line2d_12">
      <g>
       <use xlink:href="#m0133eb535e" x="142.825594" y="320.4" style="stroke: #000000; stroke-width: 0.6"/>
      </g>
     </g>
    </g>
    <g id="xtick_13">
     <g id="line2d_13">
      <g>
       <use xlink:href="#m0133eb535e" x="154.276034" y="320.4" style="stroke: #000000; stroke-width: 0.6"/>
      </g>
     </g>
    </g>
    <g id="xtick_14">
     <g id="line2d_14">
      <g>
       <use xlink:href="#m0133eb535e" x="163.157684" y="320.4" style="stroke: #000000; stroke-width: 0.6"/>
      </g>
     </g>
    </g>
    <g id="xtick_15">
     <g id="line2d_15">
      <g>
       <use xlink:href="#m0133eb535e" x="170.414521" y="320.4" style="stroke: #000000; stroke-width: 0.6"/>
      </g>
     </g>
    </g>
    <g id="xtick_16">
     <g id="line2d_16">
      <g>
       <use xlink:href="#m0133eb535e" x="176.55009" y="320.4" style="stroke: #000000; stroke-width: 0.6"/>
      </g>
     </g>
    </g>
    <g id="xtick_17">
     <g id="line2d_17">
      <g>
       <use xlink:href="#m0133eb535e" x="181.864961" y="320.4" style="stroke: #000000; stroke-width: 0.6"/>
      </g>
     </g>
    </g>
    <g id="xtick_18">
     <g id="line2d_18">
      <g>
       <use xlink:href="#m0133eb535e" x="186.553009" y="320.4" style="stroke: #000000; stroke-width: 0.6"/>
      </g>
     </g>
    </g>
    <g id="xtick_19">
     <g id="line2d_19">
      <g>
       <use xlink:href="#m0133eb535e" x="218.335539" y="320.4" style="stroke: #000000; stroke-width: 0.6"/>
      </g>
     </g>
    </g>
    <g id="xtick_20">
     <g id="line2d_20">
      <g>
       <use xlink:href="#m0133eb535e" x="234.474026" y="320.4" style="stroke: #000000; stroke-width: 0.6"/>
      </g>
     </g>
    </g>
    <g id="xtick_21">
     <g id="line2d_21">
      <g>
       <use xlink:href="#m0133eb535e" x="245.924466" y="320.4" style="stroke: #000000; stroke-width: 0.6"/>
      </g>
     </g>
    </g>
    <g id="xtick_22">
     <g id="line2d_22">
      <g>
       <use xlink:href="#m0133eb535e" x="254.806116" y="320.4" style="stroke: #000000; stroke-width: 0.6"/>
      </g>
     </g>
    </g>
    <g id="xtick_23">
     <g id="line2d_23">
      <g>
       <use xlink:href="#m0133eb535e" x="262.062953" y="320.4" style="stroke: #000000; stroke-width: 0.6"/>
      </g>
     </g>
    </g>
    <g id="xtick_24">
     <g id="line2d_24">
      <g>
       <use xlink:href="#m0133eb535e" x="268.198522" y="320.4" style="stroke: #000000; stroke-width: 0.6"/>
      </g>
     </g>
    </g>
    <g id="xtick_25">
     <g id="line2d_25">
      <g>
       <use xlink:href="#m0133eb535e" x="273.513393" y="320.4" style="stroke: #000000; stroke-width: 0.6"/>
      </g>
     </g>
    </g>
    <g id="xtick_26">
     <g id="line2d_26">
      <g>
       <use xlink:href="#m0133eb535e" x="278.201441" y="320.4" style="stroke: #000000; stroke-width: 0.6"/>
      </g>
     </g>
    </g>
    <g id="xtick_27">
     <g id="line2d_27">
      <g>
       <use xlink:href="#m0133eb535e" x="309.98397" y="320.4" style="stroke: #000000; stroke-width: 0.6"/>
      </g>
     </g>
    </g>
    <g id="xtick_28">
     <g id="line2d_28">
      <g>
       <use xlink:href="#m0133eb535e" x="326.122458" y="320.4" style="stroke: #000000; stroke-width: 0.6"/>
      </g>
     </g>
    </g>
    <g id="xtick_29">
     <g id="line2d_29">
      <g>
       <use xlink:href="#m0133eb535e" x="337.572897" y="320.4" style="stroke: #000000; stroke-width: 0.6"/>
      </g>
     </g>
    </g>
    <g id="xtick_30">
     <g id="line2d_30">
      <g>
       <use xlink:href="#m0133eb535e" x="346.454548" y="320.4" style="stroke: #000000; stroke-width: 0.6"/>
      </g>
     </g>
    </g>
    <g id="xtick_31">
     <g id="line2d_31">
      <g>
       <use xlink:href="#m0133eb535e" x="353.711385" y="320.4" style="stroke: #000000; stroke-width: 0.6"/>
      </g>
     </g>
    </g>
    <g id="xtick_32">
     <g id="line2d_32">
      <g>
       <use xlink:href="#m0133eb535e" x="359.846953" y="320.4" style="stroke: #000000; stroke-width: 0.6"/>
      </g>
     </g>
    </g>
    <g id="xtick_33">
     <g id="line2d_33">
      <g>
       <use xlink:href="#m0133eb535e" x="365.161824" y="320.4" style="stroke: #000000; stroke-width: 0.6"/>
      </g>
     </g>
    </g>
    <g id="xtick_34">
     <g id="line2d_34">
      <g>
       <use xlink:href="#m0133eb535e" x="369.849873" y="320.4" style="stroke: #000000; stroke-width: 0.6"/>
      </g>
     </g>
    </g>
    <g id="text_5">
     <!-- Penalty -->
     <g transform="translate(202.948438 348.676562) scale(0.1 -0.1)">
      <defs>
       <path id="DejaVuSans-50" d="M 1259 4147 
L 1259 2394 
L 2053 2394 
Q 2494 2394 2734 2622 
Q 2975 2850 2975 3272 
Q 2975 3691 2734 3919 
Q 2494 4147 2053 4147 
L 1259 4147 
z
M 628 4666 
L 2053 4666 
Q 2838 4666 3239 4311 
Q 3641 3956 3641 3272 
Q 3641 2581 3239 2228 
Q 2838 1875 2053 1875 
L 1259 1875 
L 1259 0 
L 628 0 
L 628 4666 
z
" transform="scale(0.015625)"/>
       <path id="DejaVuSans-65" d="M 3597 1894 
L 3597 1613 
L 953 1613 
Q 991 1019 1311 708 
Q 1631 397 2203 397 
Q 2534 397 2845 478 
Q 3156 559 3463 722 
L 3463 178 
Q 3153 47 2828 -22 
Q 2503 -91 2169 -91 
Q 1331 -91 842 396 
Q 353 884 353 1716 
Q 353 2575 817 3079 
Q 1281 3584 2069 3584 
Q 2775 3584 3186 3129 
Q 3597 2675 3597 1894 
z
M 3022 2063 
Q 3016 2534 2758 2815 
Q 2500 3097 2075 3097 
Q 1594 3097 1305 2825 
Q 1016 2553 972 2059 
L 3022 2063 
z
" transform="scale(0.015625)"/>
       <path id="DejaVuSans-6e" d="M 3513 2113 
L 3513 0 
L 2938 0 
L 2938 2094 
Q 2938 2591 2744 2837 
Q 2550 3084 2163 3084 
Q 1697 3084 1428 2787 
Q 1159 2491 1159 1978 
L 1159 0 
L 581 0 
L 581 3500 
L 1159 3500 
L 1159 2956 
Q 1366 3272 1645 3428 
Q 1925 3584 2291 3584 
Q 2894 3584 3203 3211 
Q 3513 2838 3513 2113 
z
" transform="scale(0.015625)"/>
       <path id="DejaVuSans-61" d="M 2194 1759 
Q 1497 1759 1228 1600 
Q 959 1441 959 1056 
Q 959 750 1161 570 
Q 1363 391 1709 391 
Q 2188 391 2477 730 
Q 2766 1069 2766 1631 
L 2766 1759 
L 2194 1759 
z
M 3341 1997 
L 3341 0 
L 2766 0 
L 2766 531 
Q 2569 213 2275 61 
Q 1981 -91 1556 -91 
Q 1019 -91 701 211 
Q 384 513 384 1019 
Q 384 1609 779 1909 
Q 1175 2209 1959 2209 
L 2766 2209 
L 2766 2266 
Q 2766 2663 2505 2880 
Q 2244 3097 1772 3097 
Q 1472 3097 1187 3025 
Q 903 2953 641 2809 
L 641 3341 
Q 956 3463 1253 3523 
Q 1550 3584 1831 3584 
Q 2591 3584 2966 3190 
Q 3341 2797 3341 1997 
z
" transform="scale(0.015625)"/>
       <path id="DejaVuSans-6c" d="M 603 4863 
L 1178 4863 
L 1178 0 
L 603 0 
L 603 4863 
z
" transform="scale(0.015625)"/>
       <path id="DejaVuSans-74" d="M 1172 4494 
L 1172 3500 
L 2356 3500 
L 2356 3053 
L 1172 3053 
L 1172 1153 
Q 1172 725 1289 603 
Q 1406 481 1766 481 
L 2356 481 
L 2356 0 
L 1766 0 
Q 1100 0 847 248 
Q 594 497 594 1153 
L 594 3053 
L 172 3053 
L 172 3500 
L 594 3500 
L 594 4494 
L 1172 4494 
z
" transform="scale(0.015625)"/>
       <path id="DejaVuSans-79" d="M 2059 -325 
Q 1816 -950 1584 -1140 
Q 1353 -1331 966 -1331 
L 506 -1331 
L 506 -850 
L 844 -850 
Q 1081 -850 1212 -737 
Q 1344 -625 1503 -206 
L 1606 56 
L 191 3500 
L 800 3500 
L 1894 763 
L 2988 3500 
L 3597 3500 
L 2059 -325 
z
" transform="scale(0.015625)"/>
      </defs>
      <use xlink:href="#DejaVuSans-50"/>
      <use xlink:href="#DejaVuSans-65" x="56.677734"/>
      <use xlink:href="#DejaVuSans-6e" x="118.201172"/>
      <use xlink:href="#DejaVuSans-61" x="181.580078"/>
      <use xlink:href="#DejaVuSans-6c" x="242.859375"/>
      <use xlink:href="#DejaVuSans-74" x="270.642578"/>
      <use xlink:href="#DejaVuSans-79" x="309.851562"/>
     </g>
    </g>
   </g>
   <g id="matplotlib.axis_2">
    <g id="ytick_1">
     <g id="line2d_35">
      <defs>
       <path id="m2e314e91f2" d="M 0 0 
L -3.5 0 
" style="stroke: #000000; stroke-width: 0.8"/>
      </defs>
      <g>
       <use xlink:href="#m2e314e91f2" x="54" y="89.4" style="stroke: #000000; stroke-width: 0.8"/>
      </g>
     </g>
     <g id="text_6">
      <!-- Overlap -->
      <g transform="translate(7.690625 93.199219) scale(0.1 -0.1)">
       <defs>
        <path id="DejaVuSans-4f" d="M 2522 4238 
Q 1834 4238 1429 3725 
Q 1025 3213 1025 2328 
Q 1025 1447 1429 934 
Q 1834 422 2522 422 
Q 3209 422 3611 934 
Q 4013 1447 4013 2328 
Q 4013 3213 3611 3725 
Q 3209 4238 2522 4238 
z
M 2522 4750 
Q 3503 4750 4090 4092 
Q 4678 3434 4678 2328 
Q 4678 1225 4090 567 
Q 3503 -91 2522 -91 
Q 1538 -91 948 565 
Q 359 1222 359 2328 
Q 359 3434 948 4092 
Q 1538 4750 2522 4750 
z
" transform="scale(0.015625)"/>
        <path id="DejaVuSans-76" d="M 191 3500 
L 800 3500 
L 1894 563 
L 2988 3500 
L 3597 3500 
L 2284 0 
L 1503 0 
L 191 3500 
z
" transform="scale(0.015625)"/>
        <path id="DejaVuSans-72" d="M 2631 2963 
Q 2534 3019 2420 3045 
Q 2306 3072 2169 3072 
Q 1681 3072 1420 2755 
Q 1159 2438 1159 1844 
L 1159 0 
L 581 0 
L 581 3500 
L 1159 3500 
L 1159 2956 
Q 1341 3275 1631 3429 
Q 1922 3584 2338 3584 
Q 2397 3584 2469 3576 
Q 2541 3569 2628 3553 
L 2631 2963 
z
" transform="scale(0.015625)"/>
        <path id="DejaVuSans-70" d="M 1159 525 
L 1159 -1331 
L 581 -1331 
L 581 3500 
L 1159 3500 
L 1159 2969 
Q 1341 3281 1617 3432 
Q 1894 3584 2278 3584 
Q 2916 3584 3314 3078 
Q 3713 2572 3713 1747 
Q 3713 922 3314 415 
Q 2916 -91 2278 -91 
Q 1894 -91 1617 61 
Q 1341 213 1159 525 
z
M 3116 1747 
Q 3116 2381 2855 2742 
Q 2594 3103 2138 3103 
Q 1681 3103 1420 2742 
Q 1159 2381 1159 1747 
Q 1159 1113 1420 752 
Q 1681 391 2138 391 
Q 2594 391 2855 752 
Q 3116 1113 3116 1747 
z
" transform="scale(0.015625)"/>
       </defs>
       <use xlink:href="#DejaVuSans-4f"/>
       <use xlink:href="#DejaVuSans-76" x="78.710938"/>
       <use xlink:href="#DejaVuSans-65" x="137.890625"/>
       <use xlink:href="#DejaVuSans-72" x="199.414062"/>
       <use xlink:href="#DejaVuSans-6c" x="240.527344"/>
       <use xlink:href="#DejaVuSans-61" x="268.310547"/>
       <use xlink:href="#DejaVuSans-70" x="329.589844"/>
      </g>
     </g>
    </g>
    <g id="ytick_2">
     <g id="line2d_36">
      <g>
       <use xlink:href="#m2e314e91f2" x="54" y="181.8" style="stroke: #000000; stroke-width: 0.8"/>
      </g>
     </g>
     <g id="text_7">
      <!-- Gap -->
      <g transform="translate(26.775 185.599219) scale(0.1 -0.1)">
       <defs>
        <path id="DejaVuSans-47" d="M 3809 666 
L 3809 1919 
L 2778 1919 
L 2778 2438 
L 4434 2438 
L 4434 434 
Q 4069 175 3628 42 
Q 3188 -91 2688 -91 
Q 1594 -91 976 548 
Q 359 1188 359 2328 
Q 359 3472 976 4111 
Q 1594 4750 2688 4750 
Q 3144 4750 3555 4637 
Q 3966 4525 4313 4306 
L 4313 3634 
Q 3963 3931 3569 4081 
Q 3175 4231 2741 4231 
Q 1884 4231 1454 3753 
Q 1025 3275 1025 2328 
Q 1025 1384 1454 906 
Q 1884 428 2741 428 
Q 3075 428 3337 486 
Q 3600 544 3809 666 
z
" transform="scale(0.015625)"/>
       </defs>
       <use xlink:href="#DejaVuSans-47"/>
       <use xlink:href="#DejaVuSans-61" x="77.490234"/>
       <use xlink:href="#DejaVuSans-70" x="138.769531"/>
      </g>
     </g>
    </g>
    <g id="ytick_3">
     <g id="line2d_37">
      <g>
       <use xlink:href="#m2e314e91f2" x="54" y="274.2" style="stroke: #000000; stroke-width: 0.8"/>
      </g>
     </g>
     <g id="text_8">
      <!-- Indel/Mismatch -->
      <g transform="translate(-29.176563 277.999219) scale(0.1 -0.1)">
       <defs>
        <path id="DejaVuSans-49" d="M 628 4666 
L 1259 4666 
L 1259 0 
L 628 0 
L 628 4666 
z
" transform="scale(0.015625)"/>
        <path id="DejaVuSans-64" d="M 2906 2969 
L 2906 4863 
L 3481 4863 
L 3481 0 
L 2906 0 
L 2906 525 
Q 2725 213 2448 61 
Q 2172 -91 1784 -91 
Q 1150 -91 751 415 
Q 353 922 353 1747 
Q 353 2572 751 3078 
Q 1150 3584 1784 3584 
Q 2172 3584 2448 3432 
Q 2725 3281 2906 2969 
z
M 947 1747 
Q 947 1113 1208 752 
Q 1469 391 1925 391 
Q 2381 391 2643 752 
Q 2906 1113 2906 1747 
Q 2906 2381 2643 2742 
Q 2381 3103 1925 3103 
Q 1469 3103 1208 2742 
Q 947 2381 947 1747 
z
" transform="scale(0.015625)"/>
        <path id="DejaVuSans-2f" d="M 1625 4666 
L 2156 4666 
L 531 -594 
L 0 -594 
L 1625 4666 
z
" transform="scale(0.015625)"/>
        <path id="DejaVuSans-4d" d="M 628 4666 
L 1569 4666 
L 2759 1491 
L 3956 4666 
L 4897 4666 
L 4897 0 
L 4281 0 
L 4281 4097 
L 3078 897 
L 2444 897 
L 1241 4097 
L 1241 0 
L 628 0 
L 628 4666 
z
" transform="scale(0.015625)"/>
        <path id="DejaVuSans-69" d="M 603 3500 
L 1178 3500 
L 1178 0 
L 603 0 
L 603 3500 
z
M 603 4863 
L 1178 4863 
L 1178 4134 
L 603 4134 
L 603 4863 
z
" transform="scale(0.015625)"/>
        <path id="DejaVuSans-73" d="M 2834 3397 
L 2834 2853 
Q 2591 2978 2328 3040 
Q 2066 3103 1784 3103 
Q 1356 3103 1142 2972 
Q 928 2841 928 2578 
Q 928 2378 1081 2264 
Q 1234 2150 1697 2047 
L 1894 2003 
Q 2506 1872 2764 1633 
Q 3022 1394 3022 966 
Q 3022 478 2636 193 
Q 2250 -91 1575 -91 
Q 1294 -91 989 -36 
Q 684 19 347 128 
L 347 722 
Q 666 556 975 473 
Q 1284 391 1588 391 
Q 1994 391 2212 530 
Q 2431 669 2431 922 
Q 2431 1156 2273 1281 
Q 2116 1406 1581 1522 
L 1381 1569 
Q 847 1681 609 1914 
Q 372 2147 372 2553 
Q 372 3047 722 3315 
Q 1072 3584 1716 3584 
Q 2034 3584 2315 3537 
Q 2597 3491 2834 3397 
z
" transform="scale(0.015625)"/>
        <path id="DejaVuSans-6d" d="M 3328 2828 
Q 3544 3216 3844 3400 
Q 4144 3584 4550 3584 
Q 5097 3584 5394 3201 
Q 5691 2819 5691 2113 
L 5691 0 
L 5113 0 
L 5113 2094 
Q 5113 2597 4934 2840 
Q 4756 3084 4391 3084 
Q 3944 3084 3684 2787 
Q 3425 2491 3425 1978 
L 3425 0 
L 2847 0 
L 2847 2094 
Q 2847 2600 2669 2842 
Q 2491 3084 2119 3084 
Q 1678 3084 1418 2786 
Q 1159 2488 1159 1978 
L 1159 0 
L 581 0 
L 581 3500 
L 1159 3500 
L 1159 2956 
Q 1356 3278 1631 3431 
Q 1906 3584 2284 3584 
Q 2666 3584 2933 3390 
Q 3200 3197 3328 2828 
z
" transform="scale(0.015625)"/>
        <path id="DejaVuSans-63" d="M 3122 3366 
L 3122 2828 
Q 2878 2963 2633 3030 
Q 2388 3097 2138 3097 
Q 1578 3097 1268 2742 
Q 959 2388 959 1747 
Q 959 1106 1268 751 
Q 1578 397 2138 397 
Q 2388 397 2633 464 
Q 2878 531 3122 666 
L 3122 134 
Q 2881 22 2623 -34 
Q 2366 -91 2075 -91 
Q 1284 -91 818 406 
Q 353 903 353 1747 
Q 353 2603 823 3093 
Q 1294 3584 2113 3584 
Q 2378 3584 2631 3529 
Q 2884 3475 3122 3366 
z
" transform="scale(0.015625)"/>
        <path id="DejaVuSans-68" d="M 3513 2113 
L 3513 0 
L 2938 0 
L 2938 2094 
Q 2938 2591 2744 2837 
Q 2550 3084 2163 3084 
Q 1697 3084 1428 2787 
Q 1159 2491 1159 1978 
L 1159 0 
L 581 0 
L 581 4863 
L 1159 4863 
L 1159 2956 
Q 1366 3272 1645 3428 
Q 1925 3584 2291 3584 
Q 2894 3584 3203 3211 
Q 3513 2838 3513 2113 
z
" transform="scale(0.015625)"/>
       </defs>
       <use xlink:href="#DejaVuSans-49"/>
       <use xlink:href="#DejaVuSans-6e" x="29.492188"/>
       <use xlink:href="#DejaVuSans-64" x="92.871094"/>
       <use xlink:href="#DejaVuSans-65" x="156.347656"/>
       <use xlink:href="#DejaVuSans-6c" x="217.871094"/>
       <use xlink:href="#DejaVuSans-2f" x="245.654297"/>
       <use xlink:href="#DejaVuSans-4d" x="279.345703"/>
       <use xlink:href="#DejaVuSans-69" x="365.625"/>
       <use xlink:href="#DejaVuSans-73" x="393.408203"/>
       <use xlink:href="#DejaVuSans-6d" x="445.507812"/>
       <use xlink:href="#DejaVuSans-61" x="542.919922"/>
       <use xlink:href="#DejaVuSans-74" x="604.199219"/>
       <use xlink:href="#DejaVuSans-63" x="643.408203"/>
       <use xlink:href="#DejaVuSans-68" x="698.388672"/>
      </g>
     </g>
    </g>
    <g id="text_9">
     <!-- Type -->
     <g transform="translate(-35.25625 193.282812) rotate(-90) scale(0.1 -0.1)">
      <defs>
       <path id="DejaVuSans-54" d="M -19 4666 
L 3928 4666 
L 3928 4134 
L 2272 4134 
L 2272 0 
L 1638 0 
L 1638 4134 
L -19 4134 
L -19 4666 
z
" transform="scale(0.015625)"/>
      </defs>
      <use xlink:href="#DejaVuSans-54"/>
      <use xlink:href="#DejaVuSans-79" x="45.458984"/>
      <use xlink:href="#DejaVuSans-70" x="104.638672"/>
      <use xlink:href="#DejaVuSans-65" x="168.115234"/>
     </g>
    </g>
   </g>
   <g id="line2d_38">
    <path d="M -1 89.4 
L 226.388568 89.4 
" clip-path="url(#p41a2791992)" style="fill: none; stroke: #616161; stroke-width: 1.875; stroke-linecap: square"/>
   </g>
   <g id="line2d_39">
    <path d="M 147.553465 89.4 
L 197.405419 89.4 
" clip-path="url(#p41a2791992)" style="fill: none; stroke: #616161; stroke-width: 5.625; stroke-linecap: square"/>
   </g>
   <g id="line2d_40">
    <path d="M 174.396408 89.4 
" clip-path="url(#p41a2791992)" style="fill: none; stroke: #616161; stroke-width: 1.5; stroke-linecap: square"/>
    <defs>
     <path id="mce721f8786" d="M 0 2.34375 
L 0 -2.34375 
" style="stroke: #ffffff; stroke-width: 1.125"/>
    </defs>
    <g clip-path="url(#p41a2791992)">
     <use xlink:href="#mce721f8786" x="174.396408" y="89.4" style="fill: #ffffff; stroke: #ffffff; stroke-width: 1.125"/>
    </g>
   </g>
   <g id="line2d_41">
    <path d="M -1 181.8 
L 313.561497 181.8 
" clip-path="url(#p41a2791992)" style="fill: none; stroke: #616161; stroke-width: 1.875; stroke-linecap: square"/>
   </g>
   <g id="line2d_42">
    <path d="M 192.316182 181.8 
L 279.832724 181.8 
" clip-path="url(#p41a2791992)" style="fill: none; stroke: #616161; stroke-width: 5.625; stroke-linecap: square"/>
   </g>
   <g id="line2d_43">
    <path d="M 232.217415 181.8 
" clip-path="url(#p41a2791992)" style="fill: none; stroke: #616161; stroke-width: 1.5; stroke-linecap: square"/>
    <g clip-path="url(#p41a2791992)">
     <use xlink:href="#mce721f8786" x="232.217415" y="181.8" style="fill: #ffffff; stroke: #ffffff; stroke-width: 1.125"/>
    </g>
   </g>
   <g id="line2d_44">
    <path d="M 69.218182 274.2 
L 266.514177 274.2 
" clip-path="url(#p41a2791992)" style="fill: none; stroke: #616161; stroke-width: 1.875; stroke-linecap: square"/>
   </g>
   <g id="line2d_45">
    <path d="M 213.010503 274.2 
L 243.183292 274.2 
" clip-path="url(#p41a2791992)" style="fill: none; stroke: #616161; stroke-width: 5.625; stroke-linecap: square"/>
   </g>
   <g id="line2d_46">
    <path d="M 227.733126 274.2 
" clip-path="url(#p41a2791992)" style="fill: none; stroke: #616161; stroke-width: 1.5; stroke-linecap: square"/>
    <g clip-path="url(#p41a2791992)">
     <use xlink:href="#mce721f8786" x="227.733126" y="274.2" style="fill: #ffffff; stroke: #ffffff; stroke-width: 1.125"/>
    </g>
   </g>
   <g id="patch_3">
    <path d="M 54 320.4 
L 54 43.2 
" style="fill: none; stroke: #000000; stroke-width: 0.8; stroke-linejoin: miter; stroke-linecap: square"/>
   </g>
   <g id="patch_4">
    <path d="M 388.8 320.4 
L 388.8 43.2 
" style="fill: none; stroke: #000000; stroke-width: 0.8; stroke-linejoin: miter; stroke-linecap: square"/>
   </g>
   <g id="patch_5">
    <path d="M 54 320.4 
L 388.8 320.4 
" style="fill: none; stroke: #000000; stroke-width: 0.8; stroke-linejoin: miter; stroke-linecap: square"/>
   </g>
   <g id="patch_6">
    <path d="M 54 43.2 
L 388.8 43.2 
" style="fill: none; stroke: #000000; stroke-width: 0.8; stroke-linejoin: miter; stroke-linecap: square"/>
   </g>
   <g id="text_10">
    <!-- Distribution of normalized penalties (violin plot) -->
    <g transform="translate(78.04875 37.2) scale(0.12 -0.12)">
     <defs>
      <path id="DejaVuSans-44" d="M 1259 4147 
L 1259 519 
L 2022 519 
Q 2988 519 3436 956 
Q 3884 1394 3884 2338 
Q 3884 3275 3436 3711 
Q 2988 4147 2022 4147 
L 1259 4147 
z
M 628 4666 
L 1925 4666 
Q 3281 4666 3915 4102 
Q 4550 3538 4550 2338 
Q 4550 1131 3912 565 
Q 3275 0 1925 0 
L 628 0 
L 628 4666 
z
" transform="scale(0.015625)"/>
      <path id="DejaVuSans-62" d="M 3116 1747 
Q 3116 2381 2855 2742 
Q 2594 3103 2138 3103 
Q 1681 3103 1420 2742 
Q 1159 2381 1159 1747 
Q 1159 1113 1420 752 
Q 1681 391 2138 391 
Q 2594 391 2855 752 
Q 3116 1113 3116 1747 
z
M 1159 2969 
Q 1341 3281 1617 3432 
Q 1894 3584 2278 3584 
Q 2916 3584 3314 3078 
Q 3713 2572 3713 1747 
Q 3713 922 3314 415 
Q 2916 -91 2278 -91 
Q 1894 -91 1617 61 
Q 1341 213 1159 525 
L 1159 0 
L 581 0 
L 581 4863 
L 1159 4863 
L 1159 2969 
z
" transform="scale(0.015625)"/>
      <path id="DejaVuSans-75" d="M 544 1381 
L 544 3500 
L 1119 3500 
L 1119 1403 
Q 1119 906 1312 657 
Q 1506 409 1894 409 
Q 2359 409 2629 706 
Q 2900 1003 2900 1516 
L 2900 3500 
L 3475 3500 
L 3475 0 
L 2900 0 
L 2900 538 
Q 2691 219 2414 64 
Q 2138 -91 1772 -91 
Q 1169 -91 856 284 
Q 544 659 544 1381 
z
M 1991 3584 
L 1991 3584 
z
" transform="scale(0.015625)"/>
      <path id="DejaVuSans-6f" d="M 1959 3097 
Q 1497 3097 1228 2736 
Q 959 2375 959 1747 
Q 959 1119 1226 758 
Q 1494 397 1959 397 
Q 2419 397 2687 759 
Q 2956 1122 2956 1747 
Q 2956 2369 2687 2733 
Q 2419 3097 1959 3097 
z
M 1959 3584 
Q 2709 3584 3137 3096 
Q 3566 2609 3566 1747 
Q 3566 888 3137 398 
Q 2709 -91 1959 -91 
Q 1206 -91 779 398 
Q 353 888 353 1747 
Q 353 2609 779 3096 
Q 1206 3584 1959 3584 
z
" transform="scale(0.015625)"/>
      <path id="DejaVuSans-20" transform="scale(0.015625)"/>
      <path id="DejaVuSans-66" d="M 2375 4863 
L 2375 4384 
L 1825 4384 
Q 1516 4384 1395 4259 
Q 1275 4134 1275 3809 
L 1275 3500 
L 2222 3500 
L 2222 3053 
L 1275 3053 
L 1275 0 
L 697 0 
L 697 3053 
L 147 3053 
L 147 3500 
L 697 3500 
L 697 3744 
Q 697 4328 969 4595 
Q 1241 4863 1831 4863 
L 2375 4863 
z
" transform="scale(0.015625)"/>
      <path id="DejaVuSans-7a" d="M 353 3500 
L 3084 3500 
L 3084 2975 
L 922 459 
L 3084 459 
L 3084 0 
L 275 0 
L 275 525 
L 2438 3041 
L 353 3041 
L 353 3500 
z
" transform="scale(0.015625)"/>
      <path id="DejaVuSans-28" d="M 1984 4856 
Q 1566 4138 1362 3434 
Q 1159 2731 1159 2009 
Q 1159 1288 1364 580 
Q 1569 -128 1984 -844 
L 1484 -844 
Q 1016 -109 783 600 
Q 550 1309 550 2009 
Q 550 2706 781 3412 
Q 1013 4119 1484 4856 
L 1984 4856 
z
" transform="scale(0.015625)"/>
      <path id="DejaVuSans-29" d="M 513 4856 
L 1013 4856 
Q 1481 4119 1714 3412 
Q 1947 2706 1947 2009 
Q 1947 1309 1714 600 
Q 1481 -109 1013 -844 
L 513 -844 
Q 928 -128 1133 580 
Q 1338 1288 1338 2009 
Q 1338 2731 1133 3434 
Q 928 4138 513 4856 
z
" transform="scale(0.015625)"/>
     </defs>
     <use xlink:href="#DejaVuSans-44"/>
     <use xlink:href="#DejaVuSans-69" x="77.001953"/>
     <use xlink:href="#DejaVuSans-73" x="104.785156"/>
     <use xlink:href="#DejaVuSans-74" x="156.884766"/>
     <use xlink:href="#DejaVuSans-72" x="196.09375"/>
     <use xlink:href="#DejaVuSans-69" x="237.207031"/>
     <use xlink:href="#DejaVuSans-62" x="264.990234"/>
     <use xlink:href="#DejaVuSans-75" x="328.466797"/>
     <use xlink:href="#DejaVuSans-74" x="391.845703"/>
     <use xlink:href="#DejaVuSans-69" x="431.054688"/>
     <use xlink:href="#DejaVuSans-6f" x="458.837891"/>
     <use xlink:href="#DejaVuSans-6e" x="520.019531"/>
     <use xlink:href="#DejaVuSans-20" x="583.398438"/>
     <use xlink:href="#DejaVuSans-6f" x="615.185547"/>
     <use xlink:href="#DejaVuSans-66" x="676.367188"/>
     <use xlink:href="#DejaVuSans-20" x="711.572266"/>
     <use xlink:href="#DejaVuSans-6e" x="743.359375"/>
     <use xlink:href="#DejaVuSans-6f" x="806.738281"/>
     <use xlink:href="#DejaVuSans-72" x="867.919922"/>
     <use xlink:href="#DejaVuSans-6d" x="907.283203"/>
     <use xlink:href="#DejaVuSans-61" x="1004.695312"/>
     <use xlink:href="#DejaVuSans-6c" x="1065.974609"/>
     <use xlink:href="#DejaVuSans-69" x="1093.757812"/>
     <use xlink:href="#DejaVuSans-7a" x="1121.541016"/>
     <use xlink:href="#DejaVuSans-65" x="1174.03125"/>
     <use xlink:href="#DejaVuSans-64" x="1235.554688"/>
     <use xlink:href="#DejaVuSans-20" x="1299.03125"/>
     <use xlink:href="#DejaVuSans-70" x="1330.818359"/>
     <use xlink:href="#DejaVuSans-65" x="1394.294922"/>
     <use xlink:href="#DejaVuSans-6e" x="1455.818359"/>
     <use xlink:href="#DejaVuSans-61" x="1519.197266"/>
     <use xlink:href="#DejaVuSans-6c" x="1580.476562"/>
     <use xlink:href="#DejaVuSans-74" x="1608.259766"/>
     <use xlink:href="#DejaVuSans-69" x="1647.46875"/>
     <use xlink:href="#DejaVuSans-65" x="1675.251953"/>
     <use xlink:href="#DejaVuSans-73" x="1736.775391"/>
     <use xlink:href="#DejaVuSans-20" x="1788.875"/>
     <use xlink:href="#DejaVuSans-28" x="1820.662109"/>
     <use xlink:href="#DejaVuSans-76" x="1859.675781"/>
     <use xlink:href="#DejaVuSans-69" x="1918.855469"/>
     <use xlink:href="#DejaVuSans-6f" x="1946.638672"/>
     <use xlink:href="#DejaVuSans-6c" x="2007.820312"/>
     <use xlink:href="#DejaVuSans-69" x="2035.603516"/>
     <use xlink:href="#DejaVuSans-6e" x="2063.386719"/>
     <use xlink:href="#DejaVuSans-20" x="2126.765625"/>
     <use xlink:href="#DejaVuSans-70" x="2158.552734"/>
     <use xlink:href="#DejaVuSans-6c" x="2222.029297"/>
     <use xlink:href="#DejaVuSans-6f" x="2249.8125"/>
     <use xlink:href="#DejaVuSans-74" x="2310.994141"/>
     <use xlink:href="#DejaVuSans-29" x="2350.203125"/>
    </g>
   </g>
  </g>
 </g>
 <defs>
  <clipPath id="p41a2791992">
   <rect x="54" y="43.2" width="334.8" height="277.2"/>
  </clipPath>
 </defs>
</svg>
