<?xml version="1.0" encoding="UTF-8"?>
<svg id="_图层_1" data-name="图层 1" xmlns="http://www.w3.org/2000/svg" xmlns:xlink="http://www.w3.org/1999/xlink" viewBox="0 0 2707.13 1731.54">
  <defs>
    <style>
      .cls-1 {
        fill: #bfcedf;
      }

      .cls-1, .cls-2, .cls-3, .cls-4, .cls-5 {
        stroke: #000;
        stroke-miterlimit: 10;
        stroke-width: 6px;
      }

      .cls-6, .cls-7 {
        font-size: 64px;
      }

      .cls-6, .cls-7, .cls-8 {
        font-family: ArialMT, Arial;
      }

      .cls-2, .cls-9 {
        fill: #fff;
      }

      .cls-10, .cls-11, .cls-12, .cls-9, .cls-13 {
        stroke-width: 0px;
      }

      .cls-10, .cls-3 {
        fill: #00206a;
      }

      .cls-7, .cls-8 {
        isolation: isolate;
      }

      .cls-11 {
        fill: #cad7e5;
      }

      .cls-14 {
        stroke: #d9d9d9;
        stroke-linejoin: round;
        stroke-width: 3.44px;
      }

      .cls-14, .cls-5, .cls-12 {
        fill: none;
      }

      .cls-4 {
        fill: #181618;
      }

      .cls-15 {
        clip-path: url(#clippath);
      }

      .cls-13 {
        fill: #1f1d20;
      }

      .cls-8 {
        font-size: 41px;
      }
    </style>
    <clipPath id="clippath">
      <rect class="cls-12" x="88.89" y="0" width="2342.72" height="938"/>
    </clipPath>
  </defs>
  <g class="cls-15">
    <g>
      <rect class="cls-9" x="97.03" y="1.5" width="1128" height="927"/>
      <path class="cls-14" d="m257.53,878h917m-917-70.96h917m-917-70.01h917m-917-71h917m-917-71h917m-917-70h917m-917-71h917m-917-70h917m-917-71h917m-917-71h917m-917-70.02h917"/>
      <path class="cls-10" d="m258.03,285.52l40.02,1,39-4.02,40,26.02,40,7,40-17,40,10,40,7,39,30,40-19,40.01,9,40-22,40,17,40,7,40-5,39-2,40-11,40.01,47,40-11,40,16,40-24,39,35,40-1,39.95,153.01v342.97H258.03V285.52Z"/>
      <path class="cls-9" d="m258.03,171.5h916v363l-39.95-152.98-40,1-39-35-40,24-40-16-40,11-40.01-47-40,11-39,2-40,5-40-7-40-17-40,22-40.01-9-40,19-39-30-40-7-40-10-40,17-40-7-40-26-39,4-40.02-1v-114.02Z"/>
      <text class="cls-8" transform="translate(169.12 889.5)"><tspan x="0" y="0">0%</tspan></text>
      <text class="cls-8" transform="translate(148.22 748.5)"><tspan x="0" y="0">20%</tspan></text>
      <text class="cls-8" transform="translate(148.22 606.5)"><tspan x="0" y="0">40%</tspan></text>
      <text class="cls-8" transform="translate(148.22 465.5)"><tspan x="0" y="0">60%</tspan></text>
      <text class="cls-8" transform="translate(148.22 324.5)"><tspan x="0" y="0">80%</tspan></text>
      <text class="cls-8" transform="translate(127.32 183.5)"><tspan x="0" y="0">100%</tspan></text>
      <text class="cls-7" transform="translate(582.38 120.03)"><tspan x="0" y="0">high depth</tspan></text>
    </g>
  </g>
  <text/>
  <path class="cls-10" d="m1247.57,616.42l5.06,28,5-17,5,10,5,14,5-26,5,48,5,51,5.01-12,5-39,4,23,5-30,5,69,5-50,5,3,5-39,5,28,5-17,5,83.01,5,24,5-82.01,5,42,5-41,4,76.01,5-79.01,5,2,5,8,5,54.01,5-145.04,5,157.04,5-51.01,5,15,5-68,5,46,5,11,5,4,5,44.01,4-45.01,5-12,5-30,5,12,5,68.01,5-136.01,5,118,5-54,5-29,5,4,5,51,5,10,5,50.01,4-70.01,5-28,5,2,5,24,5,51.01,5-93.01,5,72,5-27,5-6,5-15,5,53,5,6,5-31,4-34,5,109.01,5-106.01,5,26,5-19,5,5,5-31,5.01,86,5-38,5,57.01,5-18.01,5-27,5,16,5,8,4-33,5,59.01,5-73.01,5-46,5,29,5,33,5,39.01,5-31.01,5-10,5,47.01,5-15.01,5,35.01,5-32.01,4-54,5-36,5,129.01,5-89.01,5,36,5-22,5-1,5,46.01,5-132.01,5,72,5,23,5,16,5-13,5-4,4,28,5,15.01,5-7,5-64.01,5,80.01,5-60.01,5,67.01,5-36.01,5,19.01,5-70.01,5,25,5-30,5,93.01,4,29,5-97.01,5-43,5,102.01,5-75.01,5-35,5,107.01,5-44.01,5,10,5,54.01,5-5,5,5,5-94.01,4-3,5,79.01,5-66.01,5.01,65.01,5-67.01,5,62.01,5-37.01,5,1,5,88.01,5-48,5,22,5-44.01,5-32,5,13,4,1,5-2,5,33.01,5,33,5-33,5,69,5-11,5,8,5-57,5,6,5,9,5,32,5-102.01h4l5,44.01,5,17,5-57.01h5l5,52.01,5-47.01,5,8,5-7,5,106.01,5-4,5,8,5-58,4,56,5-72,5-18.01,5,76.01,5,20,5-9,5,3,5,2,5-19,5-45,5,55,5,10,5-4,5,4,4,2,5,6,4.91-4v45.96h-916v-259.97Z"/>
  <path class="cls-9" d="m1247.57,171.39h916v659.04l-4.91,4.96-5-6.96-4-2-5-4-5,4-5-10-5-55-5,45-5,19-5-2-5-3-5,9-5-20-5-76.01-5,18.01-5,72-4-56-5,58-5-8-5,4-5-106.01-5,7-5-8-5,47.01-5-52.01h-5l-5,57.01-5-17-5-44.01h-4l-5,102.01-5-32-5-9-5-6-5,57-5-8-5,11-5-69-5,33-5-33-5-33.01-5,2-4-1-5-13-5,32-5,44.01-5-22-5,48-5-88.01-5-1-5,37.01-5-62.01-5,67.01-5.01-65.01-5,66.01-5-79.01-4,3-5,94.01-5-5-5,5-5-54.01-5-10-5,44.01-5-107.01-5,35-5,75.01-5-102.01-5,43-5,97.01-4-29-5-93.01-5,30-5-25-5,70.01-5-19.01-5,36.01-5-67.01-5,60.01-5-80.01-5,64.01-5,7-5-15.01-4-28-5,4-5,13-5-16-5-23-5-72-5,132.01-5-46.01-5,1-5,22-5-36-5,89.01-5-129.01-5,36-4,54-5,32.01-5-35.01-5,15.01-5-47.01-5,10-5,31.01-5-39.01-5-33-5-29-5,46-5,73.01-5-59.01-4,33-5-8-5-16-5,27-5,18.01-5-57.01-5,38-5.01-86-5,31-5-5-5,19-5-26-5,106.01-5-109.01-4,34-5,31-5-6-5-53-5,15-5,6-5,27-5-72-5,93.01-5-51.01-5-24-5-2-5,28-4,70.01-5-50.01-5-10-5-51-5-4-5,29-5,54-5-118-5,136.01-5-68.01-5-12-5,30-5,12-4,45.01-5-44.01-5-4-5-11-5-46-5,68-5-15-5,51.01-5-157.01-5,145.01-5-54.01-5-8-5-2-5,79.01-4-76.01-5,41-5-42-5,82.01-5-24-5-83.01-5,17-5-28-5,39-5-3-5,50-5-69-5,30-4-23-5,39-5.01,12-5-51-5-48-5,26-5-14-5-10-5,17-5.06-28V171.39Z"/>
  <rect class="cls-5" x="258.03" y="171.5" width="916" height="706"/>
  <polygon class="cls-5" points="2164.59 878.01 1244.5 876.99 1244.5 170.99 2164.59 172.01 2164.59 878.01"/>
  <rect class="cls-3" x="2303.02" y="420.17" width="45" height="45"/>
  <rect class="cls-2" x="2303.02" y="532.76" width="45" height="45"/>
  <text class="cls-7" transform="translate(2366.99 575.09)"><tspan x="0" y="0" xml:space="preserve"> pass</tspan></text>
  <text class="cls-6" transform="translate(2369.72 466.79)"><tspan x="0" y="0" xml:space="preserve"> duplication</tspan></text>
  <text class="cls-7" transform="translate(59.63 725.45) rotate(-90)"><tspan x="0" y="0">Percentage %</tspan></text>
  <path class="cls-13" d="m256.46,1217.28l39.68,11.93,39.55-4.97,40.6-20.88,39.55-22.87,39.55,30.83,39.55,4.97,40.6-23.87,39.56-19.89,39.55,19.89,39.55-11.93,40.6,13.92,39.55-14.92,39.55-20.88,39.55,12.93,40.6,8.95,39.57-3.98,39.55-16.91,39.55,8.95,40.6-3.98,39.55,14.92,39.55-4.97,39.55-9.94,40.45-86.54v581.7H256.46v-442.47Z"/>
  <path class="cls-11" d="m256.81,953.74h916v124.32l-40.45,86.51-39.55,9.94-39.55,4.97-39.55-14.92-40.6,3.98-39.55-8.95-39.55,16.91-39.57,3.98-40.6-8.95-39.55-12.93-39.55,20.88-39.55,14.92-40.6-13.92-39.55,11.93-39.55-19.89-39.56,19.89-40.6,23.87-39.55-4.97-39.55-30.83-39.55,22.87-40.6,20.88-39.55,4.94-39.68-11.9v-263.53Z"/>
  <rect class="cls-5" x="259.25" y="950.56" width="916" height="706"/>
  <text class="cls-8" transform="translate(169.12 1683.22)"><tspan x="0" y="0">0%</tspan></text>
  <text class="cls-8" transform="translate(148.22 1542.22)"><tspan x="0" y="0">20%</tspan></text>
  <text class="cls-8" transform="translate(148.22 1400.22)"><tspan x="0" y="0">40%</tspan></text>
  <text class="cls-8" transform="translate(148.22 1259.22)"><tspan x="0" y="0">60%</tspan></text>
  <text class="cls-8" transform="translate(148.22 1118.22)"><tspan x="0" y="0">80%</tspan></text>
  <text class="cls-8" transform="translate(127.32 977.22)"><tspan x="0" y="0">100%</tspan></text>
  <rect class="cls-5" x="1246.55" y="950.56" width="916" height="706"/>
  <path class="cls-13" d="m1247.53,1093.28l5.19,8.91,4.03-1.98,5.03-11.89,5.03-31.7,5.03,57.45,5.03-23.77h5.03l5.03-14.86,5.03,22.78,4.03-24.76,5.03,11.89,5.03-6.93,5.03-8.91,5.03,7.92,5.03,7.92,5.03,5.94,5.03-27.73,4.03,2.97h5.03l5.03,31.7,5.03-18.82,5.03,32.69,5.03-36.65,5.03,19.81,5.03-12.88,4.03.99,5.03-12.88,5.03,34.67,5.03-33.68,5.03,6.93,5.03-7.92,5.03,13.87,5.03-.99,4.03-4.95,5.03-21.79,5.03,8.91,5.03,26.74,5.03-24.76,5.03,26.74,5.03,3.96,5.03-31.7,4.03,8.91,5.03,8.92,5.03,11.89,5.03,31.7,5.03-47.54,5.03,3.96,5.03,6.93,5.03-13.87,4.03,3.96,5.03,11.89,5.03-8.91,5.03.99,5.03,2.97,5.03,9.9,5.04-2.97,5.03-10.9,4.03-8.92,5.03,17.83,5.03-15.85,5.03,11.89,5.03-14.86,5.03,4.95,5.03,4.95,5.03-12.88,4.03,17.83,5.03,19.81,5.03-36.65,5.03,2.97,5.03-15.85,5.03,20.8,5.03-12.88,5.03,16.84,4.03-5.94h5.03l5.03,4.95,5.03-41.62,5.03,29.74,5.03,15.85,5.03-20.8,5.03,2.97,4.03,4.95,5.03-17.83,5.03,49.52,5.03-9.9,5.03-8.91,5.03-6.93,5.03,2.97,5.03-22.78,4.03,63.39,5.03-23.77,5.03-37.64,5.03,38.63,5.03-39.62,5.03,13.87,5.03,6.93,5.03-18.82,4.03,11.89,5.03,42.59,5.03-42.59,5.03.99,5.03,4.95,5.03-15.85h5.03l5.03,23.77,4.03-13.87,5.03,30.71,5.03-43.58,5.03,38.63,5.03-23.77,5.03-3.96,5.03-16.84,5.03,45.56,4.03,2.97,5.03-42.59,5.03,15.85,5.03-5.94,5.03-1.98,5.03,11.89,5.04-30.71,5.03,62.4,4.03-48.54,5.03,2.97,5.03,12.88,5.03-17.83,5.03,1.98,5.03,2.97,5.03,8.91,5.03-1.98,4.03,8.92,5.03-7.92,5.03-28.72,5.03,28.72,5.03,20.8,5.03-37.64,5.03,18.82,4.03-1.98,5.03,17.83,5.03-32.69,5.03,22.78,5.03-9.91,5.03,29.72,5.03-42.59,5.03,19.81,4.03-3.96,5.03,4.95,5.03-7.92,5.03,9.91,5.03,6.93,5.03,33.68,5.03-54.48,5.03,14.86,4.03-.99,5.03-14.86,5.03,30.71,5.03-26.74,5.03,22.78,5.03-31.7,5.03,8.91,5.03,30.71,4.03-29.72h5.03l5.03,14.86,5.03-1.98,5.03-7.92,5.03-15.85,5.03,31.7,5.03-19.81,4.03-14.86,5.03,43.58,5.03,3.96,5.03-14.86,5.03-5.94,5.03,3.96,5.03-28.72,5.03,50.52,4.03-19.81,5.03-31.7,5.03,25.75,5.03-20.8,5.03,13.87,5.04-13.87,5.03,11.89,5.03-6.93,4.03,46.55,5.85-34.67v571.48h-913.02v-561.57Z"/>
  <path class="cls-11" d="m1247.53,952.61h913.02v130.77l-5.85,34.67-4.03-46.55-5.03,6.93-5.03-11.89-5.04,13.87-5.03-13.87-5.03,20.8-5.03-25.75-5.03,31.7-4.03,19.81-5.03-50.52-5.03,28.72-5.03-3.96-5.03,5.94-5.03,14.86-5.03-3.96-5.03-43.58-4.03,14.86-5.03,19.81-5.03-31.7-5.03,15.85-5.03,7.92-5.03,1.98-5.03-14.86h-5.03l-4.03,29.72-5.03-30.71-5.03-8.91-5.03,31.7-5.03-22.78-5.03,26.74-5.03-30.71-5.03,14.86-4.03.99-5.03-14.86-5.03,54.48-5.03-33.68-5.03-6.93-5.03-9.91-5.03,7.92-5.03-4.95-4.03,3.96-5.03-19.81-5.03,42.59-5.03-29.72-5.03,9.91-5.03-22.78-5.03,32.69-5.03-17.83-4.03,1.98-5.03-18.82-5.03,37.64-5.03-20.8-5.03-28.72-5.03,28.72-5.03,7.92-4.03-8.92-5.03,1.98-5.03-8.91-5.03-2.97-5.03-1.98-5.03,17.83-5.03-12.88-5.03-2.97-4.03,48.54-5.03-62.4-5.04,30.71-5.03-11.89-5.03,1.98-5.03,5.94-5.03-15.85-5.03,42.59-4.03-2.97-5.03-45.56-5.03,16.84-5.03,3.96-5.03,23.77-5.03-38.63-5.03,43.58-5.03-30.71-4.03,13.87-5.03-23.77h-5.03l-5.03,15.85-5.03-4.95-5.03-.99-5.03,42.59-5.03-42.59-4.03-11.89-5.03,18.82-5.03-6.93-5.03-13.87-5.03,39.62-5.03-38.63-5.03,37.64-5.03,23.77-4.03-63.39-5.03,22.78-5.03-2.97-5.03,6.93-5.03,8.91-5.03,9.9-5.03-49.52-5.03,17.83-4.03-4.95-5.03-2.97-5.03,20.8-5.03-15.85-5.03-29.72-5.03,41.6-5.03-4.95h-5.03l-4.03,5.94-5.03-16.84-5.03,12.88-5.03-20.8-5.03,15.85-5.03-2.97-5.03,36.65-5.03-19.81-4.03-17.83-5.03,12.88-5.03-4.95-5.03-4.95-5.03,14.86-5.03-11.89-5.03,15.85-5.03-17.83-4.03,8.92-5.03,10.9-5.04,2.97-5.03-9.9-5.03-2.97-5.03-.99-5.03,8.91-5.03-11.89-4.03-3.96-5.03,13.87-5.03-6.93-5.03-3.96-5.03,47.52-5.03-31.67-5.03-11.89-5.03-8.92-4.03-8.91-5.03,31.7-5.03-3.96-5.03-26.74-5.03,24.76-5.03-26.74-5.03-8.91-5.03,21.79-4.03,4.95-5.03.99-5.03-13.87-5.03,7.92-5.03-6.93-5.03,33.68-5.03-34.67-5.03,12.88-4.03-.99-5.03,12.88-5.03-19.81-5.03,36.65-5.03-32.69-5.03,18.82-5.03-31.7h-5.03l-4.03-2.97-5.03,27.73-5.03-5.94-5.03-7.92-5.03-7.92-5.03,8.91-5.03,6.93-5.03-11.89-4.03,24.76-5.03-22.78-5.03,14.86h-5.03l-5.03,23.77-5.03-57.45-5.03,31.7-5.03,11.89-4.03,1.98-5.19-8.91v-140.67Z"/>
  <rect class="cls-5" x="1246.55" y="950.56" width="916" height="706"/>
  <rect class="cls-4" x="2303.02" y="1208.67" width="45" height="45"/>
  <rect class="cls-1" x="2303.02" y="1321.26" width="45" height="45"/>
  <text class="cls-7" transform="translate(2387.87 1363.59)"><tspan x="0" y="0">included</tspan></text>
  <text class="cls-6" transform="translate(2369.71 1255.29)"><tspan x="0" y="0" xml:space="preserve"> identical</tspan></text>
  <text class="cls-7" transform="translate(54.92 1731.54) rotate(-90)"><tspan x="0" y="0">Percentage of duplicate sets %</tspan></text>
  <line class="cls-1" x1="256.48" y1="171.5" x2="236.48" y2="171.5"/>
  <line class="cls-1" x1="256.05" y1="313.02" x2="236.48" y2="313.02"/>
  <line class="cls-1" x1="256.05" y1="454.03" x2="236.48" y2="454.03"/>
  <line class="cls-1" x1="256.05" y1="595.03" x2="237.81" y2="595.03"/>
  <line class="cls-1" x1="256.05" y1="737.03" x2="237.81" y2="737.03"/>
  <line class="cls-1" x1="256.48" y1="877.5" x2="239.13" y2="877.5"/>
  <line class="cls-1" x1="1241.7" y1="170.98" x2="1221.7" y2="170.98"/>
  <line class="cls-1" x1="1241.26" y1="312.5" x2="1221.7" y2="312.5"/>
  <line class="cls-1" x1="1241.26" y1="453.5" x2="1221.7" y2="453.5"/>
  <line class="cls-1" x1="1241.26" y1="594.51" x2="1223.02" y2="594.51"/>
  <line class="cls-1" x1="1241.26" y1="736.51" x2="1223.02" y2="736.51"/>
  <line class="cls-1" x1="1241.7" y1="876.98" x2="1224.35" y2="876.98"/>
  <line class="cls-1" x1="257.81" y1="950.56" x2="237.81" y2="950.56"/>
  <line class="cls-1" x1="257.37" y1="1092.08" x2="237.81" y2="1092.08"/>
  <line class="cls-1" x1="257.37" y1="1233.09" x2="237.81" y2="1233.09"/>
  <line class="cls-1" x1="257.37" y1="1374.09" x2="239.13" y2="1374.09"/>
  <line class="cls-1" x1="257.37" y1="1516.09" x2="239.13" y2="1516.09"/>
  <line class="cls-1" x1="257.81" y1="1656.56" x2="240.46" y2="1656.56"/>
  <line class="cls-1" x1="1243.02" y1="950.54" x2="1223.02" y2="950.54"/>
  <line class="cls-1" x1="1242.59" y1="1092.06" x2="1223.02" y2="1092.06"/>
  <line class="cls-1" x1="1242.59" y1="1233.07" x2="1223.02" y2="1233.07"/>
  <line class="cls-1" x1="1242.59" y1="1374.07" x2="1224.35" y2="1374.07"/>
  <line class="cls-1" x1="1242.59" y1="1516.07" x2="1224.35" y2="1516.07"/>
  <line class="cls-1" x1="1243.02" y1="1656.54" x2="1225.68" y2="1656.54"/>
  <text class="cls-7" transform="translate(1495.33 120.03)"><tspan x="0" y="0">medium depth</tspan></text>
</svg>